<svg xmlns="http://www.w3.org/2000/svg" viewBox="0 0 1920.58 886.4"><defs><style>.cls-1{opacity:0.3;}.cls-2{fill:none;stroke:#9b928c;stroke-miterlimit:10;}.cls-3,.cls-4,.cls-5,.cls-6,.cls-7,.cls-8{fill:#e88149;}.cls-3{opacity:0;}.cls-4{opacity:0.1;}.cls-5{opacity:0.2;}.cls-6{opacity:0.3;}.cls-7{opacity:0.4;}.cls-8{opacity:0.5;}</style></defs><g id="图层_2" data-name="图层 2"><g id="图层_1-2" data-name="图层 1"><g class="cls-1"><path class="cls-2" d="M1920.12,471s-93.21-210.28-203.86-207.74c-168.91,3.88-15.53,258.22-304.82,223.27-198.31-24-528.67,253.93-528.67,253.93"/><path class="cls-2" d="M1919.84,483s-92.41-201-201.25-199.47c-106.23,1.82-83.44,103.74-129.39,165.59-25.18,33.9-71.7,55.88-170.62,43.9-194.09-23.53-514.83,242.68-517.75,242.54"/><path class="cls-2" d="M1919.56,495.05s-91.62-192-198.64-191.19c-103.24.8-83.22,97.75-128.57,155.41-24.95,31.73-71,51.89-166.63,40.29-189.88-23.11-501,231.43-506.84,231.15"/><path class="cls-2" d="M1919.29,507.07s-90.83-182.89-196-182.92c-100.25,0-83,91.79-127.75,145.25-24.75,29.57-70.35,47.9-162.64,36.67C1247.2,483.39,945.71,726.26,936.94,725.83"/><path class="cls-2" d="M1919,519.09s-90-173.73-193.42-174.64c-97.26-.86-82.89,85.84-126.94,135.07C1574.09,507,1529,523.44,1440,512.59,1258.55,490.32,966.68,721.52,955,721"/><path class="cls-2" d="M1918.73,531.11s-89.23-164.57-190.81-166.37c-94.26-1.66-82.8,79.92-126.13,124.9-24.41,25.34-69,39.93-154.64,29.46-177.24-21.84-459.49,197.68-474.1,197"/><path class="cls-2" d="M1918.45,543.12S1830,387.73,1730.25,385c-91.26-2.47-82.78,74-125.31,114.72-24.29,23.27-68.31,36-150.65,25.85-173-21.42-445.65,186.43-463.18,185.58"/><path class="cls-2" d="M1918.18,555.14s-87.63-146.21-185.6-149.81c-88.26-3.24-82.84,68.09-124.49,104.55-24.23,21.21-67.63,32-146.66,22.24-168.81-21-431.81,175.18-452.27,174.19"/><path class="cls-2" d="M1917.9,567.16s-86.82-137-183-141.54c-85.26-4-83,62.18-123.67,94.38-24.22,19.18-67,28-142.67,18.63-164.6-20.57-418,163.94-441.35,162.8"/><path class="cls-2" d="M1917.62,579.18s-86-127.8-180.38-133.26c-82.26-4.76-83.27,56.22-122.85,84.2-24.28,17.16-66.27,24-138.68,15C1315.33,525,1071.57,697.83,1045.27,696.55"/><path class="cls-2" d="M1917.35,591.2s-85.2-118.57-177.78-125c-79.25-5.49-83.67,50.23-122,74-24.41,15.15-65.6,20-134.69,11.41-156.17-19.72-390.3,141.44-419.52,140"/><path class="cls-2" d="M1917.07,603.22s-84.39-109.32-175.16-116.71c-76.26-6.21-84.22,44.14-121.22,63.85-24.62,13.12-64.92,16-130.7,7.8-152-19.3-376.46,130.19-408.6,128.63"/><path class="cls-2" d="M1916.79,615.24s-83.58-100.06-172.55-108.44c-73.25-6.9-84.91,37.95-120.4,53.68-24.93,11.06-64.24,12-126.71,4.19-147.74-18.87-362.62,119-397.69,117.23"/><path class="cls-2" d="M1916.51,627.26s-82.77-90.76-169.94-100.16c-70.25-7.58-85.74,31.59-119.58,43.5-25.32,8.92-63.56,8.06-122.72.58C1360.75,552.73,1155.48,678.88,1117.5,677"/><path class="cls-2" d="M1916.24,639.28s-82-81.45-167.34-91.89c-67.25-8.23-88.68,19.45-118.76,33.34-26.56,1.94-62.89,4.06-118.72-3-139.32-18-335,96.45-375.87,94.45"/><path class="cls-2" d="M1916,651.29s-81.16-72.09-164.73-83.61c-64.25-8.85-89,13-117.94,23.17-26.65-.5-62.21.08-114.73-6.65-135.1-17.6-321.12,85.2-365,83.06"/><path class="cls-2" d="M1915.68,663.31S1835.32,600.6,1753.56,588c-61.25-9.46-88.7,11.3-117.12,13-26.84,1.6-61.53-3.91-110.74-10.26-130.89-17.18-307.28,73.95-354,71.67"/><path class="cls-2" d="M1915.4,675.33s-79.57-53.29-159.5-67.06c-58.27-10-89.65,4.1-116.31,2.82-27.31-1.31-60.86-7.89-106.75-13.87-126.67-16.75-293.44,62.71-343.12,60.28"/><path class="cls-2" d="M1915.13,687.35s-78.8-43.82-156.9-58.78c-55.29-10.59-90.42-3.29-115.49-7.36-27.64-4.49-60.18-11.87-102.76-17.48-122.46-16.33-279.61,51.46-332.2,48.89"/><path class="cls-2" d="M1914.85,699.37s-78-34.31-154.29-50.51c-52.33-11.11-91-10.76-114.67-17.53-27.75-7.92-59.5-15.86-98.77-21.09-118.24-15.91-265.77,40.21-321.29,37.5"/><path class="cls-2" d="M1914.57,711.39s-77.3-24.74-151.68-42.23c-49.37-11.61-91.21-18.26-113.85-27.71-27.58-11.5-58.82-19.84-94.78-24.69-114-15.49-251.93,29-310.37,26.1"/><path class="cls-2" d="M1914.29,723.41s-206.14-40.64-262.1-71.84c-118.43-66-310.64-9.71-390.24-13.59"/><path class="cls-2" d="M1225.06,511.78S1203.22,406.7,1032.85,473c-209.69,81.55-454.32,135.91-598,101"/><path class="cls-2" d="M1214.62,518.09s-20.72-98.64-181.41-36.16C835.34,558.87,601.88,614.58,453.3,579.74"/><path class="cls-2" d="M1204.18,524.4s-19.59-92.19-170.61-33.49c-186.06,72.32-408.33,129.4-561.82,94.65"/><path class="cls-2" d="M1193.75,530.71s-18.47-85.74-159.81-30.82C859.68,567.6,648.59,626,490.19,591.39"/><path class="cls-2" d="M1183.31,537s-17.35-79.3-149-28.15C871.86,572,671.94,631.75,508.64,597.21"/><path class="cls-2" d="M1172.88,543.33s-16.23-72.85-138.21-25.48C884,576.34,695.3,637.48,527.08,603"/><path class="cls-2" d="M1162.44,549.64s-15.1-66.4-127.41-22.81c-138.82,53.88-316.38,116.37-489.5,82"/><path class="cls-2" d="M1152,556s-14-60-116.62-20.14C908.38,585.08,742,648.92,564,614.68"/><path class="cls-2" d="M1141.57,562.26s-12.86-53.51-105.81-17.47c-115.21,44.66-270.4,109.86-453.35,75.72"/><path class="cls-2" d="M1131.14,568.57s-11.74-47.07-95-14.8c-103.39,40.05-247.41,106.6-435.26,72.56"/><path class="cls-2" d="M1120.7,574.88s-10.62-40.62-84.21-12.13C944.9,598.18,812.06,666.09,619.3,632.16"/><path class="cls-2" d="M1110.26,581.19s-9.49-34.17-73.41-9.46C957.07,602.55,835.41,671.82,637.75,638"/><path class="cls-2" d="M1099.83,587.5s-8.37-27.73-62.62-6.79c-68,26.21-178.44,96.83-381,63.1"/><path class="cls-2" d="M1089.39,593.81s-7.25-21.28-51.81-4.12c-56.16,21.6-155.46,93.58-362.94,59.94"/><path class="cls-2" d="M1079,600.12s-6.13-14.83-41-1.45c-44.34,17-132.47,90.32-344.86,56.79"/><path class="cls-2" d="M1068.52,606.43s-5-8.39-30.21,1.22c-32.54,12.38-109.48,87.06-326.78,53.63"/><path class="cls-2" d="M1058.09,612.74s-3.89-1.94-19.42,3.88c-20.73,7.78-86.49,83.82-308.7,50.48"/><path class="cls-2" d="M1.12,235.17c254.33,182.5,340.69,294,340.69,294"/><path class="cls-2" d="M2.41,250.05C57.53,289.6,117.62,325.46,161.28,361,301.2,474.73,360.35,540.58,368.39,538.18"/><path class="cls-2" d="M3.7,264.94C56.07,302.51,127.08,336.37,173,373.66,312.11,486.83,378.89,552,395,547.2"/><path class="cls-2" d="M5,279.82c49.61,35.6,131.53,67.46,179.61,106.55C323,498.92,397.43,563.43,421.56,556.22"/><path class="cls-2" d="M6.29,294.71c46.86,33.61,139.7,63.48,190,104.37C333.94,511,416,574.86,448.14,565.24"/><path class="cls-2" d="M7.59,309.59C51.68,341.23,155.44,369.1,208,411.79,344.86,523.12,434.5,586.28,474.72,574.26"/><path class="cls-2" d="M8.88,324.47c41.34,29.67,156,55.54,210.73,100C355.77,535.21,453,597.71,501.3,583.28"/><path class="cls-2" d="M10.18,339.36c38.58,27.69,164.17,51.56,221.1,97.85,135.41,110.1,240.3,171.92,296.61,155.1"/><path class="cls-2" d="M11.47,354.24C47.3,380,183.8,401.84,243,449.92,377.6,559.41,490.12,620.56,554.47,601.33"/><path class="cls-2" d="M12.76,369.13c33.08,23.73,180.5,43.62,241.85,93.5C388.52,571.5,508.66,632,581.05,610.35"/><path class="cls-2" d="M14.06,384c30.32,21.76,188.65,39.65,252.22,91.33,133.15,108.26,260.92,168.07,341.35,144"/><path class="cls-2" d="M15.35,398.9c27.56,19.78,196.82,35.67,262.59,89.15C410.35,595.7,545.74,654.83,634.21,628.39"/><path class="cls-2" d="M16.65,413.78c24.8,17.8,205,31.7,273,87,131.65,107,274.67,165.5,371.19,136.65"/><path class="cls-2" d="M17.94,428.67C40,444.49,231.07,456.39,301.28,513.46c130.9,106.43,281.53,164.22,386.1,133"/><path class="cls-2" d="M19.24,443.55c19.29,13.85,221.29,23.75,293.7,82.62C443.1,632,601.35,689.11,714,655.45"/><path class="cls-2" d="M20.53,458.44C37.07,470.31,250,478.21,324.61,538.88,454,644.08,619.89,700.53,740.54,664.48"/><path class="cls-2" d="M21.83,473.32c13.78,9.89,237.61,15.8,314.45,78.27C464.93,656.18,638.43,712,767.13,673.5"/><path class="cls-2" d="M23.12,488.21c11,7.91,245.77,11.82,324.82,76.09,127.9,104,309,159.08,445.77,118.22"/><path class="cls-2" d="M24.41,503.09C32.68,509,278.35,511,359.61,577c127.15,103.36,315.9,157.8,460.68,114.53"/><path class="cls-2" d="M25.71,518c5.51,3.95,262.09,3.88,345.57,71.74C497.67,692.47,694.05,746.23,846.87,700.56"/><path class="cls-2" d="M27,532.86c2.76,2,270.25-.09,355.94,69.57C508.59,704.56,712.59,757.66,873.46,709.58"/><path class="cls-2" d="M28.3,547.75s278.41-4.07,366.31,67.39C519.5,716.66,731.13,769.08,900,718.6"/><path class="cls-2" d="M.5,234.58s16-330.93,288.77-205.83C610.9,176.29,674.82,454.56,1135,442.91"/><path class="cls-2" d="M14.13,245.07s15.76-317,276.92-196.18C598.1,190.25,659.92,461.33,1112.92,449.28"/><path class="cls-2" d="M27.75,255.55S43.23-47.5,292.84,69c292.47,135.2,352.17,399.08,798,386.63"/><path class="cls-2" d="M41.38,266S56.25-22.38,294.63,89.16C572.13,219,630.11,474.86,1068.83,462"/><path class="cls-2" d="M55,276.52S69.48,2.27,296.42,109.29c262.79,123.93,318.78,372.34,750.37,359.1"/><path class="cls-2" d="M68.64,287S82.71,26.92,298.2,129.43c248.09,118,302.1,359,726.55,345.33"/><path class="cls-2" d="M82.26,297.5S95.94,51.57,300,149.56c233.38,112.08,285.4,345.61,702.72,331.57"/><path class="cls-2" d="M95.89,308S109.17,76.21,301.78,169.7C520.45,275.84,570.49,501.94,980.67,487.5"/><path class="cls-2" d="M109.52,318.47s12.88-217.63,194-128.64c204,100.2,252,318.88,655.06,304"/><path class="cls-2" d="M123.14,329s12.49-203.48,182.21-119C494.62,304.2,540.68,515.48,936.58,500.25"/><path class="cls-2" d="M136.77,339.44S148.86,150.09,307.14,230.1c174.58,88.26,218.64,292.15,607.4,276.52"/><path class="cls-2" d="M150.4,349.92s11.68-175.22,158.53-99.68C468.82,332.49,510.87,529,892.5,513"/><path class="cls-2" d="M164,360.41s11.28-161.12,146.68-90c145.21,76.23,185.26,265.41,559.75,249"/><path class="cls-2" d="M177.65,370.9s10.88-147,134.85-80.39c130.53,70.17,168.56,252,535.91,235.22"/><path class="cls-2" d="M191.28,381.38s10.48-133,123-70.73C430.16,374.72,466.16,549.33,826.37,532.1"/><path class="cls-2" d="M204.91,391.87S215,272.93,316.07,330.78,451.25,556.1,804.33,538.47"/><path class="cls-2" d="M218.53,402.35s9.69-105,99.33-51.43c86.61,51.7,118.49,212,464.43,193.92"/><path class="cls-2" d="M232.16,412.84s9.31-91,87.49-41.79c72,45.38,101.79,198.59,440.6,180.16"/><path class="cls-2" d="M245.79,423.33s9-77.25,75.65-32.14C379,430.1,406.54,576.4,738.2,557.58"/><path class="cls-2" d="M259.42,433.81s8.75-63.65,63.8-22.49C366.34,443.57,391.63,583.17,716.16,564"/><path class="cls-2" d="M273,444.3s8.85-50.47,52-12.84c29,25.27,51.72,158.48,369.11,138.87"/><path class="cls-2" d="M286.67,454.78s10.1-38.21,40.13-3.19c15.36,17.93,35,145.12,345.28,125.11"/></g><path class="cls-3" d="M1878.1,842.55c-50,65-363,16-500,37-192.77,29.55-396-42-425-110-40.55-95.08,334,54,648-46C1809.79,657.09,1923,784.22,1878.1,842.55Z"/><path class="cls-4" d="M1806.5,834c-33.48,54.27-295.58,15-418.2,34.2-160.62,24.84-335-33.59-358.2-89.8-32.44-77.87,271.48,40.89,536.2-38.2C1746.32,686.36,1836.52,785.29,1806.5,834Z"/><path class="cls-5" d="M1734.9,825.35c-16.94,43.5-228.11,14.17-336.4,31.4-128.42,20.43-273.82-25.25-291.4-69.6-24.09-60.76,209.05,28,424.4-30.4C1682.91,715.72,1750.09,786.33,1734.9,825.35Z"/><path class="cls-6" d="M1663.3,816.75c-.4,32.61-160.68,13.21-254.6,28.6-96.25,15.77-212.75-16.86-224.6-49.4-15.88-43.59,146.76,15.34,312.6-22.6C1619.59,745.24,1663.66,787.25,1663.3,816.75Z"/><path class="cls-7" d="M1591.7,808.15c15.85,21.62-93.25,12.17-172.8,25.8-64.11,11-151.71-8.45-157.8-29.2-7.74-26.36,84.7,3.37,200.8-14.8C1556.42,775.16,1577,788.09,1591.7,808.15Z"/><path class="cls-8" d="M1520.1,799.55c32,11-25.89,10.79-91,23-32,6-91,.05-91-9s22.75-7,89-7S1490.19,789.27,1520.1,799.55Z"/></g></g></svg>