<svg id="图层_1" data-name="图层 1" xmlns="http://www.w3.org/2000/svg" xmlns:xlink="http://www.w3.org/1999/xlink" viewBox="0 0 1920 1080"><defs><style>.cls-1,.cls-4,.cls-5{fill:none;}.cls-2{opacity:0.51;}.cls-3{clip-path:url(#clip-path);}.cls-4{stroke:#9b928c;}.cls-4,.cls-5{stroke-miterlimit:10;}.cls-5{stroke:#e88149;stroke-linecap:round;stroke-width:7px;}</style><clipPath id="clip-path"><rect class="cls-1" x="0.5" width="1920" height="1080"/></clipPath></defs><g class="cls-2"><g class="cls-3"><path class="cls-4" d="M-229.22,467.66s421.68-133.76,870.44,9,603.16,266.63,853.28,211.5"/><path class="cls-4" d="M-265.48,492.5S146,362,583.83,501.32,1177.62,763,1421.66,709.23"/><path class="cls-4" d="M-301.75,517.33s401.21-127.27,828.19,8.6,584.42,256.79,822.39,204.33"/><path class="cls-4" d="M-338,542.16s391-124,807.05,8.39,575.05,251.87,807,200.75"/><path class="cls-4" d="M-374.28,567S6.46,446.22,411.65,575.16s565.68,247,791.51,197.17"/><path class="cls-4" d="M-410.54,591.83S-40,474.3,354.26,599.77s556.31,242,776.07,193.6"/><path class="cls-4" d="M-446.81,616.67s360.27-114.29,743.68,7.72,546.94,237.11,760.63,190"/><path class="cls-4" d="M-483.07,641.5s350-111,722.55,7.5S777,881.2,984.66,835.43"/><path class="cls-4" d="M-519.34,666.34s339.8-107.8,701.43,7.28S710.28,900.89,911.83,856.47"/><path class="cls-4" d="M-555.6,691.17S-226,586.62,124.69,698.23,643.52,920.59,839,877.5"/><path class="cls-4" d="M2246.71,231.85S1864.06,81.65,1456.82,242,909.47,541.38,682.5,479.47"/><path class="cls-4" d="M2275.68,259.61s-373.37-146.56-770.72,9.9S970.89,561.63,749.43,501.23"/><path class="cls-4" d="M2304.65,287.37S1940.57,144.46,1553.1,297,1032.32,581.88,816.37,523"/><path class="cls-4" d="M2333.62,315.13s-354.79-139.26-732.38,9.41S1093.74,602.13,883.3,544.73"/><path class="cls-4" d="M2362.59,342.9s-345.51-135.62-713.21,9.16S1155.17,622.38,950.23,566.48"/><path class="cls-4" d="M2391.56,370.66s-336.22-132-694,8.92S1216.6,642.63,1017.17,588.24"/><path class="cls-4" d="M2420.53,398.42s-326.93-128.32-674.87,8.67S1278,662.88,1084.1,610"/><path class="cls-4" d="M2449.49,426.18s-317.64-124.68-655.69,8.43S1339.45,683.13,1151,631.74"/><path class="cls-4" d="M2478.46,454s-308.35-121-636.52,8.18-441.07,241.25-624,191.36"/><path class="cls-4" d="M2507.43,481.71s-299.06-117.39-617.34,7.93-427.79,234-605.18,185.61"/><path class="cls-4" d="M1696.87,1520.06S1310.11,1095.4,846,1015.5c-273-47-467-43-833-339"/><path class="cls-4" d="M1558.84,1488.15s-364.47-393.49-798.4-468c-262.55-45-492.54-70.43-833.2-349.65"/><path class="cls-4" d="M1420.8,1456.23s-342.16-362.32-745.91-431.4c-252.11-43-518.08-97.84-833.41-360.29"/><path class="cls-4" d="M1282.77,1424.32S962.91,1093.16,589.33,1029.5c-241.67-41-543.61-125.27-833.61-370.94"/><path class="cls-4" d="M1144.73,1392.41s-297.56-300-640.95-358.24C272.55,995.17-65.37,881.47-330,652.58"/><path class="cls-4" d="M1006.7,1360.49s-275.26-268.82-588.48-321.66c-220.78-37-594.69-180.12-834-392.23"/><path class="cls-4" d="M868.67,1328.58s-253-237.65-536-285.08C122.33,1008.5-287.56,836-501.56,640.62"/><path class="cls-4" d="M730.63,1296.66S500,1090.18,247.11,1048.17c-199.89-33-645.76-235-834.43-413.53"/><path class="cls-4" d="M592.6,1264.75s-208.36-175.32-431-211.92c-189.44-31-671.29-262.39-834.63-424.17"/><path class="cls-4" d="M454.56,1232.84S268.51,1088.69,76,1057.5c-179-29-696.84-289.82-834.84-434.82"/><path class="cls-4" d="M2117,802.2s-353-238.7-745-75.7c-404.13,168-587,207-876,135"/><path class="cls-4" d="M2163.08,829.45s-345.8-228-730.67-72.27C1036.76,917.4,861.05,963,585,892"/><path class="cls-4" d="M2209.13,856.69s-338.57-217.32-716.31-68.83C1105.65,940.27,937.11,992.55,674,922.47"/><path class="cls-4" d="M2255.18,883.94s-331.34-206.63-701.95-65.4C1174.54,963.13,1013.16,1022.07,763,953"/><path class="cls-4" d="M2301.23,911.19s-324.11-196-687.59-62C1243.43,986,1089.22,1051.6,852,983.44"/><path class="cls-4" d="M2347.28,938.43s-316.88-185.25-673.22-58.54c-361.73,129-508.78,201.23-733.12,134"/><path class="cls-4" d="M2393.33,965.68s-309.65-174.57-658.86-55.11c-353.25,121.15-493.14,200.08-704.55,133.84"/><path class="cls-4" d="M2439.38,992.92S2137,829.05,1794.88,941.25c-344.77,113.33-477.49,198.92-676,133.65"/><path class="cls-4" d="M2485.42,1020.17S2190.24,867,1855.29,971.93C1519,1077.44,1393.44,1169.7,1207.9,1105.38"/><path class="cls-4" d="M2531.47,1047.41s-287.95-142.49-615.77-44.8-446.2,196.61-618.81,133.26"/></g></g><path class="cls-5" d="M3.5,431.5s358-86,917,159c315.22,138.15,458,125,458,125"/><path class="cls-5" d="M1016.5,868.5s122-28,373-138c0,0,276-130,526-1"/></svg>