<svg id="图层_1" data-name="图层 1" xmlns="http://www.w3.org/2000/svg" viewBox="0 0 1920 1080"><defs><style>.cls-1,.cls-10,.cls-11,.cls-12,.cls-13,.cls-14,.cls-15,.cls-16,.cls-17,.cls-2,.cls-3,.cls-4,.cls-5,.cls-6,.cls-7,.cls-8,.cls-9{fill:none;stroke-miterlimit:10;}.cls-1{stroke:#e88149;}.cls-2{stroke:#e3824d;}.cls-3{stroke:#de8351;}.cls-4{stroke:#da8456;}.cls-5{stroke:#d5855a;}.cls-6{stroke:#d0865e;}.cls-7{stroke:#cb8762;}.cls-8{stroke:#c68866;}.cls-9{stroke:#c28a6b;}.cls-10{stroke:#bd8b6f;}.cls-11{stroke:#b88c73;}.cls-12{stroke:#b38d77;}.cls-13{stroke:#ae8e7b;}.cls-14{stroke:#a98f7f;}.cls-15{stroke:#a59084;}.cls-16{stroke:#a09188;}.cls-17{stroke:#9b928c;}</style></defs><path class="cls-1" d="M0,420.5s46-331,117-329,43,213,188,257,411,138,411,138"/><path class="cls-2" d="M5.19,420.06S48.44,108.38,119.12,110.62c68.09,2,44.4,200,183,241.43C441.41,393.53,694.3,481.9,696.19,482.12"/><path class="cls-3" d="M10.37,419.62s40.5-292.21,110.88-289.87c65.16,2.17,45.79,187,178,225.86,133.56,39,373.35,121.7,377.11,122.14"/><path class="cls-4" d="M15.56,419.19S53.3,146.35,123.37,148.88c62.25,2.24,47.19,174,173,210.28C424.23,395.6,650.91,472.71,656.56,473.38"/><path class="cls-5" d="M20.75,418.75S55.74,165.29,125.5,168c59.32,2.3,48.5,161.25,168,194.72C415.57,396.9,629.22,468.11,636.75,469"/><path class="cls-6" d="M25.94,418.31S58.17,184.23,127.62,187.12c56.41,2.36,49.89,148.3,163,179.15C407,398,607.52,463.52,616.94,464.62"/><path class="cls-7" d="M31.12,417.88S60.6,203.16,129.75,206.25c53.49,2.39,51.27,135.34,158,163.58,110.59,29.24,298.05,89.09,309.34,90.42"/><path class="cls-8" d="M36.31,417.44S63,222.08,131.87,225.38c50.58,2.42,52.66,122.38,153,148,104.86,26.77,279.22,80.94,292.4,82.5"/><path class="cls-9" d="M41.5,417s24-176,92.5-172.5c47.65,2.44,54.05,109.41,148,132.44,99.14,24.28,260.4,72.79,275.46,74.56"/><path class="cls-10" d="M46.69,416.56s21.22-156.68,89.43-152.94c44.74,2.46,55.45,96.43,143.06,116.87,93.41,21.79,241.56,64.64,258.51,66.63"/><path class="cls-11" d="M51.87,416.12s18.47-137.35,86.38-133.37c41.82,2.45,56.84,83.44,138.06,101.29,87.69,19.29,222.74,56.5,241.56,58.71"/><path class="cls-12" d="M57.06,415.69s15.72-118,83.31-113.81c38.91,2.44,58.25,70.42,133.07,85.72,82,16.76,203.91,48.34,224.62,50.78"/><path class="cls-13" d="M62.25,415.25s13-98.77,80.25-94.25c36,2.42,59.65,57.4,128.07,70.15,76.27,14.23,185.08,40.19,207.68,42.85"/><path class="cls-14" d="M67.44,414.81s10.21-79.51,77.18-74.69c33.08,2.39,61.07,44.35,123.08,54.59,70.57,11.65,166.26,32,190.74,34.91"/><path class="cls-15" d="M72.62,414.38s7.48-60.3,74.13-55.13c30.16,2.34,62.48,31.26,118.08,39,64.87,9.05,147.43,23.89,173.79,27"/><path class="cls-16" d="M77.81,413.94s4.73-41.12,71.06-35.56c27.26,2.28,63.91,18.13,113.09,23.44,59.18,6.38,128.61,15.73,156.85,19.06"/><path class="cls-17" d="M83,413.5s2-22,68-16c54.78,5,193.78,12.62,248,19"/><path class="cls-1" d="M257,323.5s91.68-41.66,124-92c52-81,118.84-29.93,146,8,63,88,91,316,348,243"/><path class="cls-2" d="M258,324.19s87.84-38.45,119.55-85.39c50.81-75.2,114.64-27.13,140.7,8.51C579,330.44,614.56,547.94,858.69,480.19"/><path class="cls-3" d="M259,324.88s84-35.22,115.1-78.77c49.6-69.4,110.45-24.34,135.4,9C568,333.38,611.12,540.38,842.37,477.88"/><path class="cls-4" d="M260,325.56s80.1-32,110.65-72.15c48.36-63.58,106.25-21.55,130.1,9.53,56.31,73.38,106.94,269.87,325.31,212.62"/><path class="cls-5" d="M261,326.25s76.19-28.71,106.2-65.53C414.28,203,469.27,242,492,270.75c54.1,68.52,112.25,254.5,317.75,202.5"/><path class="cls-6" d="M262,326.94S334.26,301.51,363.75,268c45.74-51.91,97.89-16,119.5,10.54,51.9,63.65,117.56,239.13,310.19,192.38"/><path class="cls-7" d="M263,327.62s68.28-22.13,97.31-52.29c44.33-46.07,93.7-13.18,114.19,11.05,49.71,58.78,122.87,223.74,302.62,182.24"/><path class="cls-8" d="M264,328.31s64.26-18.82,92.86-45.68c42.85-40.23,89.54-10.39,108.89,11.56,47.54,53.91,128.19,208.37,295.06,172.12"/><path class="cls-9" d="M265,329s60.17-15.51,88.41-39.06C394.67,255.52,438.79,282.33,457,302c45.39,49.05,133.5,193,287.5,162"/><path class="cls-10" d="M266,329.69s56-12.21,84-32.45c39.56-28.64,81.24-4.83,98.29,12.57C491.52,354,587.06,487.44,728.19,461.69"/><path class="cls-11" d="M267,330.38s51.75-8.94,79.51-25.83c37.71-22.95,77.11-2.06,93,13.07,41.19,39.28,144.12,162.26,272.37,141.76"/><path class="cls-12" d="M268,331.06s47.4-5.73,75.06-19.21c35.71-17.39,73,.7,87.69,13.59,39.15,34.37,149.44,146.87,264.81,131.62"/><path class="cls-13" d="M269,331.75s42.95-2.68,70.62-12.59c33.57-12,68.91,3.43,82.38,14.09,37.17,29.42,154.75,131.5,257.25,121.5"/><path class="cls-14" d="M270,332.44s38.43.15,66.17-6c31.37-6.92,64.86,6.15,77.08,14.6,35.26,24.4,160.06,116.13,249.69,111.38"/><path class="cls-15" d="M271,333.12s33.94,2.67,61.72.65c29.21-2.13,60.84,8.81,71.78,15.11,33.44,19.23,165.37,100.74,242.12,101.24"/><path class="cls-16" d="M272,333.81s29.61,4.84,57.27,7.26c27.26,2.4,56.83,11.41,66.48,15.62,31.71,13.83,170.69,85.37,234.56,91.12"/><path class="cls-17" d="M273,334.5s96.79,25.41,114,30c30,8,176,70,227,81"/></svg>