<svg id="图层_1" data-name="图层 1" xmlns="http://www.w3.org/2000/svg" viewBox="0 0 1920 1080"><defs><style>.cls-1,.cls-10,.cls-11,.cls-12,.cls-13,.cls-14,.cls-15,.cls-16,.cls-17,.cls-18,.cls-19,.cls-2,.cls-20,.cls-21,.cls-22,.cls-23,.cls-24,.cls-25,.cls-26,.cls-27,.cls-28,.cls-29,.cls-3,.cls-30,.cls-31,.cls-32,.cls-33,.cls-34,.cls-35,.cls-36,.cls-37,.cls-4,.cls-5,.cls-6,.cls-7,.cls-8,.cls-9{fill:none;stroke-miterlimit:10;}.cls-1{stroke:#e88149;}.cls-2{stroke:#e4824c;}.cls-3{stroke:#e1834f;}.cls-4{stroke:#dd8353;}.cls-5{stroke:#d98456;}.cls-6{stroke:#d68559;}.cls-7{stroke:#d2865c;}.cls-8{stroke:#ce875f;}.cls-9{stroke:#cb8763;}.cls-10{stroke:#c78866;}.cls-11{stroke:#c38969;}.cls-12{stroke:#c08a6c;}.cls-13{stroke:#bc8b6f;}.cls-14{stroke:#b88c72;}.cls-15{stroke:#b58c76;}.cls-16{stroke:#b18d79;}.cls-17{stroke:#ad8e7c;}.cls-18{stroke:#aa8f7f;}.cls-19{stroke:#a69082;}.cls-20{stroke:#a29086;}.cls-21{stroke:#9f9189;}.cls-22{stroke:#9b928c;}.cls-23{stroke:#e3824d;}.cls-24{stroke:#de8351;}.cls-25{stroke:#da8456;}.cls-26{stroke:#d5855a;}.cls-27{stroke:#d0865e;}.cls-28{stroke:#cb8762;}.cls-29{stroke:#c68866;}.cls-30{stroke:#c28a6b;}.cls-31{stroke:#bd8b6f;}.cls-32{stroke:#b88c73;}.cls-33{stroke:#b38d77;}.cls-34{stroke:#ae8e7b;}.cls-35{stroke:#a98f7f;}.cls-36{stroke:#a59084;}.cls-37{stroke:#a09188;}</style></defs><path class="cls-1" d="M1920,580.5s-48-108.31-105-107c-87,2-8,133-157,115-102.14-12.34-272.3,130.79-272.3,130.79"/><path class="cls-2" d="M1919.85,586.69S1872.26,483.17,1816.2,484c-54.7.94-43,53.41-66.63,85.27-13,17.47-36.93,28.8-87.89,22.63-100-12.12-265.17,125-266.68,124.92"/><path class="cls-3" d="M1919.71,592.88s-47.19-98.9-102.31-98.47c-53.17.41-42.87,50.32-66.21,80-12.85,16.35-36.58,26.75-85.84,20.78-97.8-11.91-258,119.2-261,119"/><path class="cls-4" d="M1919.57,599.07s-46.78-94.19-101-94.21c-51.62,0-42.77,47.25-65.79,74.79-12.74,15.24-36.23,24.69-83.78,18.91C1573.4,586.88,1418.11,712,1413.6,711.75"/><path class="cls-5" d="M1919.43,605.26s-46.38-89.48-99.63-90c-50.08-.44-42.7,44.2-65.37,69.55-12.65,14.15-35.88,22.64-81.72,17-93.46-11.46-243.79,107.62-249.81,107.32"/><path class="cls-6" d="M1919.28,611.45s-46-84.76-98.28-85.69c-48.54-.85-42.65,41.15-65,64.32-12.57,13.06-35.53,20.58-79.66,15.19C1585.1,594,1439.72,707.09,1432.2,706.72"/><path class="cls-7" d="M1919.14,617.64s-45.55-80-96.94-81.42c-47-1.27-42.64,38.1-64.53,59.07-12.51,12-35.18,18.53-77.61,13.33-89.11-11-229.53,96-238.56,95.59"/><path class="cls-8" d="M1919,623.83s-45.13-75.3-95.59-77.16c-45.46-1.67-42.68,35.06-64.11,53.83-12.48,10.94-34.84,16.48-75.56,11.47-87-10.81-222.41,90.24-232.94,89.72"/><path class="cls-9" d="M1918.85,630s-44.71-70.57-94.24-72.9c-43.91-2.06-42.76,32-63.69,48.6-12.48,9.88-34.49,14.42-73.5,9.61-84.78-10.6-215.28,84.44-227.32,83.85"/><path class="cls-10" d="M1918.71,636.21s-44.3-65.82-92.9-68.63c-42.36-2.46-42.9,28.94-63.27,43.35-12.51,8.85-34.14,12.37-71.44,7.75-82.61-10.37-208.16,78.64-221.7,78"/><path class="cls-11" d="M1918.57,642.4S1874.69,581.33,1827,578c-40.82-2.83-43.1,25.85-62.85,38.12-12.57,7.8-33.79,10.31-69.39,5.88-80.43-10.15-201,72.85-216.07,72.12"/><path class="cls-12" d="M1918.43,648.6s-43.47-56.31-90.22-60.12c-39.27-3.19-43.38,22.73-62.43,32.88-12.68,6.76-33.44,8.26-67.33,4-78.26-9.94-193.9,67.05-210.45,66.25"/><path class="cls-13" d="M1918.28,654.79s-43-51.54-88.87-55.85c-37.72-3.56-43.74,19.53-62,27.63-12.84,5.7-33.09,6.21-65.27,2.17C1626,619,1515.36,690,1497.3,689.12"/><path class="cls-14" d="M1918.14,661s-42.63-46.75-87.53-51.59c-36.17-3.9-44.16,16.26-61.58,22.4-13,4.59-32.75,4.15-63.22.3-73.93-9.5-179.65,55.47-199.21,54.52"/><path class="cls-15" d="M1918,667.17s-42.21-41.95-86.19-47.33c-34.63-4.24-45.68,10-61.16,17.16a282.58,282.58,0,0,1-61.17-1.55c-71.75-9.29-172.51,49.67-193.58,48.65"/><path class="cls-16" d="M1917.85,673.36s-41.79-37.13-84.83-43.07c-33.09-4.56-45.87,6.69-60.75,11.93-13.73-.26-32,0-59.11-3.42-69.58-9.07-165.39,43.88-188,42.78"/><path class="cls-17" d="M1917.71,679.55s-41.39-32.3-83.49-38.8c-31.55-4.87-45.7,5.81-60.33,6.68-13.83.82-31.7-2-57.05-5.28-67.41-8.84-158.26,38.09-182.34,36.92"/><path class="cls-18" d="M1917.57,685.74s-41-27.45-82.15-34.54c-30-5.17-46.18,2.1-59.91,1.44-14.07-.67-31.35-4.06-55-7.13-65.25-8.63-151.14,32.29-176.72,31"/><path class="cls-19" d="M1917.43,691.93s-40.59-22.57-80.81-30.28c-28.48-5.45-46.58-1.69-59.49-3.79-14.24-2.32-31-6.12-52.94-9-63.07-8.41-144,26.5-171.09,25.18"/><path class="cls-20" d="M1917.28,698.12s-40.19-17.67-79.46-26c-27-5.73-46.85-5.55-59.07-9a345.4,345.4,0,0,0-50.88-10.86C1667,644,1591,672.92,1562.4,671.53"/><path class="cls-21" d="M1917.14,704.31s-39.81-12.74-78.12-21.75c-25.43-6-47-9.41-58.64-14.27-14.21-5.93-30.31-10.23-48.83-12.72-58.73-8-129.75,14.91-159.85,13.44"/><path class="cls-22" d="M1917,710.5s-106.18-20.93-135-37c-61-34-160-5-201-7"/><path class="cls-1" d="M1562,601.5s-11.25-54.13-99-20c-108,42-234,70-308,52"/><path class="cls-23" d="M1556.62,604.75s-10.67-50.81-93.43-18.63C1361.27,625.75,1241,654.45,1164.5,636.5"/><path class="cls-24" d="M1551.25,608s-10.09-47.49-87.88-17.25C1367.54,628,1253.05,657.4,1174,639.5"/><path class="cls-25" d="M1545.87,611.25s-9.51-44.16-82.31-15.87c-89.75,34.87-198.48,65-280.06,47.12"/><path class="cls-26" d="M1540.5,614.5s-8.94-40.84-76.75-14.5c-83.67,32.5-186.64,63.29-270.75,45.5"/><path class="cls-27" d="M1535.12,617.75s-8.36-37.52-71.18-13.13c-77.59,30.13-174.8,61.62-261.44,43.88"/><path class="cls-28" d="M1529.75,621s-7.78-34.2-65.63-11.75C1392.62,637,1301.17,669.19,1212,651.5"/><path class="cls-29" d="M1524.37,624.25s-7.2-30.88-60.06-10.37c-65.42,25.37-151.11,58.26-242.81,40.62"/><path class="cls-30" d="M1519,627.5s-6.63-27.56-54.5-9c-59.34,23-139.28,56.58-233.5,39"/><path class="cls-31" d="M1513.62,630.75s-6-24.24-48.93-7.63c-53.26,20.63-127.44,54.91-224.19,37.38"/><path class="cls-32" d="M1508.25,634s-5.47-20.92-43.38-6.25C1417.7,646,1349.28,681,1250,663.5"/><path class="cls-33" d="M1502.87,637.25s-4.89-17.6-37.81-4.87c-41.09,15.87-103.75,51.55-205.56,34.12"/><path class="cls-34" d="M1497.5,640.5s-4.31-14.28-32.25-3.5c-35,13.5-91.91,49.88-196.25,32.5"/><path class="cls-35" d="M1492.12,643.75s-3.73-11-26.68-2.13c-28.93,11.13-80.08,48.2-186.94,30.88"/><path class="cls-36" d="M1486.75,647s-3.16-7.64-21.13-.75c-22.84,8.75-68.23,46.52-177.62,29.25"/><path class="cls-37" d="M1481.37,650.25s-2.58-4.32-15.56.63c-16.76,6.37-56.39,44.84-168.31,27.62"/><path class="cls-22" d="M1476,653.5s-2-1-10,2c-10.68,4-44.55,43.17-159,26"/></svg>