<svg id="图层_1" data-name="图层 1" xmlns="http://www.w3.org/2000/svg" viewBox="0 0 1920 1080"><defs><style>.cls-1,.cls-10,.cls-11,.cls-12,.cls-13,.cls-14,.cls-15,.cls-16,.cls-17,.cls-18,.cls-19,.cls-2,.cls-20,.cls-21,.cls-22,.cls-3,.cls-4,.cls-5,.cls-6,.cls-7,.cls-8,.cls-9{fill:none;stroke-miterlimit:10;}.cls-1{stroke:#e88149;}.cls-2{stroke:#e4824c;}.cls-3{stroke:#e1834f;}.cls-4{stroke:#dd8353;}.cls-5{stroke:#d98456;}.cls-6{stroke:#d68559;}.cls-7{stroke:#d2865c;}.cls-8{stroke:#ce875f;}.cls-9{stroke:#cb8763;}.cls-10{stroke:#c78866;}.cls-11{stroke:#c38969;}.cls-12{stroke:#c08a6c;}.cls-13{stroke:#bc8b6f;}.cls-14{stroke:#b88c72;}.cls-15{stroke:#b58c76;}.cls-16{stroke:#b18d79;}.cls-17{stroke:#ad8e7c;}.cls-18{stroke:#aa8f7f;}.cls-19{stroke:#a69082;}.cls-20{stroke:#a29086;}.cls-21{stroke:#9f9189;}.cls-22{stroke:#9b928c;}</style></defs><path class="cls-1" d="M115,750.5s137-54,278,2c103.74,41.2,5,120,308.88,144.57,198,16,287.12,150.43,287.12,150.43"/><path class="cls-2" d="M129.47,758.79s132.61-51.31,268.7,2.62c43.83,17.37,50.43,41.73,68.67,65.52,23.7,30.9,66.58,60.54,230.23,73.9C887,916.32,973.43,1044.46,975.19,1044.74"/><path class="cls-3" d="M144,767.07s128.21-48.62,259.4,3.25c42.13,16.67,48.79,40.06,66.6,62.84,23.51,30.08,65.52,58.5,222.31,71.42,181.91,15,265.61,136.84,269.12,137.4"/><path class="cls-4" d="M158.43,775.36s123.82-45.93,250.1,3.86c40.43,16,47.16,38.4,64.53,60.17,23.33,29.26,64.47,56.46,214.38,68.94,173.87,14.47,254.86,130.06,260.13,130.88"/><path class="cls-5" d="M172.9,783.64s119.43-43.23,240.8,4.49c38.74,15.26,45.55,36.72,62.47,57.49,23.16,28.44,63.42,54.41,206.46,66.47,165.82,13.94,244.1,123.26,251.13,124.36"/><path class="cls-6" d="M187.38,791.93s115-40.54,231.5,5.11c37,14.55,43.93,35,60.39,54.81,23,27.62,62.38,52.37,198.54,64C835.59,929.27,911.17,1032.31,920,1033.69"/><path class="cls-7" d="M201.85,800.21S312.5,762.36,424.05,806c35.34,13.84,42.33,33.36,58.33,52.13,22.84,26.79,61.33,50.33,190.62,61.51,149.73,12.92,222.6,109.68,233.14,111.34"/><path class="cls-8" d="M216.33,808.5s106.25-35.16,212.9,6.36C462.87,828,470,846.53,485.49,864.3c22.69,26,60.28,48.29,182.7,59,141.68,12.41,211.85,102.9,224.14,104.83"/><path class="cls-9" d="M230.81,816.79s101.85-32.47,203.6,7c31.94,12.44,39.14,30,54.19,46.77,22.54,25.15,59.22,46.25,174.77,56.57C797,939,864.47,1023.2,878.52,1025.4"/><path class="cls-10" d="M245.28,825.07s97.46-29.78,194.3,7.6c30.24,11.73,37.56,28.29,52.12,44.09,22.41,24.32,58.18,44.21,166.86,54.09,125.59,11.37,190.34,89.31,206.15,91.79"/><path class="cls-11" d="M259.76,833.36s93.07-27.09,185,8.22c28.54,11,36,26.58,50.05,41.41,22.28,23.48,57.13,42.16,158.93,51.61,117.55,10.86,179.6,82.52,197.16,85.28"/><path class="cls-12" d="M274.24,841.64s88.67-24.39,175.7,8.85c26.84,10.31,34.41,24.87,48,38.73,22.16,22.63,56.08,40.12,151,49.14,109.5,10.33,168.84,75.73,188.16,78.76"/><path class="cls-13" d="M288.71,849.93s84.28-21.7,166.4,9.46C480.26,869,488,882.55,501,895.45c22.06,21.78,55,38.08,143.08,46.66,101.46,9.82,158.1,68.94,179.17,72.25"/><path class="cls-14" d="M303.19,858.21s79.89-19,157.1,10.09c23.44,8.91,31.31,21.44,43.85,33.37,22,20.93,54,36,135.16,44.19,93.42,9.31,147.34,62.15,170.17,65.74"/><path class="cls-15" d="M317.66,866.5s75.5-16.32,147.8,10.71c21.75,8.2,29.78,19.7,41.78,30.69,21.9,20.05,52.93,34,127.25,41.71,85.37,8.8,136.59,55.36,161.17,59.22"/><path class="cls-16" d="M332.14,874.79s71.1-13.63,138.5,11.33c20.05,7.49,28.25,18,39.71,28,21.84,19.15,51.88,32,119.32,39.24,77.33,8.27,125.84,48.56,152.18,52.7"/><path class="cls-17" d="M346.62,883.07s66.7-10.94,129.2,12c18.35,6.78,26.73,16.2,37.64,25.33,21.8,18.24,50.83,29.92,111.4,36.76,69.28,7.76,115.08,41.78,143.19,46.19"/><path class="cls-18" d="M361.09,891.36s62.32-8.25,119.9,12.57c16.66,6.09,25.23,14.44,35.58,22.66,21.78,17.29,49.78,27.87,103.47,34.28,61.24,7.25,104.34,35,134.2,39.68"/><path class="cls-19" d="M375.57,899.64s57.92-5.55,110.6,13.2c14.95,5.38,23.72,12.66,33.5,20,21.79,16.3,48.74,25.83,95.56,31.8,53.19,6.73,93.58,28.2,125.2,33.17"/><path class="cls-20" d="M390.05,907.93s53.52-2.86,101.29,13.82c13.26,4.67,22.24,10.85,31.44,17.29,21.83,15.27,47.69,23.8,87.64,29.34,45.14,6.21,82.83,21.4,116.2,26.64"/><path class="cls-21" d="M404.52,916.21s49.14-.17,92,14.45a130.23,130.23,0,0,1,29.37,14.61c21.89,14.17,46.63,21.75,79.71,26.86,37.1,5.7,72.08,14.62,107.21,20.13"/><path class="cls-22" d="M419,924.5s71,4,110,27c46.38,27.36,99.85,27,170,38"/><path class="cls-1" d="M852.58,929.77S859,797.5,968,847.5c128.55,59,147,209,356,155"/><path class="cls-2" d="M858,934s6.3-126.7,110.68-78.41c122.72,56.5,140.67,201.81,345.62,150"/><path class="cls-3" d="M863.48,938.15S869.66,817,969.43,863.6c116.89,54,134.33,194.61,335.23,145"/><path class="cls-4" d="M868.92,942.34s6-115.27,101.22-70.7c110.91,51.9,128,187.43,324.86,140"/><path class="cls-5" d="M874.37,946.53s5.79-109.61,96.48-66.84c105,49.53,121.67,180.24,314.48,135"/><path class="cls-6" d="M879.82,950.72s5.62-104,91.75-63c99.15,47.16,115.33,173,304.09,130"/><path class="cls-7" d="M885.26,954.91s5.47-98.29,87-59.12c93.28,44.79,109,165.85,293.72,125"/><path class="cls-8" d="M890.71,959.1S896,866.47,973,903.83c87.4,42.43,102.66,158.67,283.33,120"/><path class="cls-9" d="M896.16,963.29s5.15-87,77.55-51.41c81.52,40,96.34,151.48,273,115"/><path class="cls-10" d="M901.6,967.48s5-81.32,72.83-47.55c75.64,37.66,90,144.28,262.57,110"/><path class="cls-11" d="M907.05,971.67S911.88,896,975.14,928c69.78,35.27,83.67,137.09,252.19,105"/><path class="cls-12" d="M912.5,975.87s4.67-70,63.35-39.85c63.91,32.88,77.34,129.91,241.81,100"/><path class="cls-13" d="M917.94,980.06s4.51-64.4,58.63-36c58,30.47,71,122.72,231.43,95"/><path class="cls-14" d="M923.39,984.25s4.35-58.77,53.89-32.13c52.17,28,64.67,115.52,221,90"/><path class="cls-15" d="M928.83,988.44S933,935.3,978,960.17c46.31,25.61,58.33,108.33,210.66,85"/><path class="cls-16" d="M934.28,992.63s4-47.54,44.43-24.42,52,101.15,200.29,80"/><path class="cls-17" d="M939.73,996.82s3.87-42,39.7-20.56c34.61,20.67,45.66,94,189.9,75"/><path class="cls-18" d="M945.17,1001s3.72-36.39,35-16.7c28.79,18.14,39.33,86.76,179.52,70"/><path class="cls-19" d="M950.62,1005.2s3.59-30.87,30.23-12.84c23,15.55,33,79.57,169.15,65"/><path class="cls-20" d="M956.07,1009.39s3.5-25.44,25.5-9c17.23,12.89,26.67,72.39,158.76,60"/><path class="cls-21" d="M961.51,1013.58s3.54-20.17,20.77-5.13c11.58,10.1,20.34,65.19,148.38,55"/><path class="cls-22" d="M967,1017.77s4-15.27,16-1.27c6.14,7.16,14,58,138,50"/></svg>