<svg id="图层_1" data-name="图层 1" xmlns="http://www.w3.org/2000/svg" viewBox="0 0 1920 1080"><defs><style>.cls-1{opacity:0;}.cls-2{fill:none;stroke:#9b928c;stroke-miterlimit:10;}</style></defs><g class="cls-1"><path class="cls-2" d="M0,420.5s46-331,117-329,43,213,188,257,411,138,411,138"/><path class="cls-2" d="M5.19,420.06S48.44,108.38,119.12,110.62c68.09,2,44.4,200,183,241.43C441.41,393.53,694.3,481.9,696.19,482.12"/><path class="cls-2" d="M10.37,419.62s40.5-292.21,110.88-289.87c65.16,2.17,45.79,187,178,225.86,133.56,39,373.35,121.7,377.11,122.14"/><path class="cls-2" d="M15.56,419.19S53.3,146.35,123.37,148.88c62.25,2.24,47.19,174,173,210.28C424.23,395.6,650.91,472.71,656.56,473.38"/><path class="cls-2" d="M20.75,418.75S55.74,165.29,125.5,168c59.32,2.3,48.5,161.25,168,194.72C415.57,396.9,629.22,468.11,636.75,469"/><path class="cls-2" d="M25.94,418.31S58.17,184.23,127.62,187.12c56.41,2.36,49.89,148.3,163,179.15C407,398,607.52,463.52,616.94,464.62"/><path class="cls-2" d="M31.12,417.88S60.6,203.16,129.75,206.25c53.49,2.39,51.27,135.34,158,163.58,110.59,29.24,298.05,89.09,309.34,90.42"/><path class="cls-2" d="M36.31,417.44S63,222.08,131.87,225.38c50.58,2.42,52.66,122.38,153,148,104.86,26.77,279.22,80.94,292.4,82.5"/><path class="cls-2" d="M41.5,417s24-176,92.5-172.5c47.65,2.44,54.05,109.41,148,132.44,99.14,24.28,260.4,72.79,275.46,74.56"/><path class="cls-2" d="M46.69,416.56s21.22-156.68,89.43-152.94c44.74,2.46,55.45,96.43,143.06,116.87,93.41,21.79,241.56,64.64,258.51,66.63"/><path class="cls-2" d="M51.87,416.12s18.47-137.35,86.38-133.37c41.82,2.45,56.84,83.44,138.06,101.29,87.69,19.29,222.74,56.5,241.56,58.71"/><path class="cls-2" d="M57.06,415.69s15.72-118,83.31-113.81c38.91,2.44,58.25,70.42,133.07,85.72,82,16.76,203.91,48.34,224.62,50.78"/><path class="cls-2" d="M62.25,415.25s13-98.77,80.25-94.25c36,2.42,59.65,57.4,128.07,70.15,76.27,14.23,185.08,40.19,207.68,42.85"/><path class="cls-2" d="M67.44,414.81s10.21-79.51,77.18-74.69c33.08,2.39,61.07,44.35,123.08,54.59,70.57,11.65,166.26,32,190.74,34.91"/><path class="cls-2" d="M72.62,414.38s7.48-60.3,74.13-55.13c30.16,2.34,62.48,31.26,118.08,39,64.87,9.05,147.43,23.89,173.79,27"/><path class="cls-2" d="M77.81,413.94s4.73-41.12,71.06-35.56c27.26,2.28,63.91,18.13,113.09,23.44,59.18,6.38,128.61,15.73,156.85,19.06"/><path class="cls-2" d="M83,413.5s2-22,68-16c54.78,5,193.78,12.62,248,19"/></g><g class="cls-1"><path class="cls-2" d="M257,323.5s91.68-41.66,124-92c52-81,118.84-29.93,146,8,63,88,91,316,348,243"/><path class="cls-2" d="M258,324.19s87.84-38.45,119.55-85.39c50.81-75.2,114.64-27.13,140.7,8.51C579,330.44,614.56,547.94,858.69,480.19"/><path class="cls-2" d="M259,324.88s84-35.22,115.1-78.77c49.6-69.4,110.45-24.34,135.4,9C568,333.38,611.12,540.38,842.37,477.88"/><path class="cls-2" d="M260,325.56s80.1-32,110.65-72.15c48.36-63.58,106.25-21.55,130.1,9.53,56.31,73.38,106.94,269.87,325.31,212.62"/><path class="cls-2" d="M261,326.25s76.19-28.71,106.2-65.53C414.28,203,469.27,242,492,270.75c54.1,68.52,112.25,254.5,317.75,202.5"/><path class="cls-2" d="M262,326.94S334.26,301.51,363.75,268c45.74-51.91,97.89-16,119.5,10.54,51.9,63.65,117.56,239.13,310.19,192.38"/><path class="cls-2" d="M263,327.62s68.28-22.13,97.31-52.29c44.33-46.07,93.7-13.18,114.19,11.05,49.71,58.78,122.87,223.74,302.62,182.24"/><path class="cls-2" d="M264,328.31s64.26-18.82,92.86-45.68c42.85-40.23,89.54-10.39,108.89,11.56,47.54,53.91,128.19,208.37,295.06,172.12"/><path class="cls-2" d="M265,329s60.17-15.51,88.41-39.06C394.67,255.52,438.79,282.33,457,302c45.39,49.05,133.5,193,287.5,162"/><path class="cls-2" d="M266,329.69s56-12.21,84-32.45c39.56-28.64,81.24-4.83,98.29,12.57C491.52,354,587.06,487.44,728.19,461.69"/><path class="cls-2" d="M267,330.38s51.75-8.94,79.51-25.83c37.71-22.95,77.11-2.06,93,13.07,41.19,39.28,144.12,162.26,272.37,141.76"/><path class="cls-2" d="M268,331.06s47.4-5.73,75.06-19.21c35.71-17.39,73,.7,87.69,13.59,39.15,34.37,149.44,146.87,264.81,131.62"/><path class="cls-2" d="M269,331.75s42.95-2.68,70.62-12.59c33.57-12,68.91,3.43,82.38,14.09,37.17,29.42,154.75,131.5,257.25,121.5"/><path class="cls-2" d="M270,332.44s38.43.15,66.17-6c31.37-6.92,64.86,6.15,77.08,14.6,35.26,24.4,160.06,116.13,249.69,111.38"/><path class="cls-2" d="M271,333.12s33.94,2.67,61.72.65c29.21-2.13,60.84,8.81,71.78,15.11,33.44,19.23,165.37,100.74,242.12,101.24"/><path class="cls-2" d="M272,333.81s29.61,4.84,57.27,7.26c27.26,2.4,56.83,11.41,66.48,15.62,31.71,13.83,170.69,85.37,234.56,91.12"/><path class="cls-2" d="M273,334.5s96.79,25.41,114,30c30,8,176,70,227,81"/></g><g class="cls-1"><path class="cls-2" d="M1920,580.5s-48-108.31-105-107c-87,2-8,133-157,115-102.14-12.34-272.3,130.79-272.3,130.79"/><path class="cls-2" d="M1919.85,586.69S1872.26,483.17,1816.2,484c-54.7.94-43,53.41-66.63,85.27-13,17.47-36.93,28.8-87.89,22.63-100-12.12-265.17,125-266.68,124.92"/><path class="cls-2" d="M1919.71,592.88s-47.19-98.9-102.31-98.47c-53.17.41-42.87,50.32-66.21,80-12.85,16.35-36.58,26.75-85.84,20.78-97.8-11.91-258,119.2-261,119"/><path class="cls-2" d="M1919.57,599.07s-46.78-94.19-101-94.21c-51.62,0-42.77,47.25-65.79,74.79-12.74,15.24-36.23,24.69-83.78,18.91C1573.4,586.88,1418.11,712,1413.6,711.75"/><path class="cls-2" d="M1919.43,605.26s-46.38-89.48-99.63-90c-50.08-.44-42.7,44.2-65.37,69.55-12.65,14.15-35.88,22.64-81.72,17-93.46-11.46-243.79,107.62-249.81,107.32"/><path class="cls-2" d="M1919.28,611.45s-46-84.76-98.28-85.69c-48.54-.85-42.65,41.15-65,64.32-12.57,13.06-35.53,20.58-79.66,15.19C1585.1,594,1439.72,707.09,1432.2,706.72"/><path class="cls-2" d="M1919.14,617.64s-45.55-80-96.94-81.42c-47-1.27-42.64,38.1-64.53,59.07-12.51,12-35.18,18.53-77.61,13.33-89.11-11-229.53,96-238.56,95.59"/><path class="cls-2" d="M1919,623.83s-45.13-75.3-95.59-77.16c-45.46-1.67-42.68,35.06-64.11,53.83-12.48,10.94-34.84,16.48-75.56,11.47-87-10.81-222.41,90.24-232.94,89.72"/><path class="cls-2" d="M1918.85,630s-44.71-70.57-94.24-72.9c-43.91-2.06-42.76,32-63.69,48.6-12.48,9.88-34.49,14.42-73.5,9.61-84.78-10.6-215.28,84.44-227.32,83.85"/><path class="cls-2" d="M1918.71,636.21s-44.3-65.82-92.9-68.63c-42.36-2.46-42.9,28.94-63.27,43.35-12.51,8.85-34.14,12.37-71.44,7.75-82.61-10.37-208.16,78.64-221.7,78"/><path class="cls-2" d="M1918.57,642.4S1874.69,581.33,1827,578c-40.82-2.83-43.1,25.85-62.85,38.12-12.57,7.8-33.79,10.31-69.39,5.88-80.43-10.15-201,72.85-216.07,72.12"/><path class="cls-2" d="M1918.43,648.6s-43.47-56.31-90.22-60.12c-39.27-3.19-43.38,22.73-62.43,32.88-12.68,6.76-33.44,8.26-67.33,4-78.26-9.94-193.9,67.05-210.45,66.25"/><path class="cls-2" d="M1918.28,654.79s-43-51.54-88.87-55.85c-37.72-3.56-43.74,19.53-62,27.63-12.84,5.7-33.09,6.21-65.27,2.17C1626,619,1515.36,690,1497.3,689.12"/><path class="cls-2" d="M1918.14,661s-42.63-46.75-87.53-51.59c-36.17-3.9-44.16,16.26-61.58,22.4-13,4.59-32.75,4.15-63.22.3-73.93-9.5-179.65,55.47-199.21,54.52"/><path class="cls-2" d="M1918,667.17s-42.21-41.95-86.19-47.33c-34.63-4.24-45.68,10-61.16,17.16a282.58,282.58,0,0,1-61.17-1.55c-71.75-9.29-172.51,49.67-193.58,48.65"/><path class="cls-2" d="M1917.85,673.36s-41.79-37.13-84.83-43.07c-33.09-4.56-45.87,6.69-60.75,11.93-13.73-.26-32,0-59.11-3.42-69.58-9.07-165.39,43.88-188,42.78"/><path class="cls-2" d="M1917.71,679.55s-41.39-32.3-83.49-38.8c-31.55-4.87-45.7,5.81-60.33,6.68-13.83.82-31.7-2-57.05-5.28-67.41-8.84-158.26,38.09-182.34,36.92"/><path class="cls-2" d="M1917.57,685.74s-41-27.45-82.15-34.54c-30-5.17-46.18,2.1-59.91,1.44-14.07-.67-31.35-4.06-55-7.13-65.25-8.63-151.14,32.29-176.72,31"/><path class="cls-2" d="M1917.43,691.93s-40.59-22.57-80.81-30.28c-28.48-5.45-46.58-1.69-59.49-3.79-14.24-2.32-31-6.12-52.94-9-63.07-8.41-144,26.5-171.09,25.18"/><path class="cls-2" d="M1917.28,698.12s-40.19-17.67-79.46-26c-27-5.73-46.85-5.55-59.07-9a345.4,345.4,0,0,0-50.88-10.86C1667,644,1591,672.92,1562.4,671.53"/><path class="cls-2" d="M1917.14,704.31s-39.81-12.74-78.12-21.75c-25.43-6-47-9.41-58.64-14.27-14.21-5.93-30.31-10.23-48.83-12.72-58.73-8-129.75,14.91-159.85,13.44"/><path class="cls-2" d="M1917,710.5s-106.18-20.93-135-37c-61-34-160-5-201-7"/></g><g class="cls-1"><path class="cls-2" d="M1562,601.5s-11.25-54.13-99-20c-108,42-234,70-308,52"/><path class="cls-2" d="M1556.62,604.75s-10.67-50.81-93.43-18.63C1361.27,625.75,1241,654.45,1164.5,636.5"/><path class="cls-2" d="M1551.25,608s-10.09-47.49-87.88-17.25C1367.54,628,1253.05,657.4,1174,639.5"/><path class="cls-2" d="M1545.87,611.25s-9.51-44.16-82.31-15.87c-89.75,34.87-198.48,65-280.06,47.12"/><path class="cls-2" d="M1540.5,614.5s-8.94-40.84-76.75-14.5c-83.67,32.5-186.64,63.29-270.75,45.5"/><path class="cls-2" d="M1535.12,617.75s-8.36-37.52-71.18-13.13c-77.59,30.13-174.8,61.62-261.44,43.88"/><path class="cls-2" d="M1529.75,621s-7.78-34.2-65.63-11.75C1392.62,637,1301.17,669.19,1212,651.5"/><path class="cls-2" d="M1524.37,624.25s-7.2-30.88-60.06-10.37c-65.42,25.37-151.11,58.26-242.81,40.62"/><path class="cls-2" d="M1519,627.5s-6.63-27.56-54.5-9c-59.34,23-139.28,56.58-233.5,39"/><path class="cls-2" d="M1513.62,630.75s-6-24.24-48.93-7.63c-53.26,20.63-127.44,54.91-224.19,37.38"/><path class="cls-2" d="M1508.25,634s-5.47-20.92-43.38-6.25C1417.7,646,1349.28,681,1250,663.5"/><path class="cls-2" d="M1502.87,637.25s-4.89-17.6-37.81-4.87c-41.09,15.87-103.75,51.55-205.56,34.12"/><path class="cls-2" d="M1497.5,640.5s-4.31-14.28-32.25-3.5c-35,13.5-91.91,49.88-196.25,32.5"/><path class="cls-2" d="M1492.12,643.75s-3.73-11-26.68-2.13c-28.93,11.13-80.08,48.2-186.94,30.88"/><path class="cls-2" d="M1486.75,647s-3.16-7.64-21.13-.75c-22.84,8.75-68.23,46.52-177.62,29.25"/><path class="cls-2" d="M1481.37,650.25s-2.58-4.32-15.56.63c-16.76,6.37-56.39,44.84-168.31,27.62"/><path class="cls-2" d="M1476,653.5s-2-1-10,2c-10.68,4-44.55,43.17-159,26"/></g><path class="cls-2" d="M115,750.5s137-54,278,2c103.74,41.2,5,120,308.88,144.57,198,16,287.12,150.43,287.12,150.43"/><path class="cls-2" d="M129.47,758.79s132.61-51.31,268.7,2.62c43.83,17.37,50.43,41.73,68.67,65.52,23.7,30.9,66.58,60.54,230.23,73.9C887,916.32,973.43,1044.46,975.19,1044.74"/><path class="cls-2" d="M144,767.07s128.21-48.62,259.4,3.25c42.13,16.67,48.79,40.06,66.6,62.84,23.51,30.08,65.52,58.5,222.31,71.42,181.91,15,265.61,136.84,269.12,137.4"/><path class="cls-2" d="M158.43,775.36s123.82-45.93,250.1,3.86c40.43,16,47.16,38.4,64.53,60.17,23.33,29.26,64.47,56.46,214.38,68.94,173.87,14.47,254.86,130.06,260.13,130.88"/><path class="cls-2" d="M172.9,783.64s119.43-43.23,240.8,4.49c38.74,15.26,45.55,36.72,62.47,57.49,23.16,28.44,63.42,54.41,206.46,66.47,165.82,13.94,244.1,123.26,251.13,124.36"/><path class="cls-2" d="M187.38,791.93s115-40.54,231.5,5.11c37,14.55,43.93,35,60.39,54.81,23,27.62,62.38,52.37,198.54,64C835.59,929.27,911.17,1032.31,920,1033.69"/><path class="cls-2" d="M201.85,800.21S312.5,762.36,424.05,806c35.34,13.84,42.33,33.36,58.33,52.13,22.84,26.79,61.33,50.33,190.62,61.51,149.73,12.92,222.6,109.68,233.14,111.34"/><path class="cls-2" d="M216.33,808.5s106.25-35.16,212.9,6.36C462.87,828,470,846.53,485.49,864.3c22.69,26,60.28,48.29,182.7,59,141.68,12.41,211.85,102.9,224.14,104.83"/><path class="cls-2" d="M230.81,816.79s101.85-32.47,203.6,7c31.94,12.44,39.14,30,54.19,46.77,22.54,25.15,59.22,46.25,174.77,56.57C797,939,864.47,1023.2,878.52,1025.4"/><path class="cls-2" d="M245.28,825.07s97.46-29.78,194.3,7.6c30.24,11.73,37.56,28.29,52.12,44.09,22.41,24.32,58.18,44.21,166.86,54.09,125.59,11.37,190.34,89.31,206.15,91.79"/><path class="cls-2" d="M259.76,833.36s93.07-27.09,185,8.22c28.54,11,36,26.58,50.05,41.41,22.28,23.48,57.13,42.16,158.93,51.61,117.55,10.86,179.6,82.52,197.16,85.28"/><path class="cls-2" d="M274.24,841.64s88.67-24.39,175.7,8.85c26.84,10.31,34.41,24.87,48,38.73,22.16,22.63,56.08,40.12,151,49.14,109.5,10.33,168.84,75.73,188.16,78.76"/><path class="cls-2" d="M288.71,849.93s84.28-21.7,166.4,9.46C480.26,869,488,882.55,501,895.45c22.06,21.78,55,38.08,143.08,46.66,101.46,9.82,158.1,68.94,179.17,72.25"/><path class="cls-2" d="M303.19,858.21s79.89-19,157.1,10.09c23.44,8.91,31.31,21.44,43.85,33.37,22,20.93,54,36,135.16,44.19,93.42,9.31,147.34,62.15,170.17,65.74"/><path class="cls-2" d="M317.66,866.5s75.5-16.32,147.8,10.71c21.75,8.2,29.78,19.7,41.78,30.69,21.9,20.05,52.93,34,127.25,41.71,85.37,8.8,136.59,55.36,161.17,59.22"/><path class="cls-2" d="M332.14,874.79s71.1-13.63,138.5,11.33c20.05,7.49,28.25,18,39.71,28,21.84,19.15,51.88,32,119.32,39.24,77.33,8.27,125.84,48.56,152.18,52.7"/><path class="cls-2" d="M346.62,883.07s66.7-10.94,129.2,12c18.35,6.78,26.73,16.2,37.64,25.33,21.8,18.24,50.83,29.92,111.4,36.76,69.28,7.76,115.08,41.78,143.19,46.19"/><path class="cls-2" d="M361.09,891.36s62.32-8.25,119.9,12.57c16.66,6.09,25.23,14.44,35.58,22.66,21.78,17.29,49.78,27.87,103.47,34.28,61.24,7.25,104.34,35,134.2,39.68"/><path class="cls-2" d="M375.57,899.64s57.92-5.55,110.6,13.2c14.95,5.38,23.72,12.66,33.5,20,21.79,16.3,48.74,25.83,95.56,31.8,53.19,6.73,93.58,28.2,125.2,33.17"/><path class="cls-2" d="M390.05,907.93s53.52-2.86,101.29,13.82c13.26,4.67,22.24,10.85,31.44,17.29,21.83,15.27,47.69,23.8,87.64,29.34,45.14,6.21,82.83,21.4,116.2,26.64"/><path class="cls-2" d="M404.52,916.21s49.14-.17,92,14.45a130.23,130.23,0,0,1,29.37,14.61c21.89,14.17,46.63,21.75,79.71,26.86,37.1,5.7,72.08,14.62,107.21,20.13"/><path class="cls-2" d="M419,924.5s71,4,110,27c46.38,27.36,99.85,27,170,38"/><path class="cls-2" d="M852.58,929.77S859,797.5,968,847.5c128.55,59,147,209,356,155"/><path class="cls-2" d="M858,934s6.3-126.7,110.68-78.41c122.72,56.5,140.67,201.81,345.62,150"/><path class="cls-2" d="M863.48,938.15S869.66,817,969.43,863.6c116.89,54,134.33,194.61,335.23,145"/><path class="cls-2" d="M868.92,942.34s6-115.27,101.22-70.7c110.91,51.9,128,187.43,324.86,140"/><path class="cls-2" d="M874.37,946.53s5.79-109.61,96.48-66.84c105,49.53,121.67,180.24,314.48,135"/><path class="cls-2" d="M879.82,950.72s5.62-104,91.75-63c99.15,47.16,115.33,173,304.09,130"/><path class="cls-2" d="M885.26,954.91s5.47-98.29,87-59.12c93.28,44.79,109,165.85,293.72,125"/><path class="cls-2" d="M890.71,959.1S896,866.47,973,903.83c87.4,42.43,102.66,158.67,283.33,120"/><path class="cls-2" d="M896.16,963.29s5.15-87,77.55-51.41c81.52,40,96.34,151.48,273,115"/><path class="cls-2" d="M901.6,967.48s5-81.32,72.83-47.55c75.64,37.66,90,144.28,262.57,110"/><path class="cls-2" d="M907.05,971.67S911.88,896,975.14,928c69.78,35.27,83.67,137.09,252.19,105"/><path class="cls-2" d="M912.5,975.87s4.67-70,63.35-39.85c63.91,32.88,77.34,129.91,241.81,100"/><path class="cls-2" d="M917.94,980.06s4.51-64.4,58.63-36c58,30.47,71,122.72,231.43,95"/><path class="cls-2" d="M923.39,984.25s4.35-58.77,53.89-32.13c52.17,28,64.67,115.52,221,90"/><path class="cls-2" d="M928.83,988.44S933,935.3,978,960.17c46.31,25.61,58.33,108.33,210.66,85"/><path class="cls-2" d="M934.28,992.63s4-47.54,44.43-24.42,52,101.15,200.29,80"/><path class="cls-2" d="M939.73,996.82s3.87-42,39.7-20.56c34.61,20.67,45.66,94,189.9,75"/><path class="cls-2" d="M945.17,1001s3.72-36.39,35-16.7c28.79,18.14,39.33,86.76,179.52,70"/><path class="cls-2" d="M950.62,1005.2s3.59-30.87,30.23-12.84c23,15.55,33,79.57,169.15,65"/><path class="cls-2" d="M956.07,1009.39s3.5-25.44,25.5-9c17.23,12.89,26.67,72.39,158.76,60"/><path class="cls-2" d="M961.51,1013.58s3.54-20.17,20.77-5.13c11.58,10.1,20.34,65.19,148.38,55"/><path class="cls-2" d="M967,1017.77s4-15.27,16-1.27c6.14,7.16,14,58,138,50"/></svg>