<svg xmlns="http://www.w3.org/2000/svg" xmlns:xlink="http://www.w3.org/1999/xlink" viewBox="0 0 383 53"><defs><style>.cls-1{fill:url(#未命名的渐变_110);}.cls-2{fill:#e88149;}.cls-3{fill:url(#未命名的渐变_110-2);}.cls-4{fill:url(#未命名的渐变_110-3);}</style><linearGradient id="未命名的渐变_110" x1="34" y1="26.5" x2="349" y2="26.5" gradientUnits="userSpaceOnUse"><stop offset="0" stop-color="#fcede3" stop-opacity="0.1"/><stop offset="0.03" stop-color="#fbe6da" stop-opacity="0.15"/><stop offset="0.17" stop-color="#f6ccb4" stop-opacity="0.38"/><stop offset="0.3" stop-color="#f2b593" stop-opacity="0.57"/><stop offset="0.44" stop-color="#eea278" stop-opacity="0.72"/><stop offset="0.58" stop-color="#eb9464" stop-opacity="0.84"/><stop offset="0.72" stop-color="#ea8955" stop-opacity="0.93"/><stop offset="0.86" stop-color="#e8834c" stop-opacity="0.98"/><stop offset="1" stop-color="#e88149"/></linearGradient><linearGradient id="未命名的渐变_110-2" x1="1.5" y1="27" x2="25.5" y2="27" xlink:href="#未命名的渐变_110"/><linearGradient id="未命名的渐变_110-3" x1="357.5" y1="27" x2="381.5" y2="27" xlink:href="#未命名的渐变_110"/></defs><g id="图层_2" data-name="图层 2"><g id="图层_1-2" data-name="图层 1"><rect class="cls-1" x="34" y="1.5" width="315" height="50" rx="12.3"/><path class="cls-2" d="M336.7,3a10.81,10.81,0,0,1,10.8,10.8V39.2A10.81,10.81,0,0,1,336.7,50H46.3A10.81,10.81,0,0,1,35.5,39.2V13.8A10.81,10.81,0,0,1,46.3,3H336.7m0-3H46.3A13.8,13.8,0,0,0,32.5,13.8V39.2A13.8,13.8,0,0,0,46.3,53H336.7a13.8,13.8,0,0,0,13.8-13.8V13.8A13.8,13.8,0,0,0,336.7,0Z"/><rect class="cls-3" x="1.5" y="15.5" width="24" height="23"/><path class="cls-2" d="M24,17V37H3V17H24m3-3H0V40H27V14Z"/><rect class="cls-4" x="357.5" y="15.5" width="24" height="23"/><path class="cls-2" d="M380,17V37H359V17h21m3-3H356V40h27V14Z"/></g></g></svg>