<svg xmlns="http://www.w3.org/2000/svg" xmlns:xlink="http://www.w3.org/1999/xlink" viewBox="0 0 3290.89 1352.9"><defs><style>.cls-1,.cls-4{fill:none;}.cls-2{opacity:0.51;}.cls-3{clip-path:url(#clip-path);}.cls-4{stroke:#9b928c;stroke-miterlimit:10;}</style><clipPath id="clip-path" transform="translate(759.7 -167.5)"><rect class="cls-1" width="1920" height="1080"/></clipPath></defs><g id="图层_2" data-name="图层 2"><g id="图层_1-2" data-name="图层 1"><g class="cls-2"><g class="cls-3"><path class="cls-4" d="M-229.71,467.66S192,333.9,640.72,476.7,1243.89,743.33,1494,688.2" transform="translate(759.7 -167.5)"/><path class="cls-4" d="M-266,492.5S145.46,362,583.33,501.32,1177.12,763,1421.17,709.23" transform="translate(759.7 -167.5)"/><path class="cls-4" d="M-302.24,517.33S99,390.06,525.94,525.93s584.42,256.79,822.39,204.33" transform="translate(759.7 -167.5)"/><path class="cls-4" d="M-338.51,542.16s391-124,807.06,8.39,575.05,251.87,807,200.75" transform="translate(759.7 -167.5)"/><path class="cls-4" d="M-374.78,567S6,446.22,411.15,575.16s565.68,247,791.52,197.17" transform="translate(759.7 -167.5)"/><path class="cls-4" d="M-411,591.83s370.5-117.53,764.8,7.94,556.31,242,776.07,193.6" transform="translate(759.7 -167.5)"/><path class="cls-4" d="M-447.31,616.67S-87,502.38,296.37,624.39,843.31,861.5,1057,814.4" transform="translate(759.7 -167.5)"/><path class="cls-4" d="M-483.57,641.5s350-111,722.55,7.5S776.55,881.2,984.17,835.43" transform="translate(759.7 -167.5)"/><path class="cls-4" d="M-519.84,666.34s339.8-107.8,701.43,7.28S709.78,900.89,911.33,856.47" transform="translate(759.7 -167.5)"/><path class="cls-4" d="M-556.1,691.17s329.56-104.55,680.3,7.06S643,920.59,838.5,877.5" transform="translate(759.7 -167.5)"/><path class="cls-4" d="M2246.21,231.85S1863.56,81.65,1456.32,242,909,541.38,682,479.47" transform="translate(759.7 -167.5)"/><path class="cls-4" d="M2275.18,259.61s-373.37-146.56-770.72,9.9S970.4,561.63,748.93,501.23" transform="translate(759.7 -167.5)"/><path class="cls-4" d="M2304.15,287.37S1940.07,144.46,1552.6,297,1031.82,581.88,815.87,523" transform="translate(759.7 -167.5)"/><path class="cls-4" d="M2333.12,315.13s-354.79-139.26-732.38,9.41S1093.25,602.13,882.8,544.73" transform="translate(759.7 -167.5)"/><path class="cls-4" d="M2362.09,342.9s-345.51-135.62-713.21,9.16S1154.67,622.38,949.74,566.48" transform="translate(759.7 -167.5)"/><path class="cls-4" d="M2391.06,370.66s-336.22-132-694,8.92S1216.1,642.63,1016.67,588.24" transform="translate(759.7 -167.5)"/><path class="cls-4" d="M2420,398.42s-326.93-128.32-674.86,8.67S1277.52,662.88,1083.61,610" transform="translate(759.7 -167.5)"/><path class="cls-4" d="M2449,426.18s-317.65-124.68-655.69,8.43S1339,683.13,1150.54,631.74" transform="translate(759.7 -167.5)"/><path class="cls-4" d="M2478,454s-308.36-121-636.52,8.18-441.08,241.25-624,191.36" transform="translate(759.7 -167.5)"/><path class="cls-4" d="M2506.94,481.71s-299.07-117.39-617.35,7.93-427.79,234-605.18,185.61" transform="translate(759.7 -167.5)"/><path class="cls-4" d="M1696.37,1520.06S1309.61,1095.4,845.5,1015.5c-273-47-467-43-833-339" transform="translate(759.7 -167.5)"/><path class="cls-4" d="M1558.34,1488.15s-364.47-393.49-798.4-468c-262.55-45-492.53-70.43-833.2-349.65" transform="translate(759.7 -167.5)"/><path class="cls-4" d="M1420.3,1456.23s-342.16-362.32-745.91-431.4C422.28,981.83,156.31,927-159,664.54" transform="translate(759.7 -167.5)"/><path class="cls-4" d="M1282.27,1424.32S962.41,1093.16,588.83,1029.5c-241.66-41-543.61-125.27-833.61-370.94" transform="translate(759.7 -167.5)"/><path class="cls-4" d="M1144.24,1392.41s-297.56-300-641-358.24c-231.22-39-569.15-152.7-833.82-381.59" transform="translate(759.7 -167.5)"/><path class="cls-4" d="M1006.2,1360.49s-275.26-268.82-588.48-321.66c-220.78-37-594.68-180.12-834-392.23" transform="translate(759.7 -167.5)"/><path class="cls-4" d="M868.17,1328.58s-253-237.65-536-285.08C121.83,1008.5-288.06,836-502.06,640.62" transform="translate(759.7 -167.5)"/><path class="cls-4" d="M730.13,1296.66s-230.65-206.48-483.52-248.49c-199.89-33-645.76-235-834.42-413.53" transform="translate(759.7 -167.5)"/><path class="cls-4" d="M592.1,1264.75s-208.36-175.32-431-211.92c-189.45-31-671.3-262.39-834.63-424.17" transform="translate(759.7 -167.5)"/><path class="cls-4" d="M454.07,1232.84S268,1088.69,75.5,1057.5c-179-29-696.83-289.82-834.83-434.82" transform="translate(759.7 -167.5)"/><path class="cls-4" d="M2116.54,802.2s-353-238.7-745-75.7c-404.12,168-587,207-876,135" transform="translate(759.7 -167.5)"/><path class="cls-4" d="M2162.59,829.45s-345.81-228-730.68-72.27C1036.27,917.4,860.56,963,584.49,892" transform="translate(759.7 -167.5)"/><path class="cls-4" d="M2208.63,856.69s-338.57-217.32-716.31-68.83C1105.16,940.27,936.61,992.55,673.48,922.47" transform="translate(759.7 -167.5)"/><path class="cls-4" d="M2254.68,883.94s-331.34-206.63-701.95-65.4C1174.05,963.13,1012.67,1022.07,762.46,953" transform="translate(759.7 -167.5)"/><path class="cls-4" d="M2300.73,911.19s-324.11-196-687.58-62C1242.94,986,1088.72,1051.6,851.45,983.44" transform="translate(759.7 -167.5)"/><path class="cls-4" d="M2346.78,938.43s-316.88-185.25-673.22-58.54c-361.73,129-508.78,201.23-733.12,134" transform="translate(759.7 -167.5)"/><path class="cls-4" d="M2392.83,965.68S2083.18,791.11,1734,910.57c-353.25,121.15-493.14,200.08-704.54,133.84" transform="translate(759.7 -167.5)"/><path class="cls-4" d="M2438.88,992.92s-302.42-163.87-644.5-51.67c-344.77,113.33-477.49,198.92-676,133.65" transform="translate(759.7 -167.5)"/><path class="cls-4" d="M2484.93,1020.17S2189.74,867,1854.79,971.93C1518.5,1077.44,1393,1169.7,1207.4,1105.38" transform="translate(759.7 -167.5)"/><path class="cls-4" d="M2531,1047.41s-288-142.49-615.78-44.8-446.2,196.61-618.81,133.26" transform="translate(759.7 -167.5)"/></g></g></g></g></svg>