<svg xmlns="http://www.w3.org/2000/svg" viewBox="0 0 506.63 235.32"><defs><style>.cls-1,.cls-10,.cls-11,.cls-12,.cls-13,.cls-14,.cls-15,.cls-16,.cls-17,.cls-18,.cls-2,.cls-3,.cls-4,.cls-5,.cls-6,.cls-7,.cls-8,.cls-9{fill:none;stroke-miterlimit:10;}.cls-1,.cls-18{stroke:#c1a530;}.cls-1{stroke-linecap:round;}.cls-2{stroke:#bfa436;}.cls-3{stroke:#bca33c;}.cls-4{stroke:#baa141;}.cls-5{stroke:#b8a047;}.cls-6{stroke:#b59f4d;}.cls-7{stroke:#b39e53;}.cls-8{stroke:#b09d58;}.cls-9{stroke:#ae9c5e;}.cls-10{stroke:#ac9a64;}.cls-11{stroke:#a9996a;}.cls-12{stroke:#a7986f;}.cls-13{stroke:#a49775;}.cls-14{stroke:#a2967b;}.cls-15{stroke:#a09481;}.cls-16{stroke:#9d9386;}.cls-17{stroke:#9b928c;}</style></defs><g id="图层_2" data-name="图层 2"><g id="图层_1-2" data-name="图层 1"><path class="cls-1" d="M.5,190.76S27.1-.65,68.16.51,93,123.68,176.88,149.12s237.67,79.81,237.67,79.81"/><path class="cls-2" d="M3.5,190.51s25-180.25,65.89-178.95c39.37,1.17,25.67,115.66,105.83,139.62,80.54,24,226.78,75.09,227.87,75.22"/><path class="cls-3" d="M6.5,190.25s23.42-169,64.12-167.63C108.3,23.88,97.1,130.76,173.56,153.23c77.23,22.53,215.9,70.38,218.07,70.64"/><path class="cls-4" d="M9.5,190S31.32,32.22,71.85,33.68c36,1.3,27.28,100.62,100.05,121.61,73.93,21.07,205,65.66,208.28,66.05"/><path class="cls-5" d="M12.5,189.75s20.23-146.57,60.57-145c34.31,1.33,28.06,93.25,97.17,112.61,70.58,19.76,194.12,60.94,198.48,61.46"/><path class="cls-6" d="M15.5,189.49S34.14,54.13,74.3,55.8c32.62,1.36,28.85,85.76,94.28,103.6,67.26,18.34,183.24,56.24,188.68,56.88"/><path class="cls-7" d="M18.5,189.24s17-124.17,57-122.38c30.93,1.39,29.65,78.27,91.39,94.6,64,16.91,172.35,51.52,178.89,52.29"/><path class="cls-8" d="M21.5,189S37,76,76.76,77.92c29.25,1.4,30.45,70.77,88.5,85.59C225.9,179,326.73,210.32,334.35,211.22"/><path class="cls-9" d="M24.5,188.74S38.36,87,78,89c27.56,1.42,31.26,63.27,85.61,76.59,57.33,14,150.58,42.09,159.29,43.12"/><path class="cls-10" d="M27.5,188.48S39.77,97.88,79.22,100c25.87,1.42,32.06,55.76,82.73,67.58,54,12.6,139.69,37.38,149.48,38.54"/><path class="cls-11" d="M30.5,188.23s10.68-79.43,50-77.13c24.18,1.42,32.87,48.25,79.84,58.58C211,180.83,289.09,202.35,300,203.63"/><path class="cls-12" d="M33.5,188s9.09-68.27,48.18-65.82c22.5,1.41,33.68,40.73,76.95,49.57,47.41,9.7,117.91,28,129.89,29.37"/><path class="cls-13" d="M36.5,187.72s7.5-57.11,46.4-54.5c20.82,1.4,34.51,33.19,74.07,40.57C201.08,182,264,197,277.06,198.57"/><path class="cls-14" d="M39.5,187.47s5.91-46,44.63-43.19c19.13,1.38,35.32,25.64,71.18,31.56,40.81,6.74,96.14,18.53,110.29,20.2"/><path class="cls-15" d="M42.5,187.22s4.32-34.87,42.86-31.88c17.45,1.35,36.14,18.08,68.29,22.56,37.52,5.23,85.26,13.81,100.5,15.61"/><path class="cls-16" d="M45.5,187s2.73-23.77,41.09-20.56c15.76,1.32,37,10.49,65.4,13.56,34.22,3.69,74.37,9.09,90.7,11"/><path class="cls-17" d="M48.5,186.71s1.15-12.72,39.32-9.25c31.68,2.88,112.06,7.3,143.41,11"/><path class="cls-18" d="M149.12,134.67s53-24.1,71.7-53.21c30.08-46.84,68.73-17.3,84.43,4.63C341.68,137,357.88,268.83,506.49,226.61"/><path class="cls-2" d="M149.7,135.06s50.79-22.23,69.13-49.37c29.38-43.49,66.3-15.69,81.36,4.92,35.14,48.07,55.7,173.84,196.87,134.67"/><path class="cls-3" d="M150.27,135.46s48.57-20.36,66.57-45.55c28.68-40.13,63.87-14.07,78.29,5.22,33.85,45.25,58.77,165,192.5,128.81"/><path class="cls-4" d="M150.85,135.86s46.32-18.49,64-41.72c28-36.77,61.45-12.46,75.23,5.5,32.57,42.44,61.84,156.07,188.12,123"/><path class="cls-5" d="M151.43,136.26s44.06-16.6,61.42-37.9c27.22-33.4,59-10.85,72.16,5.8,31.29,39.63,64.92,147.17,183.75,117.1"/><path class="cls-6" d="M152,136.65s41.78-14.7,58.84-34.06c26.45-30,56.61-9.24,69.1,6.09,30,36.81,68,138.28,179.38,111.25"/><path class="cls-7" d="M152.59,137.05s39.48-12.8,56.27-30.24c25.64-26.64,54.19-7.62,66,6.39,28.75,34,71.06,129.39,175,105.39"/><path class="cls-8" d="M153.17,137.45s37.16-10.89,53.69-26.42c24.78-23.26,51.78-6,63,6.69,27.5,31.17,74.13,120.49,170.63,99.53"/><path class="cls-9" d="M153.74,137.85s34.8-9,51.13-22.59c23.86-19.9,49.38-4.4,59.9,7C291,150.59,342,233.84,431,215.91"/><path class="cls-10" d="M154.32,138.24s32.39-7.05,48.56-18.76c22.87-16.56,47-2.79,56.83,7.27,25,25.54,80.28,102.72,161.89,87.83"/><path class="cls-11" d="M154.9,138.64s29.93-5.16,46-14.93c21.81-13.27,44.59-1.19,53.77,7.56,23.82,22.71,83.35,93.82,157.51,82"/><path class="cls-12" d="M155.48,139s27.41-3.32,43.41-11.11c20.65-10.05,42.21.4,50.7,7.86,22.65,19.87,86.42,84.93,153.14,76.11"/><path class="cls-13" d="M156.06,139.44s24.83-1.55,40.83-7.28c19.42-7,39.86,2,47.64,8.14,21.5,17,89.49,76,148.77,70.27"/><path class="cls-14" d="M156.64,139.83s22.22.09,38.26-3.45c18.14-4,37.51,3.55,44.57,8.44C259.87,158.93,332,212,383.86,209.23"/><path class="cls-15" d="M157.21,140.23s19.63,1.54,35.7.37c16.89-1.23,35.18,5.1,41.5,8.74,19.34,11.12,95.64,58.26,140,58.55"/><path class="cls-16" d="M157.79,140.63s17.13,2.79,33.12,4.2c15.77,1.38,32.87,6.59,38.44,9,18.34,8,98.71,49.37,135.65,52.69"/><path class="cls-17" d="M158.37,141s56,14.69,65.92,17.35c17.35,4.62,101.78,40.48,131.27,46.84"/></g></g></svg>