<svg id="图层_1" data-name="图层 1" xmlns="http://www.w3.org/2000/svg" xmlns:xlink="http://www.w3.org/1999/xlink" viewBox="0 0 1920 1080"><defs><style>.cls-1{opacity:0.3;}.cls-2{fill:none;stroke:#9b928c;stroke-miterlimit:10;}.cls-3{opacity:0.7;}.cls-4{fill:url(#未命名的渐变_4);}.cls-5{fill:url(#未命名的渐变_10);}.cls-6{fill:url(#未命名的渐变_71);}.cls-7{fill:url(#未命名的渐变_4-2);}.cls-8{fill:url(#未命名的渐变_10-2);}.cls-9{fill:url(#未命名的渐变_71-2);}.cls-10{fill:url(#未命名的渐变_4-3);}.cls-11{fill:url(#未命名的渐变_10-3);}.cls-12{fill:url(#未命名的渐变_71-3);}.cls-13{fill:url(#未命名的渐变_4-4);}.cls-14{fill:url(#未命名的渐变_10-4);}.cls-15{fill:url(#未命名的渐变_71-4);}.cls-16{fill:url(#未命名的渐变_4-5);}.cls-17{fill:url(#未命名的渐变_10-5);}.cls-18{fill:url(#未命名的渐变_71-5);}.cls-19{fill:url(#未命名的渐变_4-6);}.cls-20{fill:url(#未命名的渐变_10-6);}.cls-21{fill:url(#未命名的渐变_71-6);}.cls-22{fill:url(#未命名的渐变_4-7);}.cls-23{fill:url(#未命名的渐变_10-7);}.cls-24{fill:url(#未命名的渐变_71-7);}.cls-25{fill:url(#未命名的渐变_4-8);}.cls-26{fill:url(#未命名的渐变_10-8);}.cls-27{fill:url(#未命名的渐变_71-8);}.cls-28{fill:url(#未命名的渐变_4-9);}.cls-29{fill:url(#未命名的渐变_10-9);}.cls-30{fill:url(#未命名的渐变_71-9);}.cls-31{fill:url(#未命名的渐变_4-10);}.cls-32{fill:url(#未命名的渐变_10-10);}.cls-33{fill:url(#未命名的渐变_71-10);}.cls-34{fill:url(#未命名的渐变_4-11);}.cls-35{fill:url(#未命名的渐变_10-11);}.cls-36{fill:url(#未命名的渐变_71-11);}.cls-37{fill:url(#未命名的渐变_4-12);}.cls-38{fill:url(#未命名的渐变_10-12);}.cls-39{fill:url(#未命名的渐变_71-12);}.cls-40{fill:url(#未命名的渐变_4-13);}.cls-41{fill:url(#未命名的渐变_10-13);}.cls-42{fill:url(#未命名的渐变_71-13);}.cls-43{fill:url(#未命名的渐变_4-14);}.cls-44{fill:url(#未命名的渐变_10-14);}.cls-45{fill:url(#未命名的渐变_71-14);}.cls-46{fill:url(#未命名的渐变_4-15);}.cls-47{fill:url(#未命名的渐变_10-15);}.cls-48{fill:url(#未命名的渐变_71-15);}</style><linearGradient id="未命名的渐变_4" x1="527.49" y1="853.64" x2="888.71" y2="853.64" gradientUnits="userSpaceOnUse"><stop offset="0" stop-color="#cea55b"/><stop offset="0.28" stop-color="#d9ba82"/><stop offset="0.91" stop-color="#f5ede3"/><stop offset="1" stop-color="#f9f5f2"/></linearGradient><linearGradient id="未命名的渐变_10" x1="625.62" y1="1079.6" x2="625.62" y2="868.13" gradientUnits="userSpaceOnUse"><stop offset="0" stop-color="#f9f5f2"/><stop offset="0.17" stop-color="#f8f3ee"/><stop offset="0.33" stop-color="#f5ede3"/><stop offset="0.49" stop-color="#efe3cf"/><stop offset="0.65" stop-color="#e7d4b4"/><stop offset="0.81" stop-color="#dec292"/><stop offset="0.96" stop-color="#d2ac67"/><stop offset="1" stop-color="#cea55b"/></linearGradient><linearGradient id="未命名的渐变_71" x1="838.83" y1="1023.5" x2="755.64" y2="859.88" gradientUnits="userSpaceOnUse"><stop offset="0" stop-color="#f9f5f2"/><stop offset="0.13" stop-color="#f6f0e8"/><stop offset="0.34" stop-color="#eee1cd"/><stop offset="0.62" stop-color="#e2caa0"/><stop offset="0.96" stop-color="#d1aa64"/><stop offset="1" stop-color="#cea55b"/></linearGradient><linearGradient id="未命名的渐变_4-2" x1="353.89" y1="960.65" x2="527.49" y2="960.65" xlink:href="#未命名的渐变_4"/><linearGradient id="未命名的渐变_10-2" x1="401.05" y1="1032.91" x2="401.05" y2="967.62" xlink:href="#未命名的渐变_10"/><linearGradient id="未命名的渐变_71-2" x1="500.23" y1="1017.65" x2="470.48" y2="959.14" xlink:href="#未命名的渐变_71"/><linearGradient id="未命名的渐变_4-3" x1="133.34" y1="960.65" x2="306.95" y2="960.65" xlink:href="#未命名的渐变_4"/><linearGradient id="未命名的渐变_10-3" x1="180.5" y1="1032.91" x2="180.5" y2="967.62" xlink:href="#未命名的渐变_10"/><linearGradient id="未命名的渐变_71-3" x1="279.68" y1="1017.65" x2="249.94" y2="959.14" xlink:href="#未命名的渐变_71"/><linearGradient id="未命名的渐变_4-4" x1="1111.99" y1="960.65" x2="1285.59" y2="960.65" xlink:href="#未命名的渐变_4"/><linearGradient id="未命名的渐变_10-4" x1="1159.15" y1="1032.91" x2="1159.15" y2="967.62" xlink:href="#未命名的渐变_10"/><linearGradient id="未命名的渐变_71-4" x1="1258.33" y1="1017.65" x2="1228.58" y2="959.14" xlink:href="#未命名的渐变_71"/><linearGradient id="未命名的渐变_4-5" x1="-0.57" y1="1007.74" x2="173.04" y2="1007.74" xlink:href="#未命名的渐变_4"/><linearGradient id="未命名的渐变_10-5" x1="46.59" y1="1080" x2="46.59" y2="1014.7" xlink:href="#未命名的渐变_10"/><linearGradient id="未命名的渐变_71-5" x1="145.77" y1="1064.73" x2="116.02" y2="1006.23" xlink:href="#未命名的渐变_71"/><linearGradient id="未命名的渐变_4-6" x1="423.86" y1="1007.74" x2="597.46" y2="1007.74" xlink:href="#未命名的渐变_4"/><linearGradient id="未命名的渐变_10-6" x1="471.02" y1="1080" x2="471.02" y2="1014.7" xlink:href="#未命名的渐变_10"/><linearGradient id="未命名的渐变_71-6" x1="570.2" y1="1064.73" x2="540.45" y2="1006.23" xlink:href="#未命名的渐变_71"/><linearGradient id="未命名的渐变_4-7" x1="220.14" y1="1007.74" x2="393.75" y2="1007.74" xlink:href="#未命名的渐变_4"/><linearGradient id="未命名的渐变_10-7" x1="267.3" y1="1080" x2="267.3" y2="1014.7" xlink:href="#未命名的渐变_10"/><linearGradient id="未命名的渐变_71-7" x1="366.49" y1="1064.73" x2="336.74" y2="1006.23" xlink:href="#未命名的渐变_71"/><linearGradient id="未命名的渐变_4-8" x1="704.92" y1="1007.74" x2="878.53" y2="1007.74" xlink:href="#未命名的渐变_4"/><linearGradient id="未命名的渐变_10-8" x1="752.09" y1="1080" x2="752.09" y2="1014.7" xlink:href="#未命名的渐变_10"/><linearGradient id="未命名的渐变_71-8" x1="851.27" y1="1064.73" x2="821.52" y2="1006.23" xlink:href="#未命名的渐变_71"/><linearGradient id="未命名的渐变_4-9" x1="889.09" y1="964.98" x2="1062.69" y2="964.98" xlink:href="#未命名的渐变_4"/><linearGradient id="未命名的渐变_10-9" x1="936.25" y1="1037.25" x2="936.25" y2="971.95" xlink:href="#未命名的渐变_10"/><linearGradient id="未命名的渐变_71-9" x1="1035.43" y1="1021.98" x2="1005.68" y2="963.47" xlink:href="#未命名的渐变_71"/><linearGradient id="未命名的渐变_4-10" x1="1342.5" y1="960.65" x2="1516.11" y2="960.65" xlink:href="#未命名的渐变_4"/><linearGradient id="未命名的渐变_10-10" x1="1389.66" y1="1032.91" x2="1389.66" y2="967.62" xlink:href="#未命名的渐变_10"/><linearGradient id="未命名的渐变_71-10" x1="1488.84" y1="1017.65" x2="1459.1" y2="959.14" xlink:href="#未命名的渐变_71"/><linearGradient id="未命名的渐变_4-11" x1="1570.62" y1="960.65" x2="1744.23" y2="960.65" xlink:href="#未命名的渐变_4"/><linearGradient id="未命名的渐变_10-11" x1="1617.78" y1="1032.91" x2="1617.78" y2="967.62" xlink:href="#未命名的渐变_10"/><linearGradient id="未命名的渐变_71-11" x1="1716.96" y1="1017.65" x2="1687.22" y2="959.14" xlink:href="#未命名的渐变_71"/><linearGradient id="未命名的渐变_4-12" x1="1707.53" y1="1007.74" x2="1881.14" y2="1007.74" xlink:href="#未命名的渐变_4"/><linearGradient id="未命名的渐变_10-12" x1="1754.69" y1="1080" x2="1754.69" y2="1014.7" xlink:href="#未命名的渐变_10"/><linearGradient id="未命名的渐变_71-12" x1="1853.87" y1="1064.73" x2="1824.13" y2="1006.23" xlink:href="#未命名的渐变_71"/><linearGradient id="未命名的渐变_4-13" x1="941.16" y1="1007.74" x2="1114.77" y2="1007.74" xlink:href="#未命名的渐变_4"/><linearGradient id="未命名的渐变_10-13" x1="988.32" y1="1080" x2="988.32" y2="1014.7" xlink:href="#未命名的渐变_10"/><linearGradient id="未命名的渐变_71-13" x1="1087.51" y1="1064.73" x2="1057.76" y2="1006.23" xlink:href="#未命名的渐变_71"/><linearGradient id="未命名的渐变_4-14" x1="1175.49" y1="1007.74" x2="1349.1" y2="1007.74" xlink:href="#未命名的渐变_4"/><linearGradient id="未命名的渐变_10-14" x1="1222.65" y1="1080" x2="1222.65" y2="1014.7" xlink:href="#未命名的渐变_10"/><linearGradient id="未命名的渐变_71-14" x1="1321.83" y1="1064.73" x2="1292.09" y2="1006.23" xlink:href="#未命名的渐变_71"/><linearGradient id="未命名的渐变_4-15" x1="1406" y1="1007.74" x2="1579.61" y2="1007.74" xlink:href="#未命名的渐变_4"/><linearGradient id="未命名的渐变_10-15" x1="1453.16" y1="1080" x2="1453.16" y2="1014.7" xlink:href="#未命名的渐变_10"/><linearGradient id="未命名的渐变_71-15" x1="1552.35" y1="1064.73" x2="1522.6" y2="1006.23" xlink:href="#未命名的渐变_71"/></defs><g class="cls-1"><path class="cls-2" d="M1920.13,844.68S1827,661.34,1716.37,663.56c-168.82,3.38-15.52,225.12-304.66,194.66-198.2-20.89-528.4,221.38-528.4,221.38"/><path class="cls-2" d="M1919.85,855.15s-92.26-175.21-201-173.86c-112.45,1.7-80.21,101.6-138.21,153.77-26.87,24.17-73.46,38.18-161.61,28.86-194-20.58-514.72,211.55-517.68,211.42"/><path class="cls-2" d="M1919.57,865.63S1828.21,698.25,1721.35,699c-109.21.78-80.35,96-137.11,144.39-26.58,22.65-72.58,35.27-157.88,26.21-189.86-20.26-501,201.72-506.95,201.47"/><path class="cls-2" d="M1919.3,876.11s-90.46-159.39-195.47-159.36c-106,0-80.53,90.46-136,135-26.31,21.14-71.68,32.35-154.13,23.55-185.7-19.94-487.37,191.9-496.24,191.52"/><path class="cls-2" d="M1919,886.59s-89.55-151.4-192.7-152.12c-102.71-.71-80.78,84.88-134.91,125.64-26.08,19.64-70.79,29.44-150.4,20.9-181.52-19.63-473.69,182.07-485.51,181.57"/><path class="cls-2" d="M1918.74,897.07s-88.64-143.4-189.93-144.87c-99.47-1.44-81.1,79.29-133.82,116.27-25.87,18.14-69.9,26.51-146.65,18.24C1271,867.39,988.32,1059,973.55,1058.32"/><path class="cls-2" d="M1918.46,907.55s-87.73-135.39-187.16-137.62c-96.22-2.16-81.5,73.67-132.73,106.89-25.7,16.67-69,23.6-142.91,15.59-173.18-19-446.33,162.41-464.07,161.66"/><path class="cls-2" d="M1918.19,918s-86.83-127.35-184.41-130.36c-93-2.86-82,68-131.62,97.51-25.58,15.19-68.12,20.68-139.18,12.94-169-18.69-432.65,152.58-453.34,151.7"/><path class="cls-2" d="M1917.91,928.5S1832,809.18,1736.27,805.39c-89.71-3.55-82.54,62.31-130.53,88.13-25.49,13.72-67.22,17.77-135.43,10.29-164.84-18.38-419,142.75-442.62,141.75"/><path class="cls-2" d="M1917.63,939s-85-111.27-178.87-115.86c-86.46-4.23-83.21,56.54-129.43,78.75-25.47,12.24-66.33,14.85-131.7,7.64-160.66-18.07-405.3,132.93-431.9,131.79"/><path class="cls-2" d="M1917.35,949.46s-84.08-103.21-176.11-108.61c-83.2-4.89-84,50.68-128.33,69.37-25.48,10.74-65.44,11.94-128,5-156.5-17.75-391.63,123.1-421.18,121.84"/><path class="cls-2" d="M1917.08,959.94s-83.17-95.14-173.35-101.36c-80-5.53-84.84,44.72-127.24,60-25.55,9.21-64.54,9-124.21,2.33-152.32-17.44-377.94,113.27-410.45,111.88"/><path class="cls-2" d="M1916.8,970.42s-82.25-87-170.58-94.12c-76.69-6.14-85.8,38.64-126.14,50.63-25.68,7.63-63.65,6.1-120.47-.32-148.15-17.13-364.27,103.44-399.74,101.93"/><path class="cls-2" d="M1916.52,980.89S1835.19,902,1748.71,894c-73.44-6.74-86.85,32.4-125,41.25-25.85,6-62.76,3.18-116.73-3-144-16.82-350.59,93.61-389,92"/><path class="cls-2" d="M1916.25,991.37s-80.43-70.77-165.06-79.61c-70.18-7.33-88,26-123.94,31.87-26.07,4.25-61.87.26-113-5.62-139.81-16.5-336.92,83.78-378.29,82"/><path class="cls-2" d="M1916,1001.85s-79.51-62.61-162.29-72.36c-66.94-7.89-89.09,19.43-122.85,22.49-26.3,2.39-61-2.65-109.25-8.27-135.64-16.19-323.23,73.95-367.57,72.06"/><path class="cls-2" d="M1915.69,1012.33s-78.61-54.41-159.52-65.11c-63.69-8.42-90.23,12.68-121.75,13.12-26.54.36-60.09-5.58-105.51-10.93-131.47-15.88-309.56,64.12-356.85,62.11"/><path class="cls-2" d="M1915.41,1022.81s-77.7-46.18-156.76-57.86c-60.45-8.94-91.29,5.76-120.65,3.74-26.73-1.85-59.19-8.49-101.77-13.58-127.3-15.57-295.88,54.29-346.12,52.15"/><path class="cls-2" d="M1915.14,1033.29s-76.82-37.91-154-50.61c-57.21-9.42-92.25-1.3-119.56-5.64-26.82-4.26-58.3-11.41-98-16.23-123.13-15.25-282.21,44.46-335.41,42.2"/><path class="cls-2" d="M1914.86,1043.77s-75.94-29.59-151.23-43.36c-54-9.89-93-8.47-118.46-15-26.78-6.89-57.41-14.32-94.29-18.88-119-14.94-268.53,34.63-324.68,32.24"/><path class="cls-2" d="M1914.58,1054.24s-75.08-21.2-148.46-36.11c-50.78-10.31-93.61-15.69-117.37-24.39a412.3,412.3,0,0,0-90.54-21.53c-114.79-14.63-254.85,24.8-314,22.29"/><path class="cls-2" d="M1914.31,1064.72s-206-35.43-262-62.63c-118.38-57.55-310.49-8.46-390-11.85"/><path class="cls-2" d="M1225.42,880.22s-21.82-91.62-192.11-33.85c-209.57,71.09-454.08,118.48-597.68,88"/><path class="cls-2" d="M1215,885.72s-20.7-86-181.32-31.52c-197.77,67.07-431.1,115.64-579.6,85.26"/><path class="cls-2" d="M1204.56,891.22S1185,810.85,1034,862c-186,63.06-408.13,112.81-561.54,82.52"/><path class="cls-2" d="M1194.13,896.72S1175.67,822,1034.4,869.85c-174.16,59-385.15,110-543.46,79.77"/><path class="cls-2" d="M1183.7,902.23s-17.34-69.14-148.93-24.55c-162.36,55-362.18,107.13-525.4,77"/><path class="cls-2" d="M1173.27,907.73s-16.22-63.52-138.14-22.22c-150.56,51-339.19,104.29-507.32,74.27"/><path class="cls-2" d="M1162.84,913.23s-15.1-57.9-127.35-19.89c-138.75,47-316.21,101.45-489.25,71.51"/><path class="cls-2" d="M1152.41,918.73s-14-52.28-116.55-17.56c-126.95,43-293.24,98.61-471.18,68.76"/><path class="cls-2" d="M1142,924.23s-12.85-46.65-105.76-15.23C921.08,947.93,766,1004.77,583.11,975"/><path class="cls-2" d="M1131.55,929.73s-11.73-41-95-12.9c-103.35,34.91-247.29,92.93-435,63.26"/><path class="cls-2" d="M1121.12,935.23s-10.61-35.41-84.17-10.58c-91.54,30.9-224.31,90.1-417,60.52"/><path class="cls-2" d="M1110.69,940.73s-9.49-29.79-73.38-8.25c-79.73,26.88-201.33,87.26-398.89,57.76"/><path class="cls-2" d="M1100.26,946.24s-8.37-24.18-62.58-5.93c-67.93,22.86-178.36,84.42-380.83,55"/><path class="cls-2" d="M1089.83,951.74s-7.25-18.56-51.79-3.6c-56.13,18.84-155.38,81.58-362.75,52.26"/><path class="cls-2" d="M1079.4,957.24s-6.13-12.94-41-1.27c-44.32,14.81-132.4,78.74-344.68,49.51"/><path class="cls-2" d="M1069,962.74s-5-7.31-30.2,1.06c-32.52,10.79-109.42,75.9-326.61,46.76"/><path class="cls-2" d="M1058.54,968.24s-3.88-1.69-19.41,3.39c-20.71,6.77-86.44,73.06-308.54,44"/><path class="cls-2" d="M2.11,639.06C256.32,798.17,342.63,895.37,342.63,895.37"/><path class="cls-2" d="M3.41,652c54.79,34.3,114.64,65.41,158.14,96.24,140.33,99.47,199.61,157.06,207.65,155"/><path class="cls-2" d="M4.7,665c52.05,32.58,122.82,62,168.54,94.36C312.8,858.3,379.69,915.29,395.77,911.1"/><path class="cls-2" d="M6,678c49.32,30.86,131,58.5,178.94,92.48C323.72,868.85,398.22,925.25,422.34,919"/><path class="cls-2" d="M7.29,691c46.57,29.15,139.18,55,189.33,90.61,138,97.83,220.13,153.63,252.28,145.25"/><path class="cls-2" d="M8.58,703.94C52.41,731.38,156,755.55,208.32,792.68c137.23,97.28,227,152.49,267.15,142"/><path class="cls-2" d="M9.87,716.92C51,742.64,165.42,765.08,220,803.78c136.46,96.74,233.8,151.35,282,138.78"/><path class="cls-2" d="M11.17,729.9c38.35,24,163.73,44.71,220.53,85,135.69,96.18,240.64,150.2,296.91,135.53"/><path class="cls-2" d="M12.46,742.87C48.08,765.17,184.37,784.14,243.4,826c134.9,95.64,247.46,149.06,311.78,132.3"/><path class="cls-2" d="M13.75,755.85c32.88,20.58,180.1,37.82,241.34,81.24C389.22,932.18,509.39,985,581.75,966.15"/><path class="cls-2" d="M15.05,768.83c30.13,18.86,188.27,34.37,251.73,79.36C400.14,942.74,527.92,995,608.32,974"/><path class="cls-2" d="M16.34,781.81C43.74,799,212.8,812.73,278.48,859.3c132.58,94,268,145.64,356.4,122.58"/><path class="cls-2" d="M17.64,794.78c24.65,15.44,204.63,27.48,272.53,75.62C422,963.85,565,1014.9,661.45,989.75"/><path class="cls-2" d="M18.93,807.76c21.92,13.72,212.82,24,282.93,73.74,131,92.9,281.65,143.36,386.16,116.11"/><path class="cls-2" d="M20.22,820.74c19.18,12,221,20.58,293.33,71.87C443.81,985,602,1034.82,714.59,1005.48"/><path class="cls-2" d="M21.52,833.71C38,844,250.7,850.85,325.25,903.71c129.48,91.8,295.32,141.07,415.91,109.63"/><path class="cls-2" d="M22.81,846.69c13.7,8.58,237.36,13.69,314.13,68.12,128.7,91.26,302.16,139.93,430.79,106.4"/><path class="cls-2" d="M24.1,859.67c11,6.86,245.55,10.24,324.53,66.25,127.93,90.7,309,138.78,445.67,103.15"/><path class="cls-2" d="M25.4,872.65c8.22,5.14,253.72,6.79,334.93,64.37,127.15,90.16,315.83,137.64,460.53,99.92"/><path class="cls-2" d="M26.69,885.62C32.17,889.05,288.6,889,372,948.12c126.37,89.61,322.67,136.5,475.41,96.68"/><path class="cls-2" d="M28,898.6c2.73,1.72,270.08-.1,355.72,60.63,125.6,89.06,329.51,135.35,490.29,93.44"/><path class="cls-2" d="M29.28,911.58S307.55,908,395.4,970.33c124.83,88.51,336.35,134.21,505.17,90.2"/><path class="cls-2" d="M1.5,638.55S17.53,350,290.11,459.1c321.47,128.63,385.36,371.23,845.26,361.07"/><path class="cls-2" d="M15.12,647.69s15.75-276.37,276.78-171C598.79,599.9,660.57,836.23,1113.34,825.73"/><path class="cls-2" d="M28.74,656.83s15.47-264.21,265-162.62c292.31,117.86,352,347.92,797.62,337.07"/><path class="cls-2" d="M42.36,666S57.28,414.55,295.47,511.76C572.91,625,630.78,848,1069.28,836.84"/><path class="cls-2" d="M56,675.11S70.53,436.05,297.26,529.32C560,637.4,615.88,853.94,1047.25,842.39"/><path class="cls-2" d="M69.6,684.26S83.78,457.55,299.05,546.87C547.13,649.81,601,859.84,1025.22,848"/><path class="cls-2" d="M83.22,693.4S97,479.05,300.83,564.43c233.41,97.78,285.26,301.31,702.36,289.07"/><path class="cls-2" d="M96.84,702.54s13.43-202,205.78-120.56C521.36,674.6,571.19,871.64,981.16,859.05"/><path class="cls-2" d="M110.46,711.68S123.52,522,304.4,599.54c204.07,87.44,251.9,278,654.73,265.07"/><path class="cls-2" d="M124.08,720.82s12.68-177.31,182.11-103.73C495.59,699.34,541.4,883.45,937.1,870.16"/><path class="cls-2" d="M137.7,730S150,565,308,634.65C482.71,711.7,526.5,889.35,915.07,875.72"/><path class="cls-2" d="M151.32,739.11s11.92-152.66,158.44-86.91C469.83,724,511.6,895.25,893,881.27"/><path class="cls-2" d="M164.94,748.25s11.54-140.35,146.61-78.5C457,736.35,496.71,901.15,871,886.83"/><path class="cls-2" d="M178.56,757.39s11.16-128,134.78-70.08C444.09,748.63,481.81,907.05,849,892.38"/><path class="cls-2" d="M192.18,766.53S203,650.75,315.12,704.86c116.12,56,151.79,208.09,511.82,193.07"/><path class="cls-2" d="M205.8,775.68s10.4-103.54,111.11-53.26c101.48,50.67,135.11,196.44,488,181.07"/><path class="cls-2" d="M219.42,784.82s10-91.33,99.27-44.85C405.57,785.22,437.12,924.76,782.88,909"/><path class="cls-2" d="M233,794s9.66-79.19,87.44-36.43c72.29,39.74,101.74,173.13,440.37,157.07"/><path class="cls-2" d="M246.66,803.1s9.32-67.15,75.61-28C380,809.19,407.33,936.56,738.82,920.15"/><path class="cls-2" d="M260.28,812.24s9.07-55.3,63.77-19.6c43.33,28.28,68.38,149.82,392.74,133.07"/><path class="cls-2" d="M273.9,821.38s9.08-43.83,51.94-11.19c29.09,22.16,51.69,138.17,368.92,121.07"/><path class="cls-2" d="M287.52,830.53s10.1-33.32,40.11-2.78c15.35,15.62,35,126.52,345.1,109.06"/></g><g class="cls-3"><polygon class="cls-4" points="723.74 868.13 527.49 868.13 666.43 839.15 888.71 839.15 723.74 868.13"/><rect class="cls-5" x="527.49" y="868.13" width="196.25" height="211.47"/><polygon class="cls-6" points="888.71 1079.6 723.74 1079.6 723.74 868.13 888.71 839.15 888.71 1079.6"/></g><g class="cls-3"><polygon class="cls-7" points="448.21 967.62 353.88 967.62 420.66 953.69 527.49 953.69 448.21 967.62"/><rect class="cls-8" x="353.89" y="967.62" width="94.32" height="65.3"/><polygon class="cls-9" points="527.49 1032.91 448.21 1032.91 448.21 967.62 527.49 953.69 527.49 1032.91"/></g><g class="cls-3"><polygon class="cls-10" points="227.66 967.62 133.34 967.62 200.12 953.69 306.95 953.69 227.66 967.62"/><rect class="cls-11" x="133.34" y="967.62" width="94.32" height="65.3"/><polygon class="cls-12" points="306.95 1032.91 227.66 1032.91 227.66 967.62 306.95 953.69 306.95 1032.91"/></g><g class="cls-3"><polygon class="cls-13" points="1206.31 967.62 1111.99 967.62 1178.76 953.69 1285.6 953.69 1206.31 967.62"/><rect class="cls-14" x="1111.99" y="967.62" width="94.32" height="65.3"/><polygon class="cls-15" points="1285.6 1032.91 1206.31 1032.91 1206.31 967.62 1285.6 953.69 1285.6 1032.91"/></g><g class="cls-3"><polygon class="cls-16" points="93.75 1014.7 -0.57 1014.7 66.2 1000.77 173.03 1000.77 93.75 1014.7"/><rect class="cls-17" x="-0.57" y="1014.7" width="94.32" height="65.3"/><polygon class="cls-18" points="173.03 1080 93.75 1080 93.75 1014.7 173.03 1000.77 173.03 1080"/></g><g class="cls-3"><polygon class="cls-19" points="518.18 1014.7 423.86 1014.7 490.63 1000.77 597.46 1000.77 518.18 1014.7"/><rect class="cls-20" x="423.86" y="1014.7" width="94.32" height="65.3"/><polygon class="cls-21" points="597.46 1080 518.18 1080 518.18 1014.7 597.46 1000.77 597.46 1080"/></g><g class="cls-3"><polygon class="cls-22" points="314.46 1014.7 220.14 1014.7 286.92 1000.77 393.75 1000.77 314.46 1014.7"/><rect class="cls-23" x="220.14" y="1014.7" width="94.32" height="65.3"/><polygon class="cls-24" points="393.75 1080 314.46 1080 314.46 1014.7 393.75 1000.77 393.75 1080"/></g><g class="cls-3"><polygon class="cls-25" points="799.25 1014.7 704.92 1014.7 771.7 1000.77 878.53 1000.77 799.25 1014.7"/><rect class="cls-26" x="704.92" y="1014.7" width="94.32" height="65.3"/><polygon class="cls-27" points="878.53 1080 799.25 1080 799.25 1014.7 878.53 1000.77 878.53 1080"/></g><g class="cls-3"><polygon class="cls-28" points="983.41 971.95 889.09 971.95 955.86 958.02 1062.69 958.02 983.41 971.95"/><rect class="cls-29" x="889.09" y="971.95" width="94.32" height="65.3"/><polygon class="cls-30" points="1062.69 1037.25 983.41 1037.25 983.41 971.95 1062.69 958.02 1062.69 1037.25"/></g><g class="cls-3"><polygon class="cls-31" points="1436.82 967.62 1342.5 967.62 1409.28 953.69 1516.11 953.69 1436.82 967.62"/><rect class="cls-32" x="1342.5" y="967.62" width="94.32" height="65.3"/><polygon class="cls-33" points="1516.11 1032.91 1436.82 1032.91 1436.82 967.62 1516.11 953.69 1516.11 1032.91"/></g><g class="cls-3"><polygon class="cls-34" points="1664.94 967.62 1570.62 967.62 1637.4 953.69 1744.23 953.69 1664.94 967.62"/><rect class="cls-35" x="1570.62" y="967.62" width="94.32" height="65.3"/><polygon class="cls-36" points="1744.23 1032.91 1664.94 1032.91 1664.94 967.62 1744.23 953.69 1744.23 1032.91"/></g><g class="cls-3"><polygon class="cls-37" points="1801.85 1014.7 1707.53 1014.7 1774.31 1000.77 1881.14 1000.77 1801.85 1014.7"/><rect class="cls-38" x="1707.53" y="1014.7" width="94.32" height="65.3"/><polygon class="cls-39" points="1881.14 1080 1801.85 1080 1801.85 1014.7 1881.14 1000.77 1881.14 1080"/></g><g class="cls-3"><polygon class="cls-40" points="1035.48 1014.7 941.16 1014.7 1007.94 1000.77 1114.77 1000.77 1035.48 1014.7"/><rect class="cls-41" x="941.16" y="1014.7" width="94.32" height="65.3"/><polygon class="cls-42" points="1114.77 1080 1035.48 1080 1035.48 1014.7 1114.77 1000.77 1114.77 1080"/></g><g class="cls-3"><polygon class="cls-43" points="1269.81 1014.7 1175.49 1014.7 1242.27 1000.77 1349.1 1000.77 1269.81 1014.7"/><rect class="cls-44" x="1175.49" y="1014.7" width="94.32" height="65.3"/><polygon class="cls-45" points="1349.1 1080 1269.81 1080 1269.81 1014.7 1349.1 1000.77 1349.1 1080"/></g><g class="cls-3"><polygon class="cls-46" points="1500.32 1014.7 1406 1014.7 1472.78 1000.77 1579.61 1000.77 1500.32 1014.7"/><rect class="cls-47" x="1406" y="1014.7" width="94.32" height="65.3"/><polygon class="cls-48" points="1579.61 1080 1500.32 1080 1500.32 1014.7 1579.61 1000.77 1579.61 1080"/></g></svg>