<svg xmlns="http://www.w3.org/2000/svg" xmlns:xlink="http://www.w3.org/1999/xlink" viewBox="0 0 996.34 615.23"><defs><style>.cls-1{stroke:#cea55b;fill:url(#未命名的渐变_3);}.cls-1,.cls-4,.cls-5,.cls-6,.cls-7,.cls-8,.cls-9{stroke-miterlimit:10;}.cls-2{opacity:0.25;}.cls-3,.cls-4,.cls-5,.cls-6,.cls-7,.cls-8,.cls-9{fill:none;}.cls-4,.cls-5,.cls-6,.cls-7,.cls-8,.cls-9{stroke:#fff;}.cls-4{stroke-width:0.5px;}.cls-6{stroke-width:1.5px;}.cls-7{stroke-width:2px;}.cls-8{stroke-width:2.5px;}.cls-9{stroke-width:3px;}</style><linearGradient id="未命名的渐变_3" x1="498.17" y1="614.73" x2="498.17" y2="0.5" gradientUnits="userSpaceOnUse"><stop offset="0" stop-color="#f9f5f2" stop-opacity="0"/><stop offset="0.17" stop-color="#f8f4f0" stop-opacity="0.02"/><stop offset="0.31" stop-color="#f6f0e8" stop-opacity="0.07"/><stop offset="0.44" stop-color="#f2e9db" stop-opacity="0.15"/><stop offset="0.57" stop-color="#eddfc9" stop-opacity="0.27"/><stop offset="0.69" stop-color="#e7d3b1" stop-opacity="0.43"/><stop offset="0.81" stop-color="#dec395" stop-opacity="0.62"/><stop offset="0.93" stop-color="#d5b273" stop-opacity="0.84"/><stop offset="1" stop-color="#cea55b"/></linearGradient></defs><g id="图层_2" data-name="图层 2"><g id="图层_1-2" data-name="图层 1"><rect class="cls-1" x="0.5" y="0.5" width="995.34" height="614.23"/><g class="cls-2"><circle class="cls-3" cx="167.81" cy="168.73" r="139.17"/><circle class="cls-4" cx="167.81" cy="168.73" r="127.57"/><circle class="cls-5" cx="167.81" cy="168.73" r="115.97"/><circle class="cls-6" cx="167.81" cy="168.73" r="104.38"/><circle class="cls-7" cx="167.81" cy="168.73" r="92.78"/><circle class="cls-8" cx="167.81" cy="168.73" r="81.18"/><circle class="cls-9" cx="167.81" cy="168.73" r="69.58"/></g><g class="cls-2"><circle class="cls-3" cx="820.28" cy="184.15" r="171.65"/><circle class="cls-4" cx="820.28" cy="184.15" r="157.35"/><circle class="cls-5" cx="820.28" cy="184.15" r="143.04"/><circle class="cls-6" cx="820.28" cy="184.15" r="128.74"/><circle class="cls-7" cx="820.28" cy="184.15" r="114.43"/><circle class="cls-8" cx="820.28" cy="184.15" r="100.13"/><circle class="cls-9" cx="820.28" cy="184.15" r="85.83"/></g><g class="cls-2"><circle class="cls-3" cx="715.91" cy="221.43" r="114.9"/><circle class="cls-4" cx="715.91" cy="221.43" r="105.33"/><circle class="cls-5" cx="715.91" cy="221.43" r="95.75"/><circle class="cls-6" cx="715.91" cy="221.43" r="86.18"/><circle class="cls-7" cx="715.91" cy="221.43" r="76.6"/><circle class="cls-8" cx="715.91" cy="221.43" r="67.03"/><circle class="cls-9" cx="715.91" cy="221.43" r="57.45"/></g></g></g></svg>