<svg id="图层_1" data-name="图层 1" xmlns="http://www.w3.org/2000/svg" viewBox="0 0 1920 1080"><defs><style>.cls-1{opacity:0.15;}.cls-2{fill:none;stroke:#9b928c;stroke-miterlimit:10;}</style></defs><g class="cls-1"><path class="cls-2" d="M1919.54,891s-65.11-147.21-142.41-145.43c-118,2.72-10.85,180.77-213,156.31-138.54-16.77-369.33,177.77-369.33,177.77"/><path class="cls-2" d="M1919.35,899.39s-64.56-140.71-140.6-139.65c-74.13,1.27-58.32,72.46-90.29,115.78-17.56,23.81-50,39.29-119.29,30.89-135.6-16.48-359.66,169.89-361.7,169.79"/><path class="cls-2" d="M1919.16,907.8s-64-134.43-138.78-133.85c-72.05.56-58.17,68.28-89.72,108.67-17.41,22.28-49.59,36.48-116.51,28.34-132.65-16.17-350,162-354.07,161.82"/><path class="cls-2" d="M1919,916.22s-63.46-128-137-128.06c-70,0-58,64.11-89.16,101.55-17.26,20.77-49.11,33.68-113.71,25.81-129.71-15.88-340.32,154.15-346.45,153.85"/><path class="cls-2" d="M1918.77,924.63S1855.87,803,1783.63,802.37c-67.87-.6-57.93,60-88.58,94.43-17.14,19.28-48.64,30.89-110.93,23.28-126.76-15.58-330.65,146.27-338.81,145.87"/><path class="cls-2" d="M1918.57,933.05s-62.34-115.22-133.31-116.48c-65.78-1.16-57.86,55.81-88,87.33-17,17.8-48.17,28.08-108.13,20.74-123.82-15.29-321,138.39-331.19,137.89"/><path class="cls-2" d="M1918.38,941.46s-61.78-108.79-131.49-110.68c-63.69-1.72-57.85,51.68-87.45,80.21-17,16.34-47.7,25.29-105.34,18.2-120.87-15-311.32,130.53-323.57,129.93"/><path class="cls-2" d="M1918.19,949.87S1857,847.51,1788.52,845c-61.6-2.27-57.89,47.54-86.89,73.09-16.91,14.9-47.23,22.49-102.55,15.67-117.92-14.69-301.65,122.65-315.93,122"/><path class="cls-2" d="M1918,958.29s-60.66-95.93-127.85-99.09c-59.5-2.81-58,43.4-86.31,66-16.91,13.48-46.76,19.7-99.76,13.14-115-14.39-292,114.77-308.31,114"/><path class="cls-2" d="M1917.8,966.7s-60.1-89.47-126-93.3c-57.41-3.33-58.18,39.26-85.74,58.87-17,12.05-46.3,16.89-97,10.6-112-14.1-282.32,106.9-300.68,106"/><path class="cls-2" d="M1917.61,975.12s-59.54-83-124.21-87.51c-55.32-3.84-58.46,35.06-85.18,51.75-17,10.64-45.82,14.09-94.18,8.06-109.09-13.79-272.64,99-293,98"/><path class="cls-2" d="M1917.41,983.53s-59-76.54-122.39-81.71c-53.22-4.35-58.83,30.81-84.6,44.63-17.2,9.22-45.36,11.3-91.39,5.53-106.15-13.5-263,91.15-285.43,90"/><path class="cls-2" d="M1917.22,992s-58.4-70.05-120.57-75.92c-51.13-4.83-59.31,26.48-84,37.52-17.4,7.76-44.88,8.49-88.6,3-103.2-13.2-253.3,83.27-277.79,82.08"/><path class="cls-2" d="M1917,1000.36s-57.83-63.54-118.74-70.13c-49-5.3-59.89,22-83.47,30.41-17.69,6.27-44.42,5.7-85.81.46-100.26-12.91-243.64,75.4-270.17,74.1"/><path class="cls-2" d="M1916.83,1008.77s-57.28-57-116.93-64.33C1753,938.68,1738,958,1717,967.73c-18.56,1.39-43.94,2.9-83-2.08-97.32-12.6-234,67.53-262.54,66.13"/><path class="cls-2" d="M1916.64,1017.19s-56.72-50.48-115.11-58.54c-44.85-6.2-62.19,9.05-82.33,16.17-18.62-.32-43.48.1-80.23-4.61-94.37-12.31-224.3,59.65-254.91,58.16"/><path class="cls-2" d="M1916.44,1025.6s-56.16-43.9-113.28-52.75c-42.76-6.62-62,7.87-81.77,9.07-18.75,1.13-43-2.7-77.43-7.15-91.43-12-214.63,51.78-247.29,50.18"/><path class="cls-2" d="M1916.25,1034s-55.61-37.31-111.46-47c-40.68-7-62.61,2.83-81.2,2-19.09-.91-42.54-5.5-74.65-9.68-88.48-11.72-205,43.9-239.65,42.2"/><path class="cls-2" d="M1916.05,1042.43s-55.06-30.68-109.64-41.16c-38.6-7.41-63.14-2.32-80.63-5.17-19.32-3.14-42.06-8.29-71.85-12.21-85.54-11.42-195.29,36-232,34.23"/><path class="cls-2" d="M1915.86,1050.85s-54.54-24-107.82-35.37c-36.53-7.78-63.52-7.55-80.06-12.28a468.24,468.24,0,0,0-69.06-14.76c-82.6-11.12-185.63,28.16-224.41,26.26"/><path class="cls-2" d="M1915.67,1059.26s-54-17.32-106-29.58c-34.48-8.12-63.7-12.79-79.5-19.39-19.28-8.06-41.12-13.89-66.27-17.29-79.65-10.82-176,20.28-216.77,18.28"/><path class="cls-2" d="M1915.47,1067.67s-144-28.45-183.1-50.29c-82.74-46.21-217-6.79-272.63-9.51"/><path class="cls-2" d="M1434,919.52s-15.25-73.57-134.28-27.19C1153.21,949.42,982.31,987.48,881.94,963"/><path class="cls-2" d="M1426.68,923.94s-14.47-69.06-126.73-25.32c-138.24,53.86-301.33,92.87-405.13,68.47"/><path class="cls-2" d="M1419.39,928.35s-13.69-64.54-119.19-23.44c-130,50.63-285.26,90.58-392.49,66.26"/><path class="cls-2" d="M1412.1,932.77s-12.9-60-111.64-21.58c-121.74,47.41-269.21,88.31-379.87,64.06"/><path class="cls-2" d="M1404.81,937.19s-12.12-55.52-104.1-19.71c-113.48,44.18-253.14,86-367.23,61.84"/><path class="cls-2" d="M1397.52,941.61s-11.34-51-96.56-17.84c-105.23,40.94-237.08,83.74-354.59,59.63"/><path class="cls-2" d="M1390.23,946s-10.55-46.49-89-16c-97,37.72-221,81.47-342,57.43"/><path class="cls-2" d="M1382.94,950.44s-9.77-42-81.47-14.1c-88.73,34.49-205,79.19-329.33,55.22"/><path class="cls-2" d="M1375.65,954.86s-9-37.47-73.92-12.24c-80.48,31.27-188.91,76.92-316.71,53"/><path class="cls-2" d="M1368.36,959.28s-8.2-33-66.38-10.37c-72.23,28-172.84,74.63-304.07,50.8"/><path class="cls-2" d="M1361.07,963.69s-7.42-28.44-58.83-8.49c-64,24.81-156.79,72.35-291.45,48.59"/><path class="cls-2" d="M1353.78,968.11s-6.64-23.92-51.29-6.63c-55.73,21.58-140.72,70.08-278.81,46.39"/><path class="cls-2" d="M1346.49,972.53s-5.85-19.41-43.75-4.76c-47.48,18.35-124.66,67.79-266.18,44.18"/><path class="cls-2" d="M1339.2,977s-5.07-14.9-36.2-2.89c-39.23,15.12-108.6,65.51-253.55,42"/><path class="cls-2" d="M1331.91,981.36s-4.28-10.38-28.66-1c-31,11.9-92.54,63.24-240.92,39.76"/><path class="cls-2" d="M1324.62,985.78s-3.5-5.87-21.11.85c-22.73,8.67-76.48,60.95-228.29,37.55"/><path class="cls-2" d="M1317.33,990.2s-2.72-1.36-13.57,2.72c-14.48,5.44-60.42,58.67-215.66,35.34"/><path class="cls-2" d="M578.93,725.86c177.68,127.77,238,205.82,238,205.82"/><path class="cls-2" d="M579.83,736.28c38.52,27.7,80.51,52.82,111,77.67,97.72,79.64,139,125.73,144.65,124"/><path class="cls-2" d="M580.73,746.7C617.33,773,667,796.73,699,822.85c97.2,79.21,143.84,124.83,155.08,121.46"/><path class="cls-2" d="M581.64,757.12c34.67,24.94,91.91,47.25,125.51,74.62,96.67,78.79,148.64,123.94,165.5,118.89"/><path class="cls-2" d="M582.54,767.54c32.75,23.55,97.62,44.47,132.75,73.1,96.16,78.35,153.45,123,175.93,116.3"/><path class="cls-2" d="M583.45,778c30.81,22.16,103.31,41.68,140,71.57,95.63,77.92,158.25,122.13,186.35,113.72"/><path class="cls-2" d="M584.35,788.39c28.89,20.77,109,38.89,147.24,70,95.11,77.5,163,121.24,196.77,111.15"/><path class="cls-2" d="M585.26,798.81c27,19.39,114.71,36.11,154.48,68.52,94.58,77.07,167.85,120.34,207.19,108.56"/><path class="cls-2" d="M586.16,809.23c25,18,120.41,33.33,161.73,67,94.06,76.64,172.65,119.44,217.61,106"/><path class="cls-2" d="M587.06,819.65c23.12,16.62,126.11,30.55,169,65.47,93.53,76.21,177.46,118.55,228,103.4"/><path class="cls-2" d="M588,830.07C609.16,845.3,719.78,857.83,764.19,894c93,75.78,182.26,117.65,238.45,100.82"/><path class="cls-2" d="M588.87,840.49c19.26,13.85,137.51,25,183.47,62.42,92.48,75.36,187.06,116.75,248.87,98.24"/><path class="cls-2" d="M589.78,850.91c17.33,12.47,143.2,22.2,190.7,60.9,92,74.93,191.87,115.85,259.3,95.66"/><path class="cls-2" d="M590.68,861.33c15.41,11.08,148.91,19.42,198,59.38,91.44,74.5,196.67,115,269.72,93.07"/><path class="cls-2" d="M591.58,871.75c13.49,9.7,154.61,16.63,205.2,57.85,90.92,74.07,201.47,114.06,280.14,90.5"/><path class="cls-2" d="M592.49,882.17c11.56,8.31,160.3,13.85,212.44,56.33,90.39,73.64,206.27,113.16,290.56,87.92"/><path class="cls-2" d="M593.39,892.59c9.63,6.93,166,11.07,219.69,54.8,89.87,73.22,211.07,112.27,301,85.34"/><path class="cls-2" d="M594.3,903c7.7,5.54,171.7,8.29,226.93,53.28,89.34,72.79,215.88,111.37,311.4,82.76"/><path class="cls-2" d="M595.2,913.44c5.78,4.15,177.4,5.49,234.18,51.75,88.81,72.36,220.68,110.46,321.82,80.17"/><path class="cls-2" d="M596.11,923.86c3.85,2.77,183.1,2.71,241.41,50.22,88.3,71.93,225.49,109.57,332.25,77.6"/><path class="cls-2" d="M597,934.28c1.93,1.38,188.8-.07,248.66,48.7,87.77,71.5,230.29,108.67,342.67,75"/><path class="cls-2" d="M597.91,944.7s194.5-2.85,255.91,47.17c87.25,71.08,235.09,107.78,353.09,72.44"/><path class="cls-2" d="M578.49,725.45s11.21-231.68,201.74-144.1c224.69,103.29,269.35,298.1,590.8,289.95"/><path class="cls-2" d="M588,732.79s11-221.92,193.47-137.34c214.5,99,257.68,288.74,574.15,280.31"/><path class="cls-2" d="M597.53,740.13S608.35,528,782.72,609.55c204.32,94.64,246,279.38,557.51,270.67"/><path class="cls-2" d="M607.05,747.48S617.44,545.56,784,623.64c193.86,90.9,234.37,270,540.87,261"/><path class="cls-2" d="M616.57,754.82s10.11-192,168.65-117.08c183.59,86.76,222.71,260.67,524.22,251.4"/><path class="cls-2" d="M626.09,762.16s9.84-182.09,160.38-110.32c173.31,82.61,211,251.31,507.57,241.76"/><path class="cls-2" d="M635.61,769.5s9.56-172.17,152.11-103.57c163,78.47,199.38,242,490.92,232.13"/><path class="cls-2" d="M645.13,776.84S654.41,614.58,789,680c152.76,74.31,187.72,232.6,474.27,222.49"/><path class="cls-2" d="M654.65,784.18s9-152.36,135.57-90C932.71,764.27,966.28,917.37,1247.84,907"/><path class="cls-2" d="M664.17,791.52s8.73-142.45,127.29-83.3c132.23,66,164.41,213.89,441,203.22"/><path class="cls-2" d="M673.69,798.86s8.45-132.56,119-76.54c122,61.78,152.74,204.53,424.34,193.58"/><path class="cls-2" d="M683.21,806.2S691.37,683.53,794,736.42C905.66,794,935,931.58,1201.65,920.36"/><path class="cls-2" d="M692.73,813.54s7.88-112.79,102.48-63c101.44,53.37,129.42,185.81,391,174.31"/><path class="cls-2" d="M702.25,820.89s7.6-102.94,94.21-56.28c91.19,49.12,117.76,176.45,374.39,164.67"/><path class="cls-2" d="M711.77,828.23s7.32-93.09,85.94-49.52c80.94,44.85,106.09,167.09,357.74,155"/><path class="cls-2" d="M721.29,835.57s7-83.27,77.67-42.77,94.43,157.74,341.09,145.4"/><path class="cls-2" d="M730.81,842.91s6.76-73.48,69.39-36c60.5,36.19,82.78,148.38,324.45,135.76"/><path class="cls-2" d="M740.33,850.25s6.5-63.74,61.12-29.26c50.32,31.77,71.12,139,307.81,126.13"/><path class="cls-2" d="M749.85,857.59s6.27-54.08,52.85-22.5c40.18,27.24,59.45,129.67,291.16,116.49"/><path class="cls-2" d="M759.37,864.93s6.12-44.56,44.58-15.74C834.07,871.76,851.74,969.5,1078.46,956"/><path class="cls-2" d="M768.89,872.27s6.18-35.33,36.31-9c20.23,17.69,36.13,111,257.86,97.22"/><path class="cls-2" d="M778.41,879.61s7.06-26.75,28-2.23C817.18,889.93,830.92,979,1047.66,965"/></g></svg>