<svg id="图层_1" data-name="图层 1" xmlns="http://www.w3.org/2000/svg" xmlns:xlink="http://www.w3.org/1999/xlink" viewBox="0 0 1920 1080"><defs><style>.cls-1{stroke:#9caf31;stroke-width:3px;fill:url(#未命名的渐变_23);}.cls-1,.cls-10{stroke-miterlimit:10;}.cls-2{fill:url(#未命名的渐变_50);}.cls-3{opacity:0;fill:url(#未命名的渐变_36);}.cls-4{opacity:0.1;fill:url(#未命名的渐变_36-2);}.cls-5{opacity:0.2;fill:url(#未命名的渐变_36-3);}.cls-6{opacity:0.3;fill:url(#未命名的渐变_36-4);}.cls-7{opacity:0.4;fill:url(#未命名的渐变_36-5);}.cls-8{opacity:0.5;fill:url(#未命名的渐变_36-6);}.cls-9{opacity:0.2;}.cls-10{fill:none;stroke:#9b928c;}.cls-11{fill:url(#未命名的渐变_66);}.cls-12{fill:url(#未命名的渐变_16);}.cls-13{fill:url(#未命名的渐变_64);}.cls-14{fill:url(#未命名的渐变_64-2);}.cls-15{fill:url(#未命名的渐变_66-2);}.cls-16{fill:#9caf31;}.cls-17{fill:url(#未命名的渐变_26);}.cls-18{fill:url(#未命名的渐变_73);}</style><linearGradient id="未命名的渐变_23" x1="1001.83" y1="836.54" x2="1001.83" y2="335.54" gradientUnits="userSpaceOnUse"><stop offset="0" stop-color="#bccc5c" stop-opacity="0"/><stop offset="0.25" stop-color="#bccc5b" stop-opacity="0.01"/><stop offset="0.41" stop-color="#baca59" stop-opacity="0.06"/><stop offset="0.53" stop-color="#b7c856" stop-opacity="0.14"/><stop offset="0.65" stop-color="#b4c451" stop-opacity="0.26"/><stop offset="0.75" stop-color="#afc04a" stop-opacity="0.41"/><stop offset="0.85" stop-color="#a9bb42" stop-opacity="0.6"/><stop offset="0.93" stop-color="#a2b439" stop-opacity="0.81"/><stop offset="1" stop-color="#9caf31"/></linearGradient><linearGradient id="未命名的渐变_50" x1="23.87" y1="586.04" x2="85.18" y2="586.04" gradientUnits="userSpaceOnUse"><stop offset="0" stop-color="#b2bf2e"/><stop offset="0.29" stop-color="#afbd2d"/><stop offset="0.52" stop-color="#a5b629"/><stop offset="0.72" stop-color="#95ab22"/><stop offset="0.91" stop-color="#7e9c18"/><stop offset="1" stop-color="#709312"/></linearGradient><linearGradient id="未命名的渐变_36" x1="117.19" y1="894.39" x2="1802.12" y2="894.39" gradientUnits="userSpaceOnUse"><stop offset="0" stop-color="#bccc5c"/><stop offset="0.29" stop-color="#b6c859"/><stop offset="0.66" stop-color="#a6bd51"/><stop offset="1" stop-color="#91af46"/></linearGradient><linearGradient id="未命名的渐变_36-2" x1="256.69" y1="901.04" x2="1666.18" y2="901.04" xlink:href="#未命名的渐变_36"/><linearGradient id="未命名的渐变_36-3" x1="396.24" y1="907.78" x2="1531.1" y2="907.78" xlink:href="#未命名的渐变_36"/><linearGradient id="未命名的渐变_36-4" x1="535.75" y1="914.43" x2="1398.68" y2="914.43" xlink:href="#未命名的渐变_36"/><linearGradient id="未命名的渐变_36-5" x1="675.22" y1="920.88" x2="1272.82" y2="920.88" xlink:href="#未命名的渐变_36"/><linearGradient id="未命名的渐变_36-6" x1="814.38" y1="921.39" x2="1157.7" y2="921.39" xlink:href="#未命名的渐变_36"/><linearGradient id="未命名的渐变_66" x1="35.37" y1="208.86" x2="73.68" y2="208.86" gradientUnits="userSpaceOnUse"><stop offset="0" stop-color="#4c4a3f"/><stop offset="0.25" stop-color="#504d3d"/><stop offset="0.48" stop-color="#5b5538"/><stop offset="0.71" stop-color="#6e6230"/><stop offset="0.92" stop-color="#887524"/><stop offset="1" stop-color="#937d1f"/></linearGradient><linearGradient id="未命名的渐变_16" x1="38.62" y1="187.04" x2="70.44" y2="187.04" gradientUnits="userSpaceOnUse"><stop offset="0" stop-color="#c1a530"/><stop offset="0.31" stop-color="#bda22f"/><stop offset="0.59" stop-color="#b2982a"/><stop offset="0.86" stop-color="#9f8824"/><stop offset="1" stop-color="#937d1f"/></linearGradient><linearGradient id="未命名的渐变_64" x1="21.45" y1="783.04" x2="87.6" y2="783.04" gradientUnits="userSpaceOnUse"><stop offset="0" stop-color="#9caf31"/><stop offset="0.31" stop-color="#9aad31"/><stop offset="0.49" stop-color="#94a432"/><stop offset="0.64" stop-color="#899734"/><stop offset="0.76" stop-color="#798337"/><stop offset="0.88" stop-color="#65693b"/><stop offset="0.98" stop-color="#4d4a3f"/><stop offset="1" stop-color="#484440"/></linearGradient><linearGradient id="未命名的渐变_64-2" x1="21.45" y1="800.04" x2="87.6" y2="800.04" xlink:href="#未命名的渐变_64"/><linearGradient id="未命名的渐变_66-2" x1="92.42" y1="790.54" x2="112.42" y2="790.54" xlink:href="#未命名的渐变_66"/><linearGradient id="未命名的渐变_26" x1="1804.5" y1="585.54" x2="1919" y2="585.54" gradientUnits="userSpaceOnUse"><stop offset="0" stop-color="#bccc5c" stop-opacity="0"/><stop offset="0.32" stop-color="#bbcb5b" stop-opacity="0.01"/><stop offset="0.51" stop-color="#b8c857" stop-opacity="0.06"/><stop offset="0.67" stop-color="#b3c450" stop-opacity="0.14"/><stop offset="0.81" stop-color="#abbd46" stop-opacity="0.26"/><stop offset="0.94" stop-color="#a2b439" stop-opacity="0.41"/><stop offset="1" stop-color="#9caf31" stop-opacity="0.5"/></linearGradient><linearGradient id="未命名的渐变_73" x1="85.5" y1="585.54" x2="622.66" y2="585.54" gradientUnits="userSpaceOnUse"><stop offset="0" stop-color="#9caf31" stop-opacity="0.5"/><stop offset="0.06" stop-color="#a2b439" stop-opacity="0.41"/><stop offset="0.19" stop-color="#abbd46" stop-opacity="0.26"/><stop offset="0.33" stop-color="#b3c450" stop-opacity="0.14"/><stop offset="0.49" stop-color="#b8c857" stop-opacity="0.06"/><stop offset="0.68" stop-color="#bbcb5b" stop-opacity="0.01"/><stop offset="1" stop-color="#bccc5c" stop-opacity="0"/></linearGradient></defs><rect class="cls-1" x="85.16" y="335.54" width="1833.34" height="501"/><rect class="cls-2" x="23.87" y="230.04" width="61.31" height="712" rx="12.8"/><path class="cls-3" d="M1784.62,978.74c-89.84,116.79-652.22,28.75-898.37,66.48-346.36,53.09-711.51-75.46-763.62-197.64-72.85-170.84,600.12,97,1164.29-82.65C1661.89,645.51,1865.24,873.93,1784.62,978.74Z"/><path class="cls-4" d="M1656,963.29c-60.16,97.51-531.07,26.88-751.39,61.45C616,1069.37,302.67,964.38,261,863.39c-58.28-139.92,487.78,73.48,963.42-68.63C1547.85,698.11,1709.91,875.86,1656,963.29Z"/><path class="cls-5" d="M1527.33,947.84c-30.44,78.16-409.86,25.46-604.43,56.42-230.73,36.71-492-45.38-523.57-125.06C356.06,770,774.94,929.44,1161.87,824.58,1433.91,750.86,1554.63,877.73,1527.33,947.84Z"/><path class="cls-6" d="M1398.68,932.39C1398,991,1110,956.13,941.23,983.77,768.29,1012.1,559,953.47,537.68,895c-28.53-78.31,263.7,27.57,561.66-40.6C1320.14,803.89,1399.33,879.38,1398.68,932.39Z"/><path class="cls-7" d="M1270,916.93c28.49,38.84-167.54,21.87-310.47,46.36C844.37,983,687,948.11,676,910.82c-13.91-47.37,152.18,6,360.79-26.59C1206.64,857.66,1243.59,880.88,1270,916.93Z"/><path class="cls-8" d="M1141.39,901.48c57.49,19.77-46.51,19.39-163.51,41.33-57.49,10.78-163.5.08-163.5-16.17s40.87-12.58,159.91-12.58S1087.65,883,1141.39,901.48Z"/><g class="cls-9"><path class="cls-10" d="M1918.49,591.56s-89.3-194.6-195.33-192.25c-161.85,3.6-14.88,239-292.07,206.63-190-22.17-506.56,235-506.56,235"/><path class="cls-10" d="M1918.23,602.69s-88.52-186-192.8-184.59c-103.31,1.71-79.25,98.93-126,155.85-24.57,29.91-69.28,48.8-161.46,38-186-21.79-493.34,224.57-496.15,224.44"/><path class="cls-10" d="M1918,613.81s-87.73-177.7-190.25-176.92c-100.39.77-79.12,93.3-125.15,146.3-24.33,28-68.58,45.26-157.69,34.81-182-21.42-480.12,214.16-485.74,213.9"/><path class="cls-10" d="M1917.7,624.93s-87-169.23-187.72-169.24c-97.46,0-79,87.68-124.31,136.73-24.11,26.12-67.86,41.73-153.92,31.61-177.93-21-466.89,203.75-475.32,203.35"/><path class="cls-10" d="M1917.43,636.05s-86.16-160.75-185.18-161.57c-94.52-.79-79,82.07-123.46,127.18-23.92,24.24-67.16,38.19-150.15,28.4C1284.74,609.4,1005,823.39,993.73,822.86"/><path class="cls-10" d="M1917.16,647.18S1831.8,494.9,1734.53,493.27c-91.6-1.54-79,76.48-122.62,117.62-23.77,22.4-66.45,34.67-146.38,25.2C1295.65,615.81,1025.08,819,1011,818.35"/><path class="cls-10" d="M1916.9,658.3s-84.57-143.78-180.1-146.24c-88.66-2.28-79,70.89-121.78,108.07-23.64,20.57-65.74,31.13-142.6,22-165.85-19.9-427.23,172.5-444.08,171.71"/><path class="cls-10" d="M1916.63,669.42s-83.77-135.28-177.56-138.57c-85.72-3-79.2,65.3-120.93,98.51-23.57,18.76-65,27.6-138.84,18.8-161.82-19.53-414,162.08-433.66,161.15"/><path class="cls-10" d="M1916.37,680.55s-83-126.77-175-130.91c-82.79-3.73-79.46,59.68-120.1,89-23.54,17-64.32,24.06-135.06,15.59C1328.4,635,1085.4,805.86,1062.94,804.8"/><path class="cls-10" d="M1916.1,691.67s-82.17-118.23-172.48-123.24c-79.85-4.42-79.82,54-119.25,79.41-23.57,15.17-63.61,20.52-131.29,12.38-153.77-18.78-387.57,141.25-412.84,140.06"/><path class="cls-10" d="M1915.84,702.79s-81.37-109.68-169.95-115.57c-76.91-5.11-80.29,48.31-118.4,69.85-23.68,13.38-62.91,17-127.52,9.18-149.74-18.4-374.35,130.84-402.43,129.51"/><path class="cls-10" d="M1915.57,713.91S1835,612.79,1748.17,606c-74-5.77-80.91,42.51-117.57,60.3-23.85,11.57-62.19,13.45-123.74,6-145.71-18-361.13,120.42-392,119"/><path class="cls-10" d="M1915.3,725s-79.75-92.54-164.86-100.24c-71-6.42-81.64,36.6-116.72,50.74-24.1,9.72-61.49,9.92-120,2.77-141.68-17.64-347.9,110-381.6,108.42"/><path class="cls-10" d="M1915,736.16s-79-83.94-162.33-92.56c-68.09-7.05-82.48,30.52-115.87,41.18-24.42,7.79-60.78,6.38-116.21-.44C1383,667.08,1186,783.94,1149.44,782.22"/><path class="cls-10" d="M1914.77,747.28S1836.62,672,1755,662.39c-65.17-7.66-83.43,24.28-115,31.62-24.8,5.77-60.07,2.86-112.43-3.64-133.63-16.89-321.46,89.18-360.78,87.33"/><path class="cls-10" d="M1914.51,758.4s-77.36-66.64-157.25-77.22c-62.23-8.24-84.42,17.84-114.19,22.07-25.23,3.58-59.36-.68-108.66-6.84-129.6-16.52-308.24,78.76-350.37,76.77"/><path class="cls-10" d="M1914.24,769.53s-76.57-58-154.71-69.56c-59.3-8.8-85.42,11.19-113.34,12.51-25.67,1.22-58.66-4.21-104.9-10-125.57-16.14-295,68.34-340,66.23"/><path class="cls-10" d="M1914,780.65s-75.79-49.24-152.17-61.89c-56.38-9.34-86.35,4.36-112.51,3s-57.94-7.75-101.12-13.25c-121.54-15.76-281.8,57.93-329.54,55.68"/><path class="cls-10" d="M1913.71,791.77s-75-40.47-149.63-54.22c-53.46-9.85-87.12-2.63-111.66-6.6-26.29-4.24-57.24-11.28-97.35-16.45-117.52-15.38-268.58,47.51-319.13,45.13"/><path class="cls-10" d="M1913.44,802.89s-74.25-31.65-147.09-46.55c-50.55-10.34-87.69-9.72-110.81-16.15-26.36-7.32-56.53-14.82-93.58-19.66-113.49-15-255.36,37.1-308.71,34.59"/><path class="cls-10" d="M1913.18,814s-73.52-22.79-144.55-38.89c-47.67-10.8-88-16.84-110-25.7-26.17-10.56-55.82-18.36-89.81-22.87-109.46-14.63-242.13,26.69-298.29,24"/><path class="cls-10" d="M1912.91,825.14s-197.52-37.61-251.14-66.48c-113.48-61.09-297.65-9-373.92-12.58"/><path class="cls-10" d="M1252.5,629.3s-20.92-97.25-184.17-35.94c-200.91,75.46-435.31,125.77-573,93.43"/><path class="cls-10" d="M1242.5,635.13s-19.85-91.28-173.82-33.46C879.08,672.87,655.39,724.43,513,692.18"/><path class="cls-10" d="M1232.5,641s-18.77-85.31-163.47-31C890.74,676.91,677.77,729.73,530.7,697.57"/><path class="cls-10" d="M1222.5,646.81s-17.7-79.35-153.12-28.52C902.41,681,700.14,735,548.37,703"/><path class="cls-10" d="M1212.5,652.65s-16.62-73.38-142.78-26C914.07,685,722.52,740.32,566,708.35"/><path class="cls-10" d="M1202.5,658.49s-15.54-67.42-132.43-23.58C925.74,689,744.9,745.62,583.72,713.74"/><path class="cls-10" d="M1192.51,664.33s-14.48-61.45-122.09-21.11c-133,49.86-303.15,107.69-469,75.91"/><path class="cls-10" d="M1182.51,670.17s-13.4-55.49-111.74-18.64c-121.7,45.6-281.12,104.68-451.71,73"/><path class="cls-10" d="M1172.51,676s-12.33-49.52-101.39-16.17C960.73,701.17,812,761.51,636.74,729.91"/><path class="cls-10" d="M1162.51,681.85s-11.25-43.56-91-13.7C972.4,705.21,834.4,766.8,654.41,735.3"/><path class="cls-10" d="M1152.51,687.69s-10.17-37.59-80.69-11.23c-87.76,32.79-215,95.64-399.74,64.23"/><path class="cls-10" d="M1142.51,693.53s-9.1-31.63-70.34-8.76c-76.44,28.53-193,92.63-382.42,61.31"/><path class="cls-10" d="M1132.51,699.37s-8-25.66-60-6.29c-65.12,24.26-171,89.61-365.08,58.39"/><path class="cls-10" d="M1122.51,705.21s-7-19.7-49.65-3.82c-53.8,20-148.95,86.6-347.76,55.47"/><path class="cls-10" d="M1112.51,711.05s-5.87-13.73-39.3-1.35c-42.49,15.73-126.93,83.59-330.44,52.55"/><path class="cls-10" d="M1102.51,716.89s-4.79-7.77-29,1.12c-31.17,11.46-104.9,80.57-313.11,49.63"/><path class="cls-10" d="M1092.51,722.73s-3.72-1.8-18.6,3.59C1054.05,733.51,991,803.88,778.12,773"/><path class="cls-10" d="M79.75,373.3c243.7,168.9,326.44,272.07,326.44,272.07"/><path class="cls-10" d="M81,387.08c52.74,36.55,110.27,69.69,152.07,102.51C367.24,595,424,656,431.66,653.72"/><path class="cls-10" d="M82.23,400.85c50.11,34.73,118.1,66,162,100.51C377.7,606.16,441.72,666.52,457.13,662.07"/><path class="cls-10" d="M83.47,414.63c47.47,32.9,125.92,62.35,172,98.5,132.74,104.22,204.05,164,227.18,157.29"/><path class="cls-10" d="M84.71,428.4c44.83,31.07,133.75,58.68,181.91,96.5,132,103.65,210.63,162.77,241.46,153.87"/><path class="cls-10" d="M86,442.18c42.19,29.24,141.57,55,191.85,94.48C409.09,639.75,495,698.24,533.55,687.12"/><path class="cls-10" d="M87.19,456c39.56,27.42,149.4,51.33,201.8,92.48,130.56,102.51,223.78,160.38,270,147"/><path class="cls-10" d="M88.43,469.73c36.92,25.59,157.22,47.66,211.75,90.47C430,662.14,530.54,719.39,584.49,703.81"/><path class="cls-10" d="M89.67,483.5c34.28,23.76,165.05,44,221.69,88.47C440.47,673.34,548.3,730,610,712.16"/><path class="cls-10" d="M90.91,497.28c31.65,21.93,172.87,40.31,231.64,86.45,128.38,100.8,243.52,156.8,312.88,136.78"/><path class="cls-10" d="M92.15,511.05c29,20.11,180.7,36.64,241.59,84.45C461.39,695.73,583.83,751.11,660.9,728.86"/><path class="cls-10" d="M93.39,524.83c26.37,18.28,188.52,33,251.53,82.44,126.93,99.66,256.67,154.41,341.45,129.94"/><path class="cls-10" d="M94.63,538.6C118.37,555.05,291,567.9,356.11,619c126.2,99.09,263.25,153.21,355.73,126.52"/><path class="cls-10" d="M95.87,552.38C117,567,300,578,367.3,630.8c125.47,98.52,269.82,152,370,123.11"/><path class="cls-10" d="M97.11,566.15c18.46,12.8,212,22,281.37,76.42,124.75,97.95,276.4,150.83,384.3,119.68"/><path class="cls-10" d="M98.35,579.93c15.83,11,219.82,18.27,291.32,74.41,124,97.38,283,149.63,398.58,116.26"/><path class="cls-10" d="M99.59,593.7c13.19,9.14,227.65,14.6,301.27,72.41C524.15,762.91,690.41,814.54,813.72,779"/><path class="cls-10" d="M100.83,607.48C111.38,614.79,336.3,618.4,412,677.87,534.61,774.11,708.17,825.12,839.19,787.3"/><path class="cls-10" d="M102.07,621.25c7.91,5.49,243.3,7.26,321.16,68.39,121.84,95.67,302.71,146.05,441.43,106"/><path class="cls-10" d="M103.31,635c5.28,3.66,251.12,3.58,331.1,66.38C555.53,796.5,743.7,846.26,890.13,804"/><path class="cls-10" d="M104.55,648.8c2.64,1.83,258.94-.09,341.05,64.37C566,807.7,761.46,856.84,915.6,812.34"/><path class="cls-10" d="M105.79,662.58s266.77-3.77,351,62.36c119.66,94,322.44,142.47,484.29,95.75"/><path class="cls-10" d="M79.16,372.76S94.53,66.51,355.85,182.28C664,318.82,725.28,576.34,1166.17,565.56"/><path class="cls-10" d="M92.22,382.47s15.1-293.36,265.34-181.56C651.77,331.74,711,582.6,1145.05,571.45"/><path class="cls-10" d="M105.27,392.17s14.83-280.46,254-172.62c280.24,125.11,337.45,369.32,764.66,357.8"/><path class="cls-10" d="M118.33,401.87S132.59,135,361,238.18c265.91,120.17,321.44,357,741.82,345.06"/><path class="cls-10" d="M131.39,411.58S145.28,157.79,362.7,256.82c251.83,114.69,305.45,344.57,719,332.32"/><path class="cls-10" d="M144.44,421.28S158,180.6,364.41,275.45C602.15,384.67,653.87,607.66,1060.57,595"/><path class="cls-10" d="M157.5,431s13.15-227.58,208.62-136.91c223.66,103.75,273.47,319.84,673.33,306.85"/><path class="cls-10" d="M170.56,440.69s12.77-214.47,197.28-128C577.41,411,625.31,620.19,1018.33,606.83"/><path class="cls-10" d="M183.62,450.39S196,249,369.55,331.35C565,424.1,611,626.45,997.21,612.72"/><path class="cls-10" d="M196.67,460.1s12-188.29,174.59-110.11c181.42,87.23,225.49,282.73,604.83,268.63"/><path class="cls-10" d="M209.73,469.8S221.37,294.6,373,368.62C540.31,450.33,582.47,639,955,624.51"/><path class="cls-10" d="M222.79,479.51s11.26-162.13,151.9-92.26c153.27,76.16,193.5,258,559.16,243.16"/><path class="cls-10" d="M235.84,489.21s10.89-149.07,140.56-83.32c139.2,70.58,177.5,245.62,536.33,230.42"/><path class="cls-10" d="M248.9,498.91s10.5-136,129.21-74.39c125.15,65,161.51,233.26,513.5,217.68"/><path class="cls-10" d="M262,508.62s10.12-123,117.86-65.46C490.93,502.5,525.34,664,870.49,648.1"/><path class="cls-10" d="M275,518.32s9.74-110,106.51-56.53C478.61,515.44,511.06,670.3,849.37,654"/><path class="cls-10" d="M288.07,528s9.37-97.08,95.18-47.61c83.06,47.9,113.53,196.15,445,179.47"/><path class="cls-10" d="M301.13,537.73s9-84.2,83.83-38.67c69.09,42,97.54,183.77,422.17,166.73"/><path class="cls-10" d="M314.19,547.43s8.69-71.43,72.48-29.74c55.18,36.07,81.55,171.41,399.34,154"/><path class="cls-10" d="M327.25,557.14s8.47-58.86,61.13-20.81c41.38,29.88,65.56,159,376.51,141.25"/><path class="cls-10" d="M340.3,566.84s8.54-46.65,49.8-11.88c27.78,23.42,49.55,146.67,353.67,128.51"/><path class="cls-10" d="M353.36,576.55s9.68-35.37,38.45-2.95c14.72,16.58,33.56,134.29,330.84,115.77"/></g><rect class="cls-11" x="35.37" y="196.18" width="38.31" height="25.36" rx="7.23"/><rect class="cls-12" x="38.62" y="182.54" width="31.82" height="9" rx="4.5"/><rect class="cls-13" x="21.45" y="776.54" width="66.15" height="13" rx="4.11"/><rect class="cls-14" x="21.45" y="793.54" width="66.15" height="13" rx="4.11"/><rect class="cls-15" x="92.42" y="776.54" width="20" height="28" rx="5.09"/><rect class="cls-16" x="100.42" y="804.54" width="4" height="89"/><rect class="cls-17" x="1804.5" y="335.04" width="114.5" height="501"/><rect class="cls-18" x="85.5" y="335.04" width="537.16" height="501"/><rect class="cls-16" x="98.03" y="890.62" width="8.79" height="8.25" rx="4.13"/><path class="cls-16" d="M110.36,927.54H94.49c-2.8,0-4.88-1.92-4.28-3.95l6.26-20.87c.45-1.49,2.22-2.54,4.27-2.54h2.46c2,0,3.75,1,4.25,2.44l7.15,20.87C115.3,925.55,113.21,927.54,110.36,927.54Z"/></svg>