<svg xmlns="http://www.w3.org/2000/svg" xmlns:xlink="http://www.w3.org/1999/xlink" viewBox="0 0 1921 990.89"><defs><style>.cls-1{stroke:#9caf31;stroke-width:3px;fill:url(#未命名的渐变_23);}.cls-1,.cls-10,.cls-12{stroke-miterlimit:10;}.cls-2{fill:url(#未命名的渐变_36);}.cls-3{opacity:0;fill:url(#未命名的渐变_36-2);}.cls-4{opacity:0.1;fill:url(#未命名的渐变_36-3);}.cls-5{opacity:0.2;fill:url(#未命名的渐变_36-4);}.cls-6{opacity:0.3;fill:url(#未命名的渐变_36-5);}.cls-7{opacity:0.4;fill:url(#未命名的渐变_36-6);}.cls-8,.cls-9{opacity:0.5;}.cls-8{fill:url(#未命名的渐变_36-7);}.cls-10{fill:none;stroke:#9b928c;}.cls-11{fill:#91af46;}.cls-12{fill:#f9f5f2;stroke:#91af46;stroke-width:2px;}.cls-13{fill:#538234;}.cls-14{fill:url(#未命名的渐变_26);}</style><linearGradient id="未命名的渐变_23" x1="1031" y1="709.9" x2="1031" y2="208.9" gradientUnits="userSpaceOnUse"><stop offset="0" stop-color="#bccc5c" stop-opacity="0"/><stop offset="0.25" stop-color="#bccc5b" stop-opacity="0.01"/><stop offset="0.41" stop-color="#baca59" stop-opacity="0.06"/><stop offset="0.53" stop-color="#b7c856" stop-opacity="0.14"/><stop offset="0.65" stop-color="#b4c451" stop-opacity="0.26"/><stop offset="0.75" stop-color="#afc04a" stop-opacity="0.41"/><stop offset="0.85" stop-color="#a9bb42" stop-opacity="0.6"/><stop offset="0.93" stop-color="#a2b439" stop-opacity="0.81"/><stop offset="1" stop-color="#9caf31"/></linearGradient><linearGradient id="未命名的渐变_36" y1="459.4" x2="110" y2="459.4" gradientUnits="userSpaceOnUse"><stop offset="0" stop-color="#bccc5c"/><stop offset="0.29" stop-color="#b6c859"/><stop offset="0.66" stop-color="#a6bd51"/><stop offset="1" stop-color="#91af46"/></linearGradient><linearGradient id="未命名的渐变_36-2" x1="118.69" y1="827.75" x2="1803.62" y2="827.75" xlink:href="#未命名的渐变_36"/><linearGradient id="未命名的渐变_36-3" x1="258.18" y1="834.4" x2="1667.68" y2="834.4" xlink:href="#未命名的渐变_36"/><linearGradient id="未命名的渐变_36-4" x1="397.74" y1="841.14" x2="1532.6" y2="841.14" xlink:href="#未命名的渐变_36"/><linearGradient id="未命名的渐变_36-5" x1="537.24" y1="847.8" x2="1400.18" y2="847.8" xlink:href="#未命名的渐变_36"/><linearGradient id="未命名的渐变_36-6" x1="676.71" y1="854.24" x2="1274.32" y2="854.24" xlink:href="#未命名的渐变_36"/><linearGradient id="未命名的渐变_36-7" x1="815.87" y1="854.75" x2="1159.2" y2="854.75" xlink:href="#未命名的渐变_36"/><linearGradient id="未命名的渐变_26" x1="1805.5" y1="458.9" x2="1920" y2="458.9" gradientUnits="userSpaceOnUse"><stop offset="0" stop-color="#bccc5c" stop-opacity="0"/><stop offset="0.32" stop-color="#bbcb5b" stop-opacity="0.01"/><stop offset="0.51" stop-color="#b8c857" stop-opacity="0.06"/><stop offset="0.67" stop-color="#b3c450" stop-opacity="0.14"/><stop offset="0.81" stop-color="#abbd46" stop-opacity="0.26"/><stop offset="0.94" stop-color="#a2b439" stop-opacity="0.41"/><stop offset="1" stop-color="#9caf31" stop-opacity="0.5"/></linearGradient></defs><g id="图层_2" data-name="图层 2"><g id="图层_1-2" data-name="图层 1"><rect class="cls-1" x="142.5" y="208.9" width="1777" height="501"/><rect class="cls-2" y="103.4" width="110" height="712" rx="12.8"/><path class="cls-3" d="M1786.12,912.1c-89.84,116.79-652.22,28.75-898.38,66.48-346.36,53.1-711.51-75.46-763.61-197.64C51.27,610.1,724.24,878,1288.42,698.29,1663.39,578.88,1866.74,807.3,1786.12,912.1Z"/><path class="cls-4" d="M1657.47,896.65c-60.16,97.52-531.08,26.88-751.4,61.45-288.59,44.63-601.91-60.35-643.59-161.35-58.29-139.92,487.77,73.48,963.41-68.63C1549.34,631.48,1711.41,809.23,1657.47,896.65Z"/><path class="cls-5" d="M1528.82,881.2c-30.43,78.16-409.86,25.46-604.42,56.42-230.73,36.71-492-45.37-523.57-125.06-43.28-109.17,375.6,50.24,762.54-54.62C1435.41,684.22,1556.12,811.09,1528.82,881.2Z"/><path class="cls-6" d="M1400.18,865.75c-.73,58.59-288.69,23.74-457.45,51.39-173,28.33-382.25-30.31-403.55-88.76-28.54-78.32,263.7,27.56,561.66-40.61C1321.64,737.25,1400.83,812.75,1400.18,865.75Z"/><path class="cls-7" d="M1271.53,850.3C1300,889.13,1104,872.17,961.05,896.65c-115.18,19.74-272.58-15.18-283.52-52.46-13.91-47.37,152.18,6,360.78-26.59C1208.13,791,1245.09,814.25,1271.53,850.3Z"/><path class="cls-8" d="M1142.88,834.84c57.5,19.77-46.51,19.39-163.5,41.33-57.5,10.78-163.51.08-163.51-16.17s40.88-12.58,159.92-12.58S1089.15,816.37,1142.88,834.84Z"/><g class="cls-9"><path class="cls-10" d="M1919.51,435.93s-86.26-194.61-188.66-192.25c-156.31,3.59-14.37,239-282.09,206.62-183.52-22.17-489.25,235-489.25,235"/><path class="cls-10" d="M1919.25,447.05s-85.52-186-186.24-184.59c-98.31,1.68-77.22,96-119.75,153.24-23.3,31.36-66.35,51.71-157.89,40.63-179.62-21.78-476.44,224.58-479.15,224.45"/><path class="cls-10" d="M1919,458.17s-84.8-177.7-183.83-176.93c-95.55.74-77,90.46-119,143.83-23.09,29.35-65.73,48-154.2,37.28C1286.26,441,998.34,676.52,992.93,676.26"/><path class="cls-10" d="M1918.74,469.29S1834.68,300.05,1737.32,300c-92.77,0-76.84,84.94-118.23,134.41-22.89,27.37-65.09,44.33-150.5,33.95-171.82-21-450.83,203.76-458.95,203.36"/><path class="cls-10" d="M1918.48,480.42s-83.32-160.78-179-161.62c-90-.79-76.71,79.44-117.47,125-22.73,25.4-64.47,40.64-146.81,30.6-167.92-20.6-438,193.35-448.85,192.83"/><path class="cls-10" d="M1918.23,491.54s-82.58-152.3-176.59-154c-87.23-1.54-76.63,74-116.72,115.58-22.59,23.46-63.84,37-143.11,27.27-164-20.21-425.23,182.94-438.75,182.28"/><path class="cls-10" d="M1918,502.66s-81.84-143.81-174.17-146.3c-84.46-2.28-76.61,68.49-116,106.17-22.49,21.53-63.22,33.27-139.43,23.92C1328.29,466.63,1076,659,1059.77,658.19"/><path class="cls-10" d="M1917.71,513.79S1836.62,378.48,1746,375.14c-81.69-3-76.67,63-115.21,96.76-22.43,19.63-62.59,29.58-135.73,20.58-156.22-19.43-399.61,162.12-418.54,161.2"/><path class="cls-10" d="M1917.46,524.91s-80.35-126.8-169.35-131c-78.9-3.71-76.81,57.54-114.44,87.34-22.42,17.75-62,25.9-132,17.24-152.32-19-386.81,151.72-408.44,150.66"/><path class="cls-10" d="M1917.2,536s-79.6-118.27-166.93-123.32c-76.12-4.41-77.06,52-113.69,77.92-22.47,15.88-61.33,22.2-128.34,13.9-148.42-18.65-374,141.3-398.34,140.11"/><path class="cls-10" d="M1916.94,547.15s-78.84-109.73-164.51-115.66C1679.08,426.4,1675,478,1639.5,500c-22.6,14-60.71,18.51-124.65,10.55-144.53-18.25-361.2,130.9-388.24,129.58"/><path class="cls-10" d="M1916.69,558.28s-78.1-101.18-162.1-108c-70.57-5.75-77.94,40.85-112.18,59.09-22.79,12.14-60.08,14.83-121,7.22-140.63-17.86-348.4,120.48-378.14,119"/><path class="cls-10" d="M1916.43,569.4s-77.35-92.59-159.69-100.35c-67.78-6.39-78.58,35.12-111.41,49.68-23.07,10.23-59.46,11.14-117.26,3.87-136.73-17.47-335.59,110.08-368,108.49"/><path class="cls-10" d="M1916.17,580.52s-76.59-84-157.27-92.69c-65-7-79.35,29.24-110.66,40.26-23.43,8.26-58.83,7.46-113.57.54-132.82-17.08-322.78,99.66-357.93,98"/><path class="cls-10" d="M1915.92,591.64s-75.85-75.36-154.86-85c-62.23-7.61-82.07,18-109.9,30.85-24.59,1.8-58.2,3.76-109.88-2.81-128.92-16.68-310,89.26-347.83,87.41"/><path class="cls-10" d="M1915.66,602.77s-75.11-66.72-152.44-77.38c-59.46-8.19-82.4,12-109.15,21.44-24.66-.46-57.57.07-106.18-6.15-125-16.29-297.17,78.84-337.73,76.87"/><path class="cls-10" d="M1915.4,613.89s-74.37-58-150-69.72c-56.68-8.75-82.09,10.46-108.38,12-24.85,1.48-57-3.61-102.49-9.49-121.13-15.9-284.37,68.44-327.63,66.33"/><path class="cls-10" d="M1915.15,625S1841.51,575.7,1767.53,563c-53.92-9.29-83,3.79-107.63,2.61-25.28-1.21-56.32-7.3-98.79-12.83-117.23-15.51-271.56,58-317.53,55.78"/><path class="cls-10" d="M1914.89,636.14s-72.92-40.56-145.2-54.4c-51.17-9.81-83.68-3-106.88-6.81-25.57-4.16-55.69-11-95.09-16.18C1454.39,543.64,1309,606.37,1260.29,604"/><path class="cls-10" d="M1914.63,647.26s-72.22-31.75-142.78-46.74c-48.42-10.29-84.18-10-106.12-16.23-25.68-7.33-55.06-14.67-91.4-19.51-109.43-14.73-246,37.21-297.34,34.7"/><path class="cls-10" d="M1914.38,658.38S1842.84,635.49,1774,619.3c-45.68-10.75-84.4-16.9-105.36-25.64-25.52-10.65-54.43-18.37-87.71-22.86-105.52-14.33-233.14,26.8-287.23,24.16"/><path class="cls-10" d="M1914.12,669.5S1723.35,631.89,1671.56,603c-109.6-61.09-287.48-9-361.15-12.57"/><path class="cls-10" d="M1276.28,473.66s-20.21-97.25-177.88-35.94C904.35,513.19,678,563.5,545,531.15"/><path class="cls-10" d="M1266.62,479.5s-19.17-91.29-167.89-33.47c-183.11,71.2-399.16,122.76-536.66,90.51"/><path class="cls-10" d="M1257,485.34s-18.13-85.32-157.89-31c-172.19,66.93-377.89,119.75-519.93,87.59"/><path class="cls-10" d="M1247.3,491.18s-17.09-79.36-147.89-28.53c-161.26,62.67-356.61,116.74-503.2,84.67"/><path class="cls-10" d="M1237.65,497s-16.06-73.39-137.9-26.06c-150.34,58.4-335.34,113.72-486.47,81.75"/><path class="cls-10" d="M1228,502.86s-15-67.43-127.91-23.59C960.68,533.4,786,590,630.35,558.11"/><path class="cls-10" d="M1218.33,508.69s-14-61.45-117.91-21.11c-128.47,49.86-292.79,107.7-453,75.92"/><path class="cls-10" d="M1208.67,514.53s-12.94-55.49-107.91-18.64c-117.55,45.6-271.52,104.68-436.28,73"/><path class="cls-10" d="M1199,520.37s-11.91-49.52-97.93-16.17c-106.61,41.33-250.24,101.67-419.54,70.08"/><path class="cls-10" d="M1189.36,526.21s-10.86-43.55-87.93-13.7c-95.69,37.06-229,98.66-402.81,67.16"/><path class="cls-10" d="M1179.7,532.05s-9.82-37.59-77.93-11.23c-84.76,32.8-207.69,95.64-386.08,64.24"/><path class="cls-10" d="M1170,537.89s-8.78-31.62-67.94-8.76c-73.82,28.53-186.41,92.63-369.34,61.32"/><path class="cls-10" d="M1160.39,543.73s-7.75-25.66-58-6.29c-62.9,24.26-165.14,89.62-352.61,58.4"/><path class="cls-10" d="M1150.73,549.57s-6.71-19.69-48-3.82c-52,20-143.87,86.6-335.88,55.48"/><path class="cls-10" d="M1141.07,555.41s-5.67-13.73-38-1.35c-41,15.73-122.59,83.59-319.14,52.56"/><path class="cls-10" d="M1131.41,561.25s-4.63-7.76-28,1.12C1073.34,573.83,1002.14,643,801,612"/><path class="cls-10" d="M1121.76,567.09s-3.6-1.8-18,3.59c-19.18,7.2-80,77.56-285.68,46.72"/><path class="cls-10" d="M143.6,217.67C379,386.56,458.89,489.74,458.89,489.74"/><path class="cls-10" d="M144.8,231.44c51,36.61,106.62,69.79,147,102.64,129.49,105.29,184.23,166.23,191.67,164"/><path class="cls-10" d="M146,245.22C194.46,280,260.17,311.33,302.62,345.84c128.79,104.72,190.58,165,205.47,160.59"/><path class="cls-10" d="M147.19,259c45.91,32.94,121.73,62.43,166.22,98.61,128.1,104.16,197,163.86,219.28,157.18"/><path class="cls-10" d="M148.39,272.77c43.36,31.11,129.28,58.75,175.82,96.59C451.61,473,527.52,532,557.29,523.13"/><path class="cls-10" d="M149.59,286.54C190.4,315.82,286.42,341.62,335,381.12c126.7,103,209.66,161.48,246.88,150.36"/><path class="cls-10" d="M150.79,300.32c38.26,27.45,144.38,51.39,195,92.56,126,102.46,216,160.3,260.69,147"/><path class="cls-10" d="M152,314.09c35.7,25.62,151.93,47.72,204.61,90.56C481.91,506.54,579,563.75,631.09,548.18"/><path class="cls-10" d="M153.18,327.87c33.16,23.79,159.49,44,214.22,88.54C492,517.73,596.14,574.32,655.69,556.53"/><path class="cls-10" d="M154.38,341.64c30.61,22,167,40.37,223.81,86.53,123.93,100.76,235.11,156.72,302.1,136.7"/><path class="cls-10" d="M155.58,355.42c28,20.13,174.58,36.68,233.41,84.51,123.23,100.19,241.46,155.54,315.9,133.29"/><path class="cls-10" d="M156.78,369.19c25.5,18.3,182.13,33,243,82.5C522.32,551.31,647.61,606,729.49,581.57"/><path class="cls-10" d="M158,383c23,16.47,189.69,29.33,252.61,80.48,121.84,99.06,254.19,153.16,343.51,126.47"/><path class="cls-10" d="M159.17,396.74c20.41,14.64,197.24,25.66,262.21,78.47,121.14,98.49,260.54,152,357.31,123.06"/><path class="cls-10" d="M160.37,410.52c17.85,12.81,204.79,22,271.81,76.46,120.44,97.92,266.9,150.78,371.11,119.64"/><path class="cls-10" d="M161.57,424.29c15.3,11,212.34,18.3,281.4,74.45C562.72,596.09,716.24,648.33,827.89,615"/><path class="cls-10" d="M162.77,438.07c12.75,9.15,219.89,14.62,291,72.43,119.06,96.79,279.62,148.41,398.72,112.81"/><path class="cls-10" d="M164,451.84c10.21,7.32,227.45,11,300.61,70.42,118.36,96.22,286,147.22,412.52,109.4"/><path class="cls-10" d="M165.16,465.62c7.65,5.49,235,7.26,310.2,68.4,117.67,95.66,292.35,146,426.33,106"/><path class="cls-10" d="M166.36,479.39c5.1,3.66,242.55,3.59,319.8,66.39,117,95.09,298.7,144.85,440.13,102.58"/><path class="cls-10" d="M167.56,493.17c2.55,1.83,250.1-.09,329.4,64.37C613.23,652.06,802,701.2,950.89,656.71"/><path class="cls-10" d="M168.75,506.94s257.66-3.76,339,62.37c115.58,94,311.43,142.46,467.74,95.75"/><path class="cls-10" d="M143,217.13S157.88-89.13,410.26,26.64C707.92,163.18,767.07,420.7,1192.9,409.92"/><path class="cls-10" d="M155.64,226.83S170.23-66.53,411.92,45.28C696.07,176.1,753.28,427,1172.5,415.81"/><path class="cls-10" d="M168.25,236.53S182.58-43.92,413.57,63.91C684.23,189,739.48,433.23,1152.1,421.71"/><path class="cls-10" d="M180.86,246.24S194.62-20.67,415.23,82.55C672,202.7,725.69,439.49,1131.7,427.61"/><path class="cls-10" d="M193.47,255.94s13.4-253.8,223.41-154.76c243.2,114.69,295,344.58,694.42,332.32"/><path class="cls-10" d="M206.09,265.65s13-240.7,212.44-145.84C648.12,229,698.1,452,1090.91,439.4"/><path class="cls-10" d="M218.7,275.35s12.66-227.59,201.49-136.9c216,103.72,264.12,319.84,650.32,306.84"/><path class="cls-10" d="M231.31,285.05s12.29-214.49,190.53-128c202.37,98.23,248.68,307.47,628.27,294.11"/><path class="cls-10" d="M243.92,294.76s11.92-201.4,179.58-119c188.76,92.72,233.22,295.1,606.21,281.37"/><path class="cls-10" d="M256.53,304.46s11.56-188.31,168.62-110.11C600.31,281.56,642.93,477.08,1009.31,463"/><path class="cls-10" d="M269.14,314.17S280.33,138.94,426.8,213c161.57,81.68,202.34,270.36,562.11,255.9"/><path class="cls-10" d="M281.75,323.87s10.81-162.16,146.71-92.25c148,76.12,186.89,258,540.06,243.15"/><path class="cls-10" d="M294.36,333.57s10.44-149.1,135.75-83.32c134.38,70.55,171.44,245.62,518,230.42"/><path class="cls-10" d="M307,343.28S317,207.21,431.77,268.89c120.79,64.94,156,233.25,496,217.67"/><path class="cls-10" d="M319.58,353s9.7-123,113.84-65.46C540.65,346.82,574,508.4,907.32,492.46"/><path class="cls-10" d="M332.2,362.68s9.32-110.06,102.87-56.53,125.1,208.52,451.85,192.21"/><path class="cls-10" d="M344.81,372.39s9-97.13,91.92-47.6c80.15,47.84,109.65,196.14,429.79,179.46"/><path class="cls-10" d="M357.42,382.09s8.61-84.25,81-38.67c66.66,42,94.21,183.78,407.75,166.73"/><path class="cls-10" d="M370,391.8s8.31-71.49,70-29.74c53.22,36,78.75,171.4,385.69,154"/><path class="cls-10" d="M382.64,401.5s8.1-58.91,59.05-20.81c39.9,29.84,63.31,159,363.64,141.25"/><path class="cls-10" d="M395.25,411.2s8.19-46.7,48.09-11.88c26.8,23.39,47.87,146.67,341.59,128.52"/><path class="cls-10" d="M407.86,420.91s9.35-35.37,37.14-3c14.21,16.58,32.41,134.3,319.53,115.77"/></g><rect class="cls-11" x="27" y="56.9" width="59" height="38" rx="12.68"/><rect class="cls-11" x="32" y="41.9" width="49" height="9" rx="4.5"/><rect class="cls-11" x="27" y="823.9" width="59" height="38" rx="12.68" transform="translate(113 1685.8) rotate(180)"/><rect class="cls-11" x="32" y="867.9" width="49" height="9" rx="4.5" transform="translate(113 1744.8) rotate(-180)"/><rect class="cls-12" x="1.24" y="645.9" width="113.76" height="13"/><rect class="cls-12" x="1.24" y="669.9" width="113.76" height="13"/><rect class="cls-11" x="114" y="649.9" width="20" height="28"/><rect class="cls-13" x="123" y="677.9" width="4" height="89"/><rect class="cls-14" x="1805.5" y="208.4" width="114.5" height="501"/></g></g></svg>