<svg xmlns="http://www.w3.org/2000/svg" xmlns:xlink="http://www.w3.org/1999/xlink" viewBox="0 0 3290.89 1429.41"><defs><style>.cls-1,.cls-4{fill:none;}.cls-2{opacity:0.51;}.cls-3{clip-path:url(#clip-path);}.cls-4{stroke:#9b928c;stroke-miterlimit:10;}.cls-5{opacity:0.87;}</style><clipPath id="clip-path" transform="translate(758.7 -90.99)"><rect class="cls-1" x="1" width="1920" height="1080"/></clipPath></defs><g id="图层_2" data-name="图层 2"><g id="图层_1-2" data-name="图层 1"><g class="cls-2"><g class="cls-3"><path class="cls-4" d="M-228.72,467.66S193,333.9,641.72,476.7,1244.88,743.33,1495,688.2" transform="translate(758.7 -90.99)"/><path class="cls-4" d="M-265,492.5S146.45,362,584.32,501.32,1178.12,763,1422.16,709.23" transform="translate(758.7 -90.99)"/><path class="cls-4" d="M-301.25,517.33S100,390.06,526.93,525.93s584.43,256.79,822.4,204.33" transform="translate(758.7 -90.99)"/><path class="cls-4" d="M-337.51,542.16s391-124,807.05,8.39,575.05,251.87,807,200.75" transform="translate(758.7 -90.99)"/><path class="cls-4" d="M-373.78,567S7,446.22,412.15,575.16s565.68,247,791.51,197.17" transform="translate(758.7 -90.99)"/><path class="cls-4" d="M-410,591.83s370.51-117.53,764.81,7.94,556.31,242,776.07,193.6" transform="translate(758.7 -90.99)"/><path class="cls-4" d="M-446.31,616.67S-86,502.38,297.37,624.39,844.3,861.5,1058,814.4" transform="translate(758.7 -90.99)"/><path class="cls-4" d="M-482.58,641.5s350-111,722.55,7.5S777.54,881.2,985.16,835.43" transform="translate(758.7 -90.99)"/><path class="cls-4" d="M-518.84,666.34s339.8-107.8,701.42,7.28,528.2,227.27,729.75,182.85" transform="translate(758.7 -90.99)"/><path class="cls-4" d="M-555.11,691.17s329.57-104.55,680.3,7.06S644,920.59,839.5,877.5" transform="translate(758.7 -90.99)"/><path class="cls-4" d="M2247.21,231.85S1864.55,81.65,1457.32,242,910,541.38,683,479.47" transform="translate(758.7 -90.99)"/><path class="cls-4" d="M2276.18,259.61s-373.37-146.56-770.72,9.9S971.39,561.63,749.93,501.23" transform="translate(758.7 -90.99)"/><path class="cls-4" d="M2305.15,287.37S1941.07,144.46,1553.6,297,1032.82,581.88,816.86,523" transform="translate(758.7 -90.99)"/><path class="cls-4" d="M2334.12,315.13s-354.8-139.26-732.38,9.41S1094.24,602.13,883.8,544.73" transform="translate(758.7 -90.99)"/><path class="cls-4" d="M2363.08,342.9s-345.5-135.62-713.2,9.16S1155.67,622.38,950.73,566.48" transform="translate(758.7 -90.99)"/><path class="cls-4" d="M2392.05,370.66s-336.21-132-694,8.92-480.93,263.05-680.35,208.66" transform="translate(758.7 -90.99)"/><path class="cls-4" d="M2421,398.42s-326.93-128.32-674.86,8.67S1278.52,662.88,1084.6,610" transform="translate(758.7 -90.99)"/><path class="cls-4" d="M2450,426.18s-317.64-124.68-655.69,8.43-454.36,248.52-642.77,197.13" transform="translate(758.7 -90.99)"/><path class="cls-4" d="M2479,454s-308.35-121-636.52,8.18-441.07,241.25-624,191.36" transform="translate(758.7 -90.99)"/><path class="cls-4" d="M2507.93,481.71s-299.07-117.39-617.35,7.93-427.79,234-605.18,185.61" transform="translate(758.7 -90.99)"/><path class="cls-4" d="M1697.37,1520.06S1310.6,1095.4,846.5,1015.5c-273-47-467-43-833-339" transform="translate(758.7 -90.99)"/><path class="cls-4" d="M1559.33,1488.15s-364.46-393.49-798.39-468c-262.56-45-492.54-70.43-833.2-349.65" transform="translate(758.7 -90.99)"/><path class="cls-4" d="M1421.3,1456.23s-342.16-362.32-745.92-431.4C423.27,981.83,157.31,927-158,664.54" transform="translate(758.7 -90.99)"/><path class="cls-4" d="M1283.27,1424.32S963.4,1093.16,589.83,1029.5c-241.67-41-543.61-125.27-833.61-370.94" transform="translate(758.7 -90.99)"/><path class="cls-4" d="M1145.23,1392.41s-297.56-300-641-358.24c-231.22-39-569.15-152.7-833.81-381.59" transform="translate(758.7 -90.99)"/><path class="cls-4" d="M1007.2,1360.49s-275.26-268.82-588.48-321.66c-220.78-37-594.69-180.12-834-392.23" transform="translate(758.7 -90.99)"/><path class="cls-4" d="M869.16,1328.58s-253-237.65-536-285.08C122.83,1008.5-287.06,836-501.06,640.62" transform="translate(758.7 -90.99)"/><path class="cls-4" d="M731.13,1296.66s-230.66-206.48-483.52-248.49c-199.89-33-645.76-235-834.43-413.53" transform="translate(758.7 -90.99)"/><path class="cls-4" d="M593.1,1264.75s-208.36-175.32-431-211.92c-189.44-31-671.3-262.39-834.63-424.17" transform="translate(758.7 -90.99)"/><path class="cls-4" d="M455.06,1232.84S269,1088.69,76.5,1057.5c-179-29-696.84-289.82-834.84-434.82" transform="translate(758.7 -90.99)"/><path class="cls-4" d="M2117.53,802.2s-353-238.7-745-75.7c-404.13,168-587,207-876,135" transform="translate(758.7 -90.99)"/><path class="cls-4" d="M2163.58,829.45s-345.8-228-730.67-72.27C1037.26,917.4,861.55,963,585.48,892" transform="translate(758.7 -90.99)"/><path class="cls-4" d="M2209.63,856.69s-338.57-217.32-716.31-68.83C1106.15,940.27,937.61,992.55,674.47,922.47" transform="translate(758.7 -90.99)"/><path class="cls-4" d="M2255.68,883.94s-331.34-206.63-701.95-65.4C1175,963.13,1013.66,1022.07,763.46,953" transform="translate(758.7 -90.99)"/><path class="cls-4" d="M2301.73,911.19s-324.11-196-687.59-62C1243.93,986,1089.72,1051.6,852.45,983.44" transform="translate(758.7 -90.99)"/><path class="cls-4" d="M2347.78,938.43s-316.88-185.25-673.23-58.54c-361.73,129-508.78,201.23-733.12,134" transform="translate(758.7 -90.99)"/><path class="cls-4" d="M2393.82,965.68S2084.18,791.11,1735,910.57c-353.26,121.15-493.14,200.08-704.55,133.84" transform="translate(758.7 -90.99)"/><path class="cls-4" d="M2439.87,992.92s-302.41-163.87-644.49-51.67c-344.78,113.33-477.49,198.92-676,133.65" transform="translate(758.7 -90.99)"/><path class="cls-4" d="M2485.92,1020.17S2190.74,867,1855.79,971.93c-336.3,105.51-461.85,197.77-647.39,133.45" transform="translate(758.7 -90.99)"/><path class="cls-4" d="M2532,1047.41S2244,904.92,1916.2,1002.61s-446.2,196.61-618.82,133.26" transform="translate(758.7 -90.99)"/></g></g><g class="cls-5"><path class="cls-4" d="M.5,420.5s46-331,117-329,43,213,188,257,411,138,411,138" transform="translate(758.7 -90.99)"/><path class="cls-4" d="M5.68,420.06S48.93,108.38,119.62,110.62c68.08,2,44.4,200,183,241.43,139.28,41.48,392.17,129.85,394,130.07" transform="translate(758.7 -90.99)"/><path class="cls-4" d="M10.87,419.62S51.36,127.41,121.75,129.75c65.16,2.17,45.79,187,178,225.86,133.56,39,373.34,121.7,377.11,122.14" transform="translate(758.7 -90.99)"/><path class="cls-4" d="M16.06,419.19S53.8,146.35,123.87,148.88c62.25,2.24,47.18,174,173,210.28C424.73,395.6,651.41,472.71,657.06,473.38" transform="translate(758.7 -90.99)"/><path class="cls-4" d="M21.25,418.75S56.23,165.29,126,168c59.32,2.3,48.5,161.25,168,194.72C416.07,396.9,629.71,468.11,637.25,469" transform="translate(758.7 -90.99)"/><path class="cls-4" d="M26.43,418.31S58.67,184.23,128.12,187.12c56.41,2.36,49.89,148.3,163,179.15C407.46,398,608,463.52,617.43,464.62" transform="translate(758.7 -90.99)"/><path class="cls-4" d="M31.62,417.88S61.1,203.16,130.25,206.25c53.49,2.39,51.27,135.34,158,163.58,110.58,29.24,298,89.09,309.34,90.42" transform="translate(758.7 -90.99)"/><path class="cls-4" d="M36.81,417.44s26.72-195.36,95.56-192.06c50.57,2.42,52.66,122.38,153,148,104.86,26.77,279.22,80.94,292.4,82.5" transform="translate(758.7 -90.99)"/><path class="cls-4" d="M42,417s24-176,92.5-172.5c47.65,2.44,54.05,109.41,148,132.44C381.67,401.22,542.93,449.73,558,451.5" transform="translate(758.7 -90.99)"/><path class="cls-4" d="M47.18,416.56S68.4,259.88,136.62,263.62c44.74,2.46,55.45,96.43,143.05,116.87,93.41,21.79,241.57,64.64,258.51,66.63" transform="translate(758.7 -90.99)"/><path class="cls-4" d="M52.37,416.12s18.47-137.35,86.38-133.37C180.57,285.2,195.59,366.19,276.8,384c87.7,19.29,222.74,56.5,241.57,58.71" transform="translate(758.7 -90.99)"/><path class="cls-4" d="M57.56,415.69s15.71-118,83.31-113.81c38.91,2.44,58.25,70.42,133.06,85.72,82,16.76,203.92,48.34,224.63,50.78" transform="translate(758.7 -90.99)"/><path class="cls-4" d="M62.75,415.25S75.71,316.48,143,321c36,2.42,59.65,57.4,128.07,70.15,76.27,14.23,185.08,40.19,207.68,42.85" transform="translate(758.7 -90.99)"/><path class="cls-4" d="M67.93,414.81s10.22-79.51,77.19-74.69c33.08,2.39,61.07,44.35,123.08,54.59,70.57,11.65,166.26,32,190.73,34.91" transform="translate(758.7 -90.99)"/><path class="cls-4" d="M73.12,414.38s7.47-60.3,74.13-55.13c30.16,2.34,62.48,31.26,118.08,39,64.87,9.05,147.43,23.89,173.79,27" transform="translate(758.7 -90.99)"/><path class="cls-4" d="M78.31,413.94s4.73-41.12,71.06-35.56c27.25,2.28,63.9,18.13,113.09,23.44,59.18,6.38,128.61,15.73,156.85,19.06" transform="translate(758.7 -90.99)"/><path class="cls-4" d="M83.5,413.5s2-22,68-16c54.78,5,193.78,12.62,248,19" transform="translate(758.7 -90.99)"/><path class="cls-4" d="M257.5,323.5s91.68-41.66,124-92c52-81,118.84-29.93,146,8,63,88,91,316,348,243" transform="translate(758.7 -90.99)"/><path class="cls-4" d="M258.5,324.19s87.83-38.45,119.55-85.39c50.81-75.2,114.64-27.13,140.7,8.51,60.76,83.13,96.31,300.63,340.43,232.88" transform="translate(758.7 -90.99)"/><path class="cls-4" d="M259.5,324.88s84-35.22,115.1-78.77c49.6-69.4,110.44-24.34,135.4,9,58.53,78.26,101.62,285.26,332.87,222.76" transform="translate(758.7 -90.99)"/><path class="cls-4" d="M260.5,325.56s80.09-32,110.65-72.15c48.36-63.58,106.25-21.55,130.1,9.53,56.31,73.38,106.93,269.87,325.31,212.62" transform="translate(758.7 -90.99)"/><path class="cls-4" d="M261.5,326.25s76.19-28.71,106.2-65.53c47.07-57.76,102.07-18.76,124.8,10,54.09,68.52,112.25,254.5,317.75,202.5" transform="translate(758.7 -90.99)"/><path class="cls-4" d="M262.5,326.94S334.75,301.51,364.25,268c45.74-51.91,97.88-16,119.5,10.54,51.89,63.65,117.56,239.13,310.18,192.38" transform="translate(758.7 -90.99)"/><path class="cls-4" d="M263.5,327.62s68.28-22.13,97.3-52.29c44.34-46.07,93.71-13.18,114.2,11.05,49.71,58.78,122.87,223.74,302.62,182.24" transform="translate(758.7 -90.99)"/><path class="cls-4" d="M264.5,328.31s64.25-18.82,92.86-45.68c42.85-40.23,89.53-10.39,108.89,11.56,47.54,53.91,128.18,208.37,295.06,172.12" transform="translate(758.7 -90.99)"/><path class="cls-4" d="M265.5,329s60.17-15.51,88.41-39.06c41.26-34.42,85.38-7.61,103.59,12.06C502.89,351.05,591,495,745,464" transform="translate(758.7 -90.99)"/><path class="cls-4" d="M266.5,329.69s56-12.21,84-32.45c39.56-28.64,81.24-4.83,98.29,12.57C492,354,587.56,487.44,728.68,461.69" transform="translate(758.7 -90.99)"/><path class="cls-4" d="M267.5,330.38s51.75-8.94,79.51-25.83c37.71-22.95,77.11-2.06,93,13.07,41.19,39.28,144.12,162.26,272.37,141.76" transform="translate(758.7 -90.99)"/><path class="cls-4" d="M268.5,331.06s47.4-5.73,75.06-19.21c35.71-17.39,73,.7,87.69,13.59,39.15,34.37,149.43,146.87,264.81,131.62" transform="translate(758.7 -90.99)"/><path class="cls-4" d="M269.5,331.75s42.94-2.68,70.61-12.59c33.58-12,68.92,3.43,82.39,14.09,37.17,29.42,154.75,131.5,257.25,121.5" transform="translate(758.7 -90.99)"/><path class="cls-4" d="M270.5,332.44s38.43.15,66.16-6c31.38-6.92,64.87,6.15,77.09,14.6C449,365.46,573.81,457.19,663.43,452.44" transform="translate(758.7 -90.99)"/><path class="cls-4" d="M271.5,333.12s33.94,2.67,61.72.65c29.21-2.13,60.83,8.81,71.78,15.11,33.44,19.23,165.37,100.74,242.12,101.24" transform="translate(758.7 -90.99)"/><path class="cls-4" d="M272.5,333.81s29.61,4.84,57.27,7.26c27.26,2.4,56.83,11.41,66.48,15.62,31.71,13.83,170.68,85.37,234.56,91.12" transform="translate(758.7 -90.99)"/><path class="cls-4" d="M273.5,334.5s96.79,25.41,114,30c30,8,176,70,227,81" transform="translate(758.7 -90.99)"/><path class="cls-4" d="M1920.5,580.5s-48-108.31-105-107c-87,2-8,133-157,115-102.15-12.34-272.3,130.79-272.3,130.79" transform="translate(758.7 -90.99)"/><path class="cls-4" d="M1920.35,586.69S1872.75,483.17,1816.7,484c-54.71.94-43,53.41-66.64,85.27-13,17.47-36.92,28.8-87.89,22.63-100-12.12-265.17,125-266.67,124.92" transform="translate(758.7 -90.99)"/><path class="cls-4" d="M1920.21,592.88S1873,494,1817.9,494.41c-53.17.41-42.87,50.32-66.21,80-12.85,16.35-36.58,26.75-85.84,20.78-97.8-11.91-258,119.2-261,119" transform="translate(758.7 -90.99)"/><path class="cls-4" d="M1920.07,599.07s-46.79-94.19-101-94.21c-51.63,0-42.77,47.25-65.79,74.79-12.74,15.24-36.23,24.69-83.78,18.91C1573.9,586.88,1418.61,712,1414.1,711.75" transform="translate(758.7 -90.99)"/><path class="cls-4" d="M1919.92,605.26s-46.37-89.48-99.62-90c-50.08-.44-42.7,44.2-65.37,69.55-12.65,14.15-35.88,22.64-81.72,17-93.46-11.46-243.79,107.62-249.81,107.32" transform="translate(758.7 -90.99)"/><path class="cls-4" d="M1919.78,611.45s-46-84.76-98.28-85.69c-48.54-.85-42.65,41.15-65,64.32-12.57,13.06-35.53,20.58-79.67,15.19C1585.59,594,1440.22,707.09,1432.7,706.72" transform="translate(758.7 -90.99)"/><path class="cls-4" d="M1919.64,617.64s-45.55-80-96.94-81.42c-47-1.27-42.64,38.1-64.53,59.07-12.51,12-35.18,18.53-77.61,13.33-89.12-11-229.53,96-238.56,95.59" transform="translate(758.7 -90.99)"/><path class="cls-4" d="M1919.5,623.83s-45.14-75.3-95.6-77.16c-45.45-1.67-42.67,35.06-64.11,53.83C1747.31,611.44,1725,617,1684.24,612c-87-10.81-222.41,90.24-232.94,89.72" transform="translate(758.7 -90.99)"/><path class="cls-4" d="M1919.35,630s-44.71-70.57-94.25-72.9c-43.9-2.06-42.75,32-63.68,48.6-12.48,9.88-34.49,14.42-73.5,9.61-84.78-10.6-215.28,84.44-227.32,83.85" transform="translate(758.7 -90.99)"/><path class="cls-4" d="M1919.21,636.21s-44.3-65.82-92.9-68.63c-42.37-2.46-42.9,28.94-63.27,43.35-12.51,8.85-34.14,12.37-71.45,7.75-82.6-10.37-208.15,78.64-221.69,78" transform="translate(758.7 -90.99)"/><path class="cls-4" d="M1919.07,642.4s-43.88-61.07-91.56-64.37c-40.82-2.83-43.11,25.85-62.85,38.12-12.57,7.8-33.79,10.31-69.39,5.88-80.43-10.15-201,72.85-216.07,72.12" transform="translate(758.7 -90.99)"/><path class="cls-4" d="M1918.92,648.6s-43.46-56.31-90.21-60.12c-39.27-3.19-43.39,22.73-62.43,32.88-12.68,6.76-33.44,8.26-67.33,4-78.27-9.94-193.9,67.05-210.45,66.25" transform="translate(758.7 -90.99)"/><path class="cls-4" d="M1918.78,654.79s-43-51.54-88.87-55.85c-37.72-3.56-43.74,19.53-62,27.63-12.84,5.7-33.09,6.21-65.27,2.17-76.1-9.72-186.77,61.26-204.83,60.38" transform="translate(758.7 -90.99)"/><path class="cls-4" d="M1918.64,661s-42.63-46.75-87.53-51.59c-36.18-3.9-44.17,16.26-61.59,22.4-13,4.59-32.74,4.15-63.22.3-73.92-9.5-179.64,55.47-199.2,54.52" transform="translate(758.7 -90.99)"/><path class="cls-4" d="M1918.5,667.17s-42.22-41.95-86.19-47.33c-34.63-4.24-45.68,10-61.17,17.16a282.49,282.49,0,0,1-61.16-1.55c-71.75-9.29-172.51,49.67-193.58,48.65" transform="translate(758.7 -90.99)"/><path class="cls-4" d="M1918.35,673.36s-41.8-37.13-84.84-43.07c-33.09-4.56-45.86,6.69-60.74,11.93-13.73-.26-32,0-59.11-3.42-69.58-9.07-165.39,43.88-188,42.78" transform="translate(758.7 -90.99)"/><path class="cls-4" d="M1918.21,679.55s-41.39-32.3-83.5-38.8c-31.55-4.87-45.69,5.81-60.32,6.68-13.83.82-31.7-2-57.05-5.28-67.42-8.84-158.27,38.09-182.34,36.92" transform="translate(758.7 -90.99)"/><path class="cls-4" d="M1918.07,685.74s-41-27.45-82.15-34.54c-30-5.17-46.18,2.1-59.91,1.44-14.07-.67-31.35-4.06-55-7.13-65.24-8.63-151.13,32.29-176.71,31" transform="translate(758.7 -90.99)"/><path class="cls-4" d="M1917.92,691.93s-40.58-22.57-80.8-30.28c-28.48-5.45-46.58-1.69-59.49-3.79-14.24-2.32-31-6.12-52.94-9-63.07-8.41-144,26.5-171.09,25.18" transform="translate(758.7 -90.99)"/><path class="cls-4" d="M1917.78,698.12s-40.19-17.67-79.46-26c-27-5.73-46.86-5.55-59.07-9a345.4,345.4,0,0,0-50.88-10.86c-60.9-8.19-136.88,20.71-165.47,19.32" transform="translate(758.7 -90.99)"/><path class="cls-4" d="M1917.64,704.31s-39.81-12.74-78.12-21.75c-25.43-6-47-9.41-58.65-14.27-14.2-5.93-30.3-10.23-48.82-12.72-58.73-8-129.76,14.91-159.85,13.44" transform="translate(758.7 -90.99)"/><path class="cls-4" d="M1917.5,710.5s-106.18-20.93-135-37c-61-34-160-5-201-7" transform="translate(758.7 -90.99)"/><path class="cls-4" d="M1562.5,601.5s-11.25-54.13-99-20c-108,42-234,70-308,52" transform="translate(758.7 -90.99)"/><path class="cls-4" d="M1557.12,604.75s-10.67-50.81-93.44-18.63c-101.91,39.63-222.16,68.33-298.68,50.38" transform="translate(758.7 -90.99)"/><path class="cls-4" d="M1551.75,608s-10.1-47.49-87.88-17.25C1368,628,1253.55,657.4,1174.5,639.5" transform="translate(758.7 -90.99)"/><path class="cls-4" d="M1546.37,611.25s-9.51-44.16-82.31-15.87c-89.75,34.87-198.48,65-280.06,47.12" transform="translate(758.7 -90.99)"/><path class="cls-4" d="M1541,614.5s-8.94-40.84-76.75-14.5c-83.67,32.5-186.64,63.29-270.75,45.5" transform="translate(758.7 -90.99)"/><path class="cls-4" d="M1535.62,617.75s-8.36-37.52-71.19-13.13c-77.58,30.13-174.79,61.62-261.43,43.88" transform="translate(758.7 -90.99)"/><path class="cls-4" d="M1530.25,621s-7.78-34.2-65.63-11.75c-71.5,27.75-163,59.94-252.12,42.25" transform="translate(758.7 -90.99)"/><path class="cls-4" d="M1524.87,624.25s-7.2-30.88-60.06-10.37c-65.42,25.37-151.12,58.26-242.81,40.62" transform="translate(758.7 -90.99)"/><path class="cls-4" d="M1519.5,627.5s-6.63-27.56-54.5-9c-59.34,23-139.28,56.58-233.5,39" transform="translate(758.7 -90.99)"/><path class="cls-4" d="M1514.12,630.75s-6-24.24-48.94-7.63C1411.93,643.75,1337.75,678,1241,660.5" transform="translate(758.7 -90.99)"/><path class="cls-4" d="M1508.75,634s-5.47-20.92-43.38-6.25C1418.2,646,1349.78,681,1250.5,663.5" transform="translate(758.7 -90.99)"/><path class="cls-4" d="M1503.37,637.25s-4.89-17.6-37.81-4.87c-41.09,15.87-103.75,51.55-205.56,34.12" transform="translate(758.7 -90.99)"/><path class="cls-4" d="M1498,640.5s-4.32-14.28-32.25-3.5c-35,13.5-91.92,49.88-196.25,32.5" transform="translate(758.7 -90.99)"/><path class="cls-4" d="M1492.62,643.75s-3.73-11-26.69-2.13c-28.92,11.13-80.07,48.2-186.93,30.88" transform="translate(758.7 -90.99)"/><path class="cls-4" d="M1487.25,647s-3.16-7.64-21.13-.75c-22.84,8.75-68.23,46.52-177.62,29.25" transform="translate(758.7 -90.99)"/><path class="cls-4" d="M1481.87,650.25s-2.58-4.32-15.56.63c-16.76,6.37-56.39,44.84-168.31,27.62" transform="translate(758.7 -90.99)"/><path class="cls-4" d="M1476.5,653.5s-2-1-10,2c-10.68,4-44.55,43.17-159,26" transform="translate(758.7 -90.99)"/><path class="cls-4" d="M115.5,750.5s137-54,278,2c103.74,41.2,5,120,308.88,144.57,198,16,287.12,150.43,287.12,150.43" transform="translate(758.7 -90.99)"/><path class="cls-4" d="M130,758.79s132.61-51.31,268.7,2.62c43.83,17.37,50.42,41.73,68.67,65.52,23.7,30.9,66.57,60.54,230.23,73.9,189.95,15.49,276.36,143.63,278.12,143.91" transform="translate(758.7 -90.99)"/><path class="cls-4" d="M144.45,767.07s128.21-48.62,259.4,3.25c42.13,16.67,48.79,40.06,66.6,62.84,23.51,30.08,65.52,58.5,222.3,71.42,181.91,15,265.61,136.84,269.13,137.4" transform="translate(758.7 -90.99)"/><path class="cls-4" d="M158.92,775.36s123.82-45.93,250.1,3.86c40.44,16,47.17,38.4,64.54,60.17,23.33,29.26,64.47,56.46,214.38,68.94C861.8,922.8,942.8,1038.39,948.07,1039.21" transform="translate(758.7 -90.99)"/><path class="cls-4" d="M173.4,783.64s119.43-43.23,240.8,4.49c38.73,15.26,45.55,36.72,62.46,57.49,23.17,28.44,63.43,54.41,206.47,66.47C849,926,927.23,1035.35,934.26,1036.45" transform="translate(758.7 -90.99)"/><path class="cls-4" d="M187.88,791.93s115-40.54,231.5,5.11c37,14.55,43.93,35,60.39,54.81,23,27.62,62.38,52.37,198.54,64,157.78,13.43,233.36,116.47,242.14,117.85" transform="translate(758.7 -90.99)"/><path class="cls-4" d="M202.35,800.21S313,762.36,424.55,806c35.34,13.84,42.33,33.36,58.33,52.13,22.84,26.79,61.33,50.33,190.62,61.51,149.73,12.92,222.6,109.68,233.14,111.34" transform="translate(758.7 -90.99)"/><path class="cls-4" d="M216.83,808.5s106.25-35.16,212.9,6.36C463.37,828,470.46,846.53,486,864.3c22.68,26,60.27,48.29,182.69,59,141.69,12.41,211.85,102.9,224.15,104.83" transform="translate(758.7 -90.99)"/><path class="cls-4" d="M231.3,816.79s101.86-32.47,203.6,7c31.94,12.44,39.14,30,54.19,46.77,22.55,25.15,59.23,46.25,174.78,56.57C797.51,939,865,1023.2,879,1025.4" transform="translate(758.7 -90.99)"/><path class="cls-4" d="M245.78,825.07s97.46-29.78,194.3,7.6c30.24,11.73,37.56,28.29,52.12,44.09,22.41,24.32,58.18,44.21,166.86,54.09,125.59,11.37,190.34,89.31,206.15,91.79" transform="translate(758.7 -90.99)"/><path class="cls-4" d="M260.26,833.36s93.06-27.09,185,8.22c28.54,11,36,26.58,50.05,41.41,22.28,23.48,57.13,42.16,158.93,51.61,117.55,10.86,179.6,82.52,197.16,85.28" transform="translate(758.7 -90.99)"/><path class="cls-4" d="M274.73,841.64s88.68-24.39,175.7,8.85c26.85,10.31,34.42,24.87,48,38.73,22.16,22.63,56.08,40.12,151,49.14,109.5,10.33,168.84,75.73,188.16,78.76" transform="translate(758.7 -90.99)"/><path class="cls-4" d="M289.21,849.93s84.28-21.7,166.4,9.46c25.14,9.62,32.86,23.16,45.92,36.06,22.06,21.78,55,38.08,143.08,46.66,101.46,9.82,158.09,68.94,179.17,72.25" transform="translate(758.7 -90.99)"/><path class="cls-4" d="M303.69,858.21s79.88-19,157.1,10.09c23.44,8.91,31.31,21.44,43.84,33.37,22,20.93,54,36,135.17,44.19C733.21,955.17,787.14,1008,810,1011.6" transform="translate(758.7 -90.99)"/><path class="cls-4" d="M318.16,866.5s75.5-16.32,147.8,10.71c21.75,8.2,29.78,19.7,41.78,30.69,21.9,20.05,52.93,34,127.24,41.71,85.37,8.8,136.59,55.36,161.18,59.22" transform="translate(758.7 -90.99)"/><path class="cls-4" d="M332.64,874.79s71.1-13.63,138.5,11.33c20.05,7.49,28.25,18,39.71,28,21.84,19.15,51.88,32,119.32,39.24,77.32,8.27,125.84,48.56,152.18,52.7" transform="translate(758.7 -90.99)"/><path class="cls-4" d="M347.11,883.07s66.71-10.94,129.2,12c18.36,6.78,26.73,16.2,37.65,25.33,21.8,18.24,50.83,29.92,111.4,36.76,69.28,7.76,115.08,41.78,143.18,46.19" transform="translate(758.7 -90.99)"/><path class="cls-4" d="M361.59,891.36s62.31-8.25,119.9,12.57c16.65,6.09,25.22,14.44,35.57,22.66,21.79,17.29,49.79,27.87,103.48,34.28,61.24,7.25,104.34,35,134.19,39.68" transform="translate(758.7 -90.99)"/><path class="cls-4" d="M376.07,899.64s57.92-5.55,110.6,13.2c14.95,5.38,23.72,12.66,33.5,20,21.79,16.3,48.74,25.83,95.56,31.8,53.19,6.73,93.58,28.2,125.19,33.17" transform="translate(758.7 -90.99)"/><path class="cls-4" d="M390.54,907.93s53.53-2.86,101.3,13.82c13.26,4.67,22.23,10.85,31.44,17.29,21.83,15.27,47.68,23.8,87.63,29.34,45.15,6.21,82.83,21.4,116.2,26.64" transform="translate(758.7 -90.99)"/><path class="cls-4" d="M405,916.21s49.13-.17,92,14.45a130.45,130.45,0,0,1,29.37,14.61C548.28,959.44,573,967,606.1,972.13c37.1,5.7,72.08,14.62,107.2,20.13" transform="translate(758.7 -90.99)"/><path class="cls-4" d="M419.5,924.5s71,4,110,27c46.38,27.36,99.85,27,170,38" transform="translate(758.7 -90.99)"/><path class="cls-4" d="M853.08,929.77S859.5,797.5,968.5,847.5c128.54,59,147,209,356,155" transform="translate(758.7 -90.99)"/><path class="cls-4" d="M858.53,934s6.3-126.7,110.68-78.41c122.72,56.5,140.67,201.81,345.62,150" transform="translate(758.7 -90.99)"/><path class="cls-4" d="M864,938.15S870.16,817,969.92,863.6c116.89,54,134.34,194.61,335.24,145" transform="translate(758.7 -90.99)"/><path class="cls-4" d="M869.42,942.34s5.94-115.27,101.22-70.7c110.91,51.9,128,187.43,324.86,140" transform="translate(758.7 -90.99)"/><path class="cls-4" d="M874.87,946.53s5.78-109.61,96.48-66.84c105,49.53,121.67,180.24,314.48,135" transform="translate(758.7 -90.99)"/><path class="cls-4" d="M880.31,950.72s5.63-104,91.76-63c99.15,47.16,115.33,173,304.09,130" transform="translate(758.7 -90.99)"/><path class="cls-4" d="M885.76,954.91s5.47-98.29,87-59.12c93.28,44.79,109,165.85,293.72,125" transform="translate(758.7 -90.99)"/><path class="cls-4" d="M891.21,959.1s5.31-92.63,82.29-55.27c87.39,42.43,102.66,158.67,283.33,120" transform="translate(758.7 -90.99)"/><path class="cls-4" d="M896.65,963.29s5.15-87,77.56-51.41c81.52,40,96.33,151.48,273,115" transform="translate(758.7 -90.99)"/><path class="cls-4" d="M902.1,967.48s5-81.32,72.82-47.55c75.65,37.66,90,144.28,262.58,110" transform="translate(758.7 -90.99)"/><path class="cls-4" d="M907.55,971.67S912.38,896,975.64,928c69.77,35.27,83.66,137.09,252.19,105" transform="translate(758.7 -90.99)"/><path class="cls-4" d="M913,975.87s4.67-70,63.36-39.85c63.91,32.88,77.34,129.91,241.81,100" transform="translate(758.7 -90.99)"/><path class="cls-4" d="M918.44,980.06s4.51-64.4,58.63-36c58,30.47,71,122.72,231.43,95" transform="translate(758.7 -90.99)"/><path class="cls-4" d="M923.89,984.25s4.34-58.77,53.89-32.13c52.17,28,64.67,115.52,221,90" transform="translate(758.7 -90.99)"/><path class="cls-4" d="M929.33,988.44s4.19-53.14,49.17-28.27c46.31,25.61,58.33,108.33,210.66,85" transform="translate(758.7 -90.99)"/><path class="cls-4" d="M934.78,992.63s4-47.54,44.43-24.42,52,101.15,200.29,80" transform="translate(758.7 -90.99)"/><path class="cls-4" d="M940.23,996.82s3.87-42,39.69-20.56c34.62,20.67,45.67,94,189.91,75" transform="translate(758.7 -90.99)"/><path class="cls-4" d="M945.67,1001s3.72-36.39,35-16.7c28.79,18.14,39.33,86.76,179.52,70" transform="translate(758.7 -90.99)"/><path class="cls-4" d="M951.12,1005.2s3.59-30.87,30.23-12.84c23,15.55,33,79.57,169.15,65" transform="translate(758.7 -90.99)"/><path class="cls-4" d="M956.56,1009.39s3.5-25.44,25.51-9c17.23,12.89,26.66,72.39,158.76,60" transform="translate(758.7 -90.99)"/><path class="cls-4" d="M962,1013.58s3.54-20.17,20.77-5.13c11.58,10.1,20.33,65.19,148.38,55" transform="translate(758.7 -90.99)"/><path class="cls-4" d="M967.46,1017.77s4-15.27,16-1.27c6.13,7.16,14,58,138,50" transform="translate(758.7 -90.99)"/></g></g></g></svg>