<svg xmlns="http://www.w3.org/2000/svg" xmlns:xlink="http://www.w3.org/1999/xlink" viewBox="0 0 24.82 58.85"><defs><style>.cls-1{fill:url(#未命名的渐变_54);}.cls-2{fill:url(#未命名的渐变_54-2);}</style><linearGradient id="未命名的渐变_54" x1="5.25" y1="58.85" x2="5.25" gradientUnits="userSpaceOnUse"><stop offset="0" stop-color="#484440"/><stop offset="0.02" stop-color="#4d4a3f"/><stop offset="0.12" stop-color="#65693b"/><stop offset="0.24" stop-color="#798337"/><stop offset="0.36" stop-color="#899734"/><stop offset="0.51" stop-color="#94a432"/><stop offset="0.69" stop-color="#9aad31"/><stop offset="1" stop-color="#9caf31"/></linearGradient><linearGradient id="未命名的渐变_54-2" x1="19.58" y1="58.85" x2="19.58" xlink:href="#未命名的渐变_54"/></defs><g id="图层_2" data-name="图层 2"><g id="图层_1-2" data-name="图层 1"><path class="cls-1" d="M0,0a137.88,137.88,0,0,1,3,28.66c0,13-1.29,18.79-3.07,28.24,1.22,1.34,1.52,2,2.91,2,5.07,0,7.58-10,7.58-30.19C10.49,14.23,7.86,3.58,6,0Z"/><path class="cls-2" d="M14.37,0a137.88,137.88,0,0,1,3,28.66c0,13-1.29,18.79-3.07,28.24,1.22,1.34,1.52,2,2.91,2,5.07,0,7.58-10,7.58-30.19,0-14.43-2.63-25.08-4.45-28.66Z"/></g></g></svg>