<svg xmlns="http://www.w3.org/2000/svg" viewBox="0 0 1914.28 57.87"><defs><style>.cls-1{fill:#484440;}.cls-2{fill:#c6910e;}.cls-10,.cls-11,.cls-12,.cls-13,.cls-14,.cls-15,.cls-16,.cls-17,.cls-18,.cls-19,.cls-20,.cls-21,.cls-22,.cls-23,.cls-24,.cls-25,.cls-26,.cls-27,.cls-28,.cls-29,.cls-3,.cls-30,.cls-31,.cls-32,.cls-33,.cls-34,.cls-35,.cls-36,.cls-37,.cls-38,.cls-39,.cls-4,.cls-40,.cls-41,.cls-42,.cls-43,.cls-44,.cls-45,.cls-46,.cls-47,.cls-48,.cls-49,.cls-5,.cls-6,.cls-7,.cls-8,.cls-9{fill:none;stroke:#f9f5f2;stroke-linejoin:round;}.cls-3{opacity:0;}.cls-4{opacity:0.01;}.cls-5{opacity:0.02;}.cls-6{opacity:0.03;}.cls-7{opacity:0.04;}.cls-8{opacity:0.05;}.cls-9{opacity:0.06;}.cls-10{opacity:0.07;}.cls-11{opacity:0.08;}.cls-12{opacity:0.09;}.cls-13{opacity:0.1;}.cls-14{opacity:0.11;}.cls-15{opacity:0.12;}.cls-16{opacity:0.13;}.cls-17{opacity:0.14;}.cls-18{opacity:0.15;}.cls-19{opacity:0.16;}.cls-20{opacity:0.17;}.cls-21{opacity:0.18;}.cls-22{opacity:0.19;}.cls-23{opacity:0.2;}.cls-24{opacity:0.21;}.cls-25{opacity:0.22;}.cls-26{opacity:0.23;}.cls-27{opacity:0.24;}.cls-28{opacity:0.25;}.cls-29{opacity:0.5;}.cls-30{opacity:0.49;}.cls-31{opacity:0.48;}.cls-32{opacity:0.47;}.cls-33{opacity:0.46;}.cls-34{opacity:0.45;}.cls-35{opacity:0.44;}.cls-36{opacity:0.43;}.cls-37{opacity:0.42;}.cls-38{opacity:0.41;}.cls-39{opacity:0.39;}.cls-40{opacity:0.38;}.cls-41{opacity:0.37;}.cls-42{opacity:0.36;}.cls-43{opacity:0.35;}.cls-44{opacity:0.34;}.cls-45{opacity:0.33;}.cls-46{opacity:0.32;}.cls-47{opacity:0.31;}.cls-48{opacity:0.3;}.cls-49{opacity:0.8;}</style></defs><g id="图层_2" data-name="图层 2"><g id="图层_1-2" data-name="图层 1"><rect class="cls-1" x="63.73" y="0.37" width="1786.81" height="56.86" rx="8"/><rect class="cls-2" x="17.72" y="8.28" width="41.03" height="41.03" rx="4.95"/><ellipse class="cls-2" cx="6.99" cy="28.8" rx="6.99" ry="20.52"/><rect class="cls-2" x="1855.53" y="8.28" width="41.03" height="41.03" rx="4.95" transform="translate(3752.09 57.6) rotate(-180)"/><ellipse class="cls-2" cx="1907.29" cy="28.8" rx="6.99" ry="20.52"/><path class="cls-3" d="M950.51.32s-.58,56.86,6.62,56.86"/><path class="cls-4" d="M934.24.32s1.09,56.54,15.06,56.86"/><path class="cls-5" d="M918,.32s2.76,56.22,23.49,56.86"/><path class="cls-6" d="M901.71.32s4.43,55.9,31.93,56.86"/><path class="cls-7" d="M885.44.32s6.1,55.58,40.37,56.86"/><path class="cls-8" d="M869.18.32S877,55.57,918,57.18"/><path class="cls-9" d="M852.91.32s9.44,54.93,57.24,56.86"/><path class="cls-10" d="M836.65.32s11.1,54.61,65.67,56.86"/><path class="cls-11" d="M820.38.32s12.78,54.29,74.11,56.86"/><path class="cls-12" d="M804.11.32s14.45,54,82.55,56.86"/><path class="cls-13" d="M787.85.32S804,54,878.82,57.18"/><path class="cls-14" d="M771.58.32S789.37,53.65,871,57.18"/><path class="cls-15" d="M755.32.32s19.45,53,107.84,56.86"/><path class="cls-16" d="M739.05.32S760.18,53,855.33,57.18"/><path class="cls-17" d="M722.78.32s22.8,52.37,124.72,56.86"/><path class="cls-18" d="M706.52.32s24.46,52,133.15,56.86"/><path class="cls-19" d="M690.25.32S716.39,52,831.84,57.18"/><path class="cls-20" d="M674,.32s27.8,51.4,150,56.86"/><path class="cls-21" d="M657.72.32S687.19,51.4,816.18,57.18"/><path class="cls-22" d="M641.45.32s31.15,50.76,166.9,56.86"/><path class="cls-23" d="M625.19.32S658,50.76,800.51,57.18"/><path class="cls-24" d="M608.92.32S643.4,50.44,792.68,57.18"/><path class="cls-25" d="M592.66.32s36.15,49.8,192.19,56.86"/><path class="cls-26" d="M576.39.32S614.21,49.8,777,57.18"/><path class="cls-27" d="M560.12.32s39.49,49.15,209.07,56.86"/><path class="cls-28" d="M543.86.32S585,49.15,761.36,57.18"/><path class="cls-29" d="M76.34.7s36.19,54.69,152.2,56.67"/><path class="cls-30" d="M99.67.7s36.94,54.75,156.25,56.66"/><path class="cls-31" d="M123,.7S160.69,55.51,283.3,57.35"/><path class="cls-32" d="M146.34.7s38.43,54.87,164.35,56.64"/><path class="cls-33" d="M169.68.7s39.17,54.93,168.39,56.63"/><path class="cls-34" d="M193,.7s39.92,55,172.45,56.62"/><path class="cls-35" d="M216.34.7S257,55.75,392.84,57.31"/><path class="cls-36" d="M239.68.7s41.41,55.12,180.55,56.6"/><path class="cls-37" d="M263,.7s42.16,55.18,184.6,56.59"/><path class="cls-38" d="M286.34.7S329.25,55.94,475,57.28"/><path class="cls-39" d="M309.68.7S353.33,56,502.38,57.27"/><path class="cls-40" d="M333,.7s44.4,55.36,196.76,56.56"/><path class="cls-41" d="M356.34.7s45.15,55.42,200.81,56.55"/><path class="cls-42" d="M379.68.7s45.89,55.48,204.85,56.54"/><path class="cls-43" d="M403,.7s46.64,55.54,208.91,56.53"/><path class="cls-44" d="M426.34.7s47.39,55.6,213,56.52"/><path class="cls-45" d="M449.68.7s48.13,55.66,217,56.51"/><path class="cls-46" d="M473,.7s48.88,55.72,221.06,56.5"/><path class="cls-47" d="M496.34.7S546,56.49,721.46,57.19"/><path class="cls-48" d="M519.68.7s50.37,55.85,229.16,56.48"/><path class="cls-49" d="M70.07.7S67.8,57.18,89.94,57.37"/><path class="cls-49" d="M88.69,15.39s3.16,41.79,19.09,42"/><path class="cls-49" d="M111.93,31.12s4.45,26.25,16.64,26.25"/><path class="cls-49" d="M132.83,41.13s3.78,16.24,16.53,16.24"/><path class="cls-49" d="M159.91,49.69s3.78,7.68,10.25,7.68"/><path class="cls-3" d="M963.76.32s.58,56.86-6.63,56.86"/><path class="cls-4" d="M980,.32S978.94,56.86,965,57.18"/><path class="cls-5" d="M996.29.32s-2.76,56.22-23.49,56.86"/><path class="cls-6" d="M1012.56.32s-4.43,55.9-31.93,56.86"/><path class="cls-7" d="M1028.82.32s-6.09,55.58-40.36,56.86"/><path class="cls-8" d="M1045.09.32s-7.77,55.25-48.8,56.86"/><path class="cls-9" d="M1061.36.32s-9.44,54.93-57.24,56.86"/><path class="cls-10" d="M1077.62.32s-11.1,54.61-65.67,56.86"/><path class="cls-11" d="M1093.89.32s-12.78,54.29-74.11,56.86"/><path class="cls-12" d="M1110.15.32s-14.44,54-82.54,56.86"/><path class="cls-13" d="M1126.42.32s-16.12,53.65-91,56.86"/><path class="cls-14" d="M1142.69.32s-17.79,53.33-99.41,56.86"/><path class="cls-15" d="M1159,.32s-19.45,53-107.84,56.86"/><path class="cls-16" d="M1175.22.32S1154.09,53,1058.94,57.18"/><path class="cls-17" d="M1191.48.32s-22.79,52.37-124.71,56.86"/><path class="cls-18" d="M1207.75.32s-24.46,52-133.15,56.86"/><path class="cls-19" d="M1224,.32S1197.88,52,1082.43,57.18"/><path class="cls-20" d="M1240.28.32s-27.8,51.4-150,56.86"/><path class="cls-21" d="M1256.55.32s-29.47,51.08-158.46,56.86"/><path class="cls-22" d="M1272.81.32s-31.14,50.76-166.89,56.86"/><path class="cls-23" d="M1289.08.32s-32.81,50.44-175.33,56.86"/><path class="cls-24" d="M1305.35.32s-34.48,50.12-183.76,56.86"/><path class="cls-25" d="M1321.61.32s-36.15,49.8-192.19,56.86"/><path class="cls-26" d="M1337.88.32s-37.82,49.48-200.63,56.86"/><path class="cls-27" d="M1354.14.32s-39.49,49.15-209.06,56.86"/><path class="cls-28" d="M1370.41.32s-41.16,48.83-217.5,56.86"/><path class="cls-29" d="M1837.93.7s-36.19,54.69-152.2,56.67"/><path class="cls-30" d="M1814.59.7s-36.93,54.75-156.24,56.66"/><path class="cls-31" d="M1791.26.7S1753.58,55.51,1631,57.35"/><path class="cls-32" d="M1767.93.7s-38.43,54.87-164.35,56.64"/><path class="cls-33" d="M1744.59.7s-39.17,54.93-168.39,56.63"/><path class="cls-34" d="M1721.26.7s-39.92,55-172.45,56.62"/><path class="cls-35" d="M1697.93.7s-40.67,55.05-176.5,56.61"/><path class="cls-36" d="M1674.59.7S1633.18,55.82,1494,57.3"/><path class="cls-37" d="M1651.26.7s-42.16,55.18-184.6,56.59"/><path class="cls-38" d="M1627.93.7S1585,55.94,1439.27,57.28"/><path class="cls-39" d="M1604.59.7s-43.65,55.3-192.7,56.57"/><path class="cls-40" d="M1581.26.7s-44.4,55.36-196.76,56.56"/><path class="cls-41" d="M1557.93.7s-45.15,55.42-200.81,56.55"/><path class="cls-42" d="M1534.59.7s-45.89,55.48-204.86,56.54"/><path class="cls-43" d="M1511.26.7s-46.64,55.54-208.91,56.53"/><path class="cls-44" d="M1487.92.7s-47.38,55.6-213,56.52"/><path class="cls-45" d="M1464.59.7s-48.13,55.66-217,56.51"/><path class="cls-46" d="M1441.26.7s-48.88,55.72-221.06,56.5"/><path class="cls-47" d="M1417.92.7s-49.62,55.79-225.11,56.49"/><path class="cls-48" d="M1394.59.7s-50.37,55.85-229.16,56.48"/><path class="cls-49" d="M1844.2.7s2.27,56.48-19.87,56.67"/><path class="cls-49" d="M1825.58,15.39s-3.16,41.79-19.09,42"/><path class="cls-49" d="M1802.33,31.12s-4.44,26.25-16.63,26.25"/><path class="cls-49" d="M1781.44,41.13s-3.78,16.24-16.53,16.24"/><path class="cls-49" d="M1754.36,49.69s-3.78,7.68-10.25,7.68"/></g></g></svg>