<svg xmlns="http://www.w3.org/2000/svg" viewBox="0 0 875.64 406.2"><defs><style>.cls-1,.cls-2{fill:none;stroke:#9b928c;stroke-miterlimit:10;}.cls-1{stroke-linecap:round;}</style></defs><g id="图层_2" data-name="图层 2"><g id="图层_1-2" data-name="图层 1"><path class="cls-1" d="M.5,329.51s46-331,117-329,43,213,188,257,411,138,411,138"/><path class="cls-2" d="M5.69,329.07S48.94,17.38,119.62,19.63c68.09,2,44.4,200,183,241.43C441.91,302.54,694.8,390.91,696.69,391.13"/><path class="cls-2" d="M10.88,328.63S51.37,36.41,121.75,38.76c65.16,2.17,45.79,187,178,225.86,133.56,38.95,373.35,121.7,377.12,122.14"/><path class="cls-2" d="M16.06,328.2S53.8,55.36,123.88,57.88c62.24,2.25,47.18,174,173,210.29,127.84,36.44,354.52,113.55,360.17,114.21"/><path class="cls-2" d="M21.25,327.76S56.24,74.3,126,77c59.33,2.3,48.51,161.25,168,194.72C416.07,305.91,629.72,377.12,637.25,378"/><path class="cls-2" d="M26.44,327.32S58.67,93.24,128.12,96.13c56.41,2.36,49.89,148.3,163,179.15C407.47,307,608,372.53,617.44,373.63"/><path class="cls-2" d="M31.62,326.88s29.49-214.72,98.63-211.62c53.49,2.39,51.27,135.34,158,163.58,110.59,29.24,298.05,89.09,309.34,90.42"/><path class="cls-2" d="M36.81,326.45s26.73-195.37,95.57-192.07c50.57,2.43,52.66,122.39,153,148,104.85,26.77,279.21,80.94,292.39,82.49"/><path class="cls-2" d="M42,326s24-176,92.5-172.5c47.66,2.44,54.05,109.41,148.05,132.43,99.13,24.29,260.39,72.8,275.45,74.57"/><path class="cls-2" d="M47.19,325.57s21.22-156.68,89.43-152.94c44.74,2.46,55.45,96.43,143.06,116.87,93.41,21.79,241.56,64.64,258.51,66.63"/><path class="cls-2" d="M52.38,325.13s18.46-137.35,86.37-133.37c41.82,2.45,56.85,83.43,138.06,101.29,87.69,19.29,222.74,56.49,241.57,58.71"/><path class="cls-2" d="M57.56,324.7s15.72-118.06,83.32-113.82c38.9,2.44,58.24,70.43,133.06,85.73,82,16.76,203.91,48.34,224.62,50.77"/><path class="cls-2" d="M62.75,324.26S75.72,225.49,143,230c36,2.42,59.66,57.4,128.07,70.15,76.27,14.22,185.09,40.19,207.68,42.85"/><path class="cls-2" d="M67.94,323.82s10.22-79.51,77.18-74.69c33.08,2.39,61.07,44.35,123.08,54.59,70.57,11.65,166.26,32,190.74,34.91"/><path class="cls-2" d="M73.12,323.38s7.48-60.29,74.13-55.12c30.16,2.34,62.49,31.26,118.08,39,64.88,9.05,147.44,23.89,173.79,27"/><path class="cls-2" d="M78.31,323s4.74-41.12,71.07-35.57c27.25,2.29,63.9,18.14,113.08,23.45,59.18,6.38,128.61,15.73,156.85,19.05"/><path class="cls-2" d="M83.5,322.51s2-22,68-16c54.78,5,193.78,12.62,248,19"/><path class="cls-2" d="M257.5,232.51s91.69-41.66,124-92c52-81,118.85-29.93,146,8,63,88,91,316,348,243"/><path class="cls-2" d="M258.5,233.2s87.84-38.45,119.55-85.39c50.81-75.2,114.65-27.13,140.7,8.51C579.51,239.45,615.06,457,859.19,389.2"/><path class="cls-2" d="M259.5,233.88s84-35.21,115.1-78.76c49.6-69.41,110.45-24.34,135.4,9,58.53,78.26,101.62,285.25,332.88,222.75"/><path class="cls-2" d="M260.5,234.57s80.1-32,110.65-72.15c48.36-63.58,106.26-21.55,130.1,9.53,56.31,73.38,106.94,269.87,325.31,212.62"/><path class="cls-2" d="M261.5,235.26s76.19-28.71,106.21-65.53C414.78,112,469.77,151,492.5,179.76c54.1,68.52,112.25,254.5,317.75,202.5"/><path class="cls-2" d="M262.5,236S334.76,210.52,364.26,177c45.73-51.91,97.88-16,119.49,10.54C535.65,251.22,601.31,426.7,793.94,380"/><path class="cls-2" d="M263.5,236.63s68.28-22.13,97.31-52.29c44.33-46.08,93.7-13.18,114.19,11,49.71,58.79,122.88,223.75,302.62,182.25"/><path class="cls-2" d="M264.5,237.32s64.26-18.82,92.86-45.68c42.85-40.23,89.54-10.39,108.89,11.56,47.54,53.91,128.19,208.37,295.06,172.12"/><path class="cls-2" d="M265.5,238S325.67,222.5,353.91,199c41.27-34.42,85.38-7.61,103.59,12.06,45.4,49,133.5,193,287.5,162"/><path class="cls-2" d="M266.5,238.7s56-12.21,84-32.45c39.56-28.64,81.24-4.83,98.29,12.57C492,263,587.56,396.45,728.69,370.7"/><path class="cls-2" d="M267.5,239.38s51.76-8.93,79.51-25.82c37.71-22.95,77.11-2.06,93,13.07,41.19,39.28,144.12,162.25,272.38,141.75"/><path class="cls-2" d="M268.5,240.07s47.4-5.74,75.07-19.21c35.7-17.39,73,.7,87.68,13.59,39.15,34.36,149.44,146.87,264.81,131.62"/><path class="cls-2" d="M269.5,240.76s42.95-2.68,70.62-12.59c33.57-12,68.92,3.43,82.38,14.09,37.17,29.42,154.75,131.5,257.25,121.5"/><path class="cls-2" d="M270.5,241.45s38.43.15,66.17-6c31.37-6.93,64.86,6.15,77.08,14.6C449,274.46,573.81,366.2,663.44,361.45"/><path class="cls-2" d="M271.5,242.13s33.94,2.67,61.72.65c29.21-2.13,60.84,8.81,71.78,15.1,33.44,19.24,165.38,100.75,242.12,101.25"/><path class="cls-2" d="M272.5,242.82s29.62,4.83,57.27,7.26c27.27,2.39,56.84,11.41,66.48,15.62,31.71,13.83,170.69,85.37,234.56,91.12"/><path class="cls-2" d="M273.5,243.51s96.8,25.41,114,30c30,8,176,70,227,81"/></g></g></svg>