<svg xmlns="http://www.w3.org/2000/svg" viewBox="0 0 765.58 246.68"><defs><style>.cls-1{fill:none;stroke:#9b928c;stroke-miterlimit:10;}</style></defs><g id="图层_2" data-name="图层 2"><g id="图层_1-2" data-name="图层 1"><path class="cls-1" d="M765.12,107.51s-48-108.31-105-107c-87,2-8,133-157,115C401,103.17,230.82,246.3,230.82,246.3"/><path class="cls-1" d="M765,113.7S717.38,10.18,661.32,11c-54.7.94-43,53.41-66.63,85.27-13,17.47-36.93,28.81-87.89,22.64-100-12.13-265.17,125-266.68,124.92"/><path class="cls-1" d="M764.83,119.89S717.64,21,662.52,21.42c-53.17.41-42.87,50.32-66.21,80-12.85,16.35-36.58,26.75-85.84,20.77-97.8-11.9-258,119.2-261.05,119.05"/><path class="cls-1" d="M764.69,126.08s-46.78-94.19-101-94.21c-51.62,0-42.77,47.26-65.79,74.79-12.74,15.24-36.23,24.7-83.78,18.91C418.52,113.89,263.24,239,258.72,238.76"/><path class="cls-1" d="M764.55,132.27s-46.37-89.48-99.63-90c-50.08-.44-42.7,44.2-65.37,69.55-12.64,14.15-35.88,22.65-81.72,17C424.37,117.46,274,236.54,268,236.24"/><path class="cls-1" d="M764.4,138.46s-46-84.76-98.28-85.68c-48.54-.86-42.65,41.14-65,64.31-12.57,13.06-35.53,20.59-79.66,15.19C430.22,121,284.84,234.1,277.32,233.73"/><path class="cls-1" d="M764.26,144.65s-45.54-80-96.93-81.42c-47-1.27-42.65,38.1-64.53,59.07-12.52,12-35.19,18.54-77.62,13.33-89.11-11-229.53,96-238.56,95.59"/><path class="cls-1" d="M764.12,150.85S719,75.54,668.53,73.68c-45.46-1.67-42.68,35.06-64.11,53.84C591.94,138.45,569.58,144,528.86,139c-86.95-10.81-222.41,90.24-232.94,89.72"/><path class="cls-1" d="M764,157s-44.72-70.57-94.25-72.9c-43.91-2.07-42.76,32-63.69,48.59-12.48,9.89-34.49,14.43-73.5,9.61-84.78-10.59-215.28,84.44-227.32,83.85"/><path class="cls-1" d="M763.83,163.23s-44.3-65.83-92.9-68.64c-42.36-2.45-42.9,28.94-63.27,43.35-12.51,8.85-34.14,12.38-71.44,7.75-82.61-10.37-208.16,78.65-221.7,78"/><path class="cls-1" d="M763.69,169.42S719.81,108.35,672.13,105c-40.82-2.83-43.1,25.86-62.85,38.12-12.57,7.81-33.79,10.32-69.39,5.88-80.43-10.15-201,72.86-216.07,72.12"/><path class="cls-1" d="M763.55,175.61s-43.47-56.31-90.22-60.12c-39.27-3.19-43.38,22.73-62.43,32.88-12.68,6.77-33.44,8.27-67.33,4-78.26-9.94-193.9,67.06-210.45,66.25"/><path class="cls-1" d="M763.4,181.8s-43-51.54-88.87-55.85c-37.72-3.56-43.74,19.53-62,27.64-12.84,5.69-33.09,6.21-65.27,2.16C471.15,146,360.48,217,342.42,216.13"/><path class="cls-1" d="M763.26,188s-42.63-46.75-87.53-51.59c-36.17-3.9-44.16,16.26-61.58,22.4-13,4.6-32.75,4.16-63.22.3-73.93-9.5-179.65,55.48-199.21,54.52"/><path class="cls-1" d="M763.12,194.18s-42.21-42-86.19-47.33c-34.63-4.23-45.68,10-61.16,17.16a281.92,281.92,0,0,1-61.17-1.55c-71.75-9.29-172.51,49.68-193.58,48.65"/><path class="cls-1" d="M763,200.37s-41.8-37.13-84.84-43.06c-33.09-4.56-45.87,6.68-60.75,11.92-13.73-.25-32,.05-59.11-3.42-69.58-9.06-165.39,43.89-188,42.78"/><path class="cls-1" d="M762.83,206.56s-41.39-32.3-83.49-38.8c-31.55-4.87-45.7,5.81-60.33,6.68-13.83.83-31.7-2-57-5.28-67.41-8.84-158.26,38.09-182.34,36.92"/><path class="cls-1" d="M762.69,212.75s-41-27.45-82.15-34.54c-30-5.17-46.18,2.1-59.91,1.45-14.07-.68-31.35-4.06-55-7.14-65.24-8.63-151.14,32.29-176.72,31"/><path class="cls-1" d="M762.55,218.94S722,196.37,681.74,188.66c-28.48-5.45-46.58-1.69-59.49-3.79-14.23-2.31-31-6.11-52.94-9-63.07-8.41-144,26.5-171.09,25.18"/><path class="cls-1" d="M762.4,225.13s-40.19-17.67-79.46-26c-27-5.73-46.85-5.55-59.06-9A347.15,347.15,0,0,0,573,179.22c-60.9-8.19-136.88,20.71-165.47,19.32"/><path class="cls-1" d="M762.26,231.32s-39.81-12.74-78.12-21.75c-25.43-6-47-9.41-58.64-14.27-14.21-5.93-30.31-10.22-48.83-12.72-58.73-8-129.75,14.91-159.85,13.45"/><path class="cls-1" d="M762.12,237.51s-106.18-20.93-135-37c-61-34-160-5-201-7"/><path class="cls-1" d="M407.12,128.51s-11.25-54.12-99-20c-108,42-234,70-308,52"/><path class="cls-1" d="M401.74,131.76S391.07,81,308.31,113.14C206.39,152.76,86.15,181.46,9.62,163.51"/><path class="cls-1" d="M396.37,135s-10.09-47.48-87.88-17.25C212.66,155,98.17,184.41,19.12,166.51"/><path class="cls-1" d="M391,138.26s-9.51-44.16-82.31-15.87c-89.75,34.87-198.48,65-280.06,47.12"/><path class="cls-1" d="M385.62,141.51s-8.94-40.84-76.75-14.5c-83.67,32.5-186.64,63.29-270.75,45.5"/><path class="cls-1" d="M380.24,144.76s-8.35-37.52-71.18-13.12c-77.59,30.12-174.8,61.61-261.44,43.87"/><path class="cls-1" d="M374.87,148s-7.78-34.2-65.63-11.75c-71.5,27.75-163,59.94-252.12,42.25"/><path class="cls-1" d="M369.49,151.26s-7.2-30.88-60.06-10.37C244,166.26,158.32,199.15,66.62,181.51"/><path class="cls-1" d="M364.12,154.51s-6.63-27.56-54.5-9c-59.34,23-139.28,56.59-233.5,39"/><path class="cls-1" d="M358.74,157.76s-6-24.24-48.93-7.62C256.55,170.76,182.37,205,85.62,187.51"/><path class="cls-1" d="M353.37,161s-5.47-20.92-43.38-6.25C262.82,173,194.4,208,95.12,190.51"/><path class="cls-1" d="M348,164.26s-4.89-17.6-37.81-4.87c-41.09,15.87-103.75,51.55-205.56,34.12"/><path class="cls-1" d="M342.62,167.51s-4.31-14.28-32.25-3.5c-35,13.5-91.91,49.88-196.25,32.5"/><path class="cls-1" d="M337.24,170.76s-3.73-11-26.68-2.12c-28.93,11.12-80.07,48.2-186.94,30.87"/><path class="cls-1" d="M331.87,174s-3.16-7.64-21.13-.75c-22.84,8.75-68.23,46.52-177.62,29.25"/><path class="cls-1" d="M326.49,177.26s-2.57-4.32-15.56.63c-16.76,6.38-56.39,44.84-168.31,27.62"/><path class="cls-1" d="M321.12,180.51s-2-1-10,2c-10.68,4-44.55,43.17-159,26"/></g></g></svg>