<svg xmlns="http://www.w3.org/2000/svg" viewBox="0 0 1209.31 341.27"><defs><style>.cls-1{fill:none;stroke:#9b928c;stroke-miterlimit:10;}</style></defs><g id="图层_2" data-name="图层 2"><g id="图层_1-2" data-name="图层 1"><path class="cls-1" d="M.18,23.92s137-54,278,2c103.75,41.2,5,120,308.89,144.57,198,16,287.11,150.43,287.11,150.43"/><path class="cls-1" d="M14.66,32.2s132.61-51.3,268.7,2.63C327.19,52.2,333.78,76.56,352,100.35c23.69,30.9,66.57,60.54,230.23,73.9,190,15.49,276.36,143.63,278.11,143.91"/><path class="cls-1" d="M29.14,40.49s128.21-48.62,259.4,3.24c42.13,16.67,48.79,40.07,66.6,62.85,23.51,30.08,65.52,58.5,222.3,71.42,181.91,15,265.61,136.84,269.12,137.39"/><path class="cls-1" d="M43.61,48.78s123.82-45.93,250.1,3.86c40.43,16,47.17,38.4,64.53,60.17,23.34,29.26,64.48,56.45,214.39,68.94,173.86,14.47,254.86,130.06,260.12,130.88"/><path class="cls-1" d="M58.09,57.06s119.43-43.23,240.8,4.49c38.73,15.26,45.55,36.72,62.46,57.49,23.17,28.44,63.43,54.41,206.46,66.46C733.63,199.45,811.92,308.77,819,309.87"/><path class="cls-1" d="M72.56,65.35s115-40.55,231.5,5.11c37,14.55,43.94,35,60.4,54.81,23,27.62,62.38,52.37,198.54,64,157.77,13.43,233.35,116.47,242.14,117.85"/><path class="cls-1" d="M87,73.63s110.64-37.85,222.2,5.74c35.34,13.84,42.33,33.35,58.33,52.12,22.84,26.8,61.32,50.33,190.62,61.52,149.73,12.92,222.6,109.68,233.14,111.34"/><path class="cls-1" d="M101.52,81.92s106.24-35.16,212.9,6.35c33.63,13.14,40.73,31.68,56.25,49.45,22.69,26,60.28,48.29,182.7,59,141.69,12.4,211.85,102.89,224.15,104.82"/><path class="cls-1" d="M116,90.2s101.86-32.46,203.6,7c31.94,12.44,39.14,30,54.19,46.77C396.32,169.1,433,190.2,548.56,200.51c133.64,11.89,201.1,96.11,215.15,98.31"/><path class="cls-1" d="M130.47,98.49s97.46-29.78,194.3,7.6c30.24,11.73,37.56,28.28,52.12,44.09,22.41,24.31,58.18,44.2,166.85,54.09,125.6,11.37,190.35,89.31,206.16,91.79"/><path class="cls-1" d="M145,106.78S238,79.69,329.94,115c28.55,11,36,26.58,50.06,41.41,22.28,23.48,57.13,42.16,158.93,51.61,117.55,10.85,179.59,82.52,197.16,85.28"/><path class="cls-1" d="M159.42,115.06s88.68-24.39,175.7,8.84c26.85,10.32,34.42,24.88,48,38.74,22.16,22.63,56.08,40.12,151,49.13C643.62,222.11,703,287.5,722.28,290.54"/><path class="cls-1" d="M173.9,123.35s84.28-21.71,166.4,9.46c25.14,9.61,32.86,23.16,45.91,36.05,22.06,21.79,55,38.09,143.09,46.67,101.46,9.82,158.09,68.94,179.17,72.25"/><path class="cls-1" d="M188.37,131.63s79.89-19,157.1,10.09c23.45,8.91,31.32,21.44,43.85,33.37,22,20.93,54,36,135.17,44.19,93.41,9.31,147.34,62.15,170.17,65.73"/><path class="cls-1" d="M202.85,139.92s75.49-16.32,147.8,10.71c21.75,8.2,29.78,19.7,41.78,30.69,21.89,20.05,52.93,34,127.24,41.71,85.37,8.79,136.59,55.36,161.18,59.22"/><path class="cls-1" d="M217.33,148.2s71.1-13.62,138.5,11.34c20.05,7.49,28.24,18,39.71,28,21.83,19.15,51.88,32,119.32,39.23,77.32,8.28,125.84,48.57,152.18,52.71"/><path class="cls-1" d="M231.8,156.49s66.71-10.94,129.2,11.95c18.35,6.79,26.73,16.21,37.64,25.34,21.8,18.23,50.84,29.91,111.4,36.76,69.28,7.76,115.09,41.78,143.19,46.19"/><path class="cls-1" d="M246.28,164.78s62.31-8.25,119.9,12.57c16.65,6.08,25.22,14.44,35.57,22.66,21.78,17.29,49.79,27.87,103.48,34.28,61.23,7.24,104.33,35,134.19,39.68"/><path class="cls-1" d="M260.75,173.06s57.93-5.55,110.6,13.2c15,5.38,23.73,12.65,33.51,20,21.79,16.31,48.73,25.84,95.56,31.81,53.19,6.73,93.58,28.2,125.19,33.16"/><path class="cls-1" d="M275.23,181.35s53.53-2.87,101.3,13.82c13.26,4.67,22.23,10.85,31.44,17.29,21.82,15.27,47.68,23.79,87.63,29.34,45.15,6.21,82.83,21.4,116.2,26.64"/><path class="cls-1" d="M289.71,189.63s49.13-.17,92,14.45a130.66,130.66,0,0,1,29.37,14.61c21.89,14.17,46.63,21.75,79.71,26.86,37.1,5.7,72.08,14.61,107.2,20.13"/><path class="cls-1" d="M304.18,197.92s71,4,110,27c46.39,27.35,99.86,27,170,38"/><path class="cls-1" d="M737.77,203.18s6.41-132.26,115.41-82.26c128.55,59,147,209,356,155"/><path class="cls-1" d="M743.22,207.37S749.52,80.68,853.9,129c122.72,56.5,140.66,201.81,345.62,150"/><path class="cls-1" d="M748.66,211.57s6.19-121.13,106-74.56c116.89,54,134.34,194.62,335.24,145"/><path class="cls-1" d="M754.11,215.76s5.94-115.28,101.22-70.7c110.91,51.89,128,187.43,324.85,140"/><path class="cls-1" d="M759.56,220s5.78-109.61,96.48-66.84c105,49.53,121.67,180.24,314.48,135"/><path class="cls-1" d="M765,224.14s5.63-103.95,91.75-63c99.16,47.16,115.34,173,304.1,130"/><path class="cls-1" d="M770.45,228.33s5.47-98.29,87-59.13c93.27,44.8,109,165.86,293.71,125"/><path class="cls-1" d="M775.9,232.52s5.31-92.63,82.28-55.27c87.4,42.42,102.67,158.67,283.34,120"/><path class="cls-1" d="M781.34,236.71s5.15-87,77.56-51.41c81.52,40,96.33,151.48,272.95,115"/><path class="cls-1" d="M786.79,240.9s5-81.32,72.82-47.55c75.65,37.66,90,144.28,262.57,110"/><path class="cls-1" d="M792.23,245.09s4.84-75.68,68.1-43.7c69.77,35.28,83.66,137.1,252.19,105"/><path class="cls-1" d="M797.68,249.28s4.67-70,63.36-39.84c63.9,32.88,77.33,129.91,241.81,100"/><path class="cls-1" d="M803.13,253.47s4.51-64.39,58.62-36c58,30.47,71,122.71,231.43,95"/><path class="cls-1" d="M808.57,257.67s4.35-58.77,53.9-32.13c52.17,28,64.67,115.52,221,90"/><path class="cls-1" d="M814,261.86s4.19-53.15,49.16-28.28c46.31,25.61,58.34,108.34,210.67,85"/><path class="cls-1" d="M819.47,266.05s4-47.54,44.43-24.42,52,101.15,200.28,80"/><path class="cls-1" d="M824.91,270.24s3.87-42,39.7-20.56c34.62,20.66,45.67,93.95,189.91,75"/><path class="cls-1" d="M830.36,274.43s3.72-36.39,35-16.7c28.78,18.13,39.33,86.76,179.52,70"/><path class="cls-1" d="M835.81,278.62s3.58-30.87,30.23-12.84c23,15.55,33,79.57,169.14,65"/><path class="cls-1" d="M841.25,282.81s3.5-25.44,25.5-9c17.24,12.89,26.67,72.38,158.77,60"/><path class="cls-1" d="M846.7,287s3.54-20.17,20.77-5.13c11.57,10.1,20.33,65.19,148.38,55"/><path class="cls-1" d="M852.15,291.19s4-15.27,16-1.27c6.14,7.16,14,58,138,50"/></g></g></svg>