<svg xmlns="http://www.w3.org/2000/svg" viewBox="0 0 1920.95 976.86"><defs><style>.cls-1{opacity:0.87;}.cls-2{fill:none;stroke:#9b928c;stroke-miterlimit:10;}</style></defs><g id="图层_2" data-name="图层 2"><g id="图层_1-2" data-name="图层 1"><g class="cls-1"><path class="cls-2" d="M.5,329.51s46-331,117-329,43,213,188,257,411,138,411,138"/><path class="cls-2" d="M5.68,329.07S48.93,17.38,119.62,19.63c68.08,2,44.4,200,183,241.43,139.28,41.48,392.17,129.85,394,130.07"/><path class="cls-2" d="M10.87,328.63S51.36,36.41,121.75,38.76c65.16,2.17,45.79,187,178,225.86,133.56,38.95,373.34,121.7,377.11,122.14"/><path class="cls-2" d="M16.06,328.2S53.8,55.36,123.87,57.88c62.25,2.25,47.18,174,173,210.29,127.84,36.44,354.52,113.55,360.17,114.21"/><path class="cls-2" d="M21.25,327.76S56.23,74.3,126,77c59.32,2.3,48.5,161.25,168,194.72C416.07,305.91,629.71,377.12,637.25,378"/><path class="cls-2" d="M26.43,327.32S58.67,93.24,128.12,96.13c56.41,2.36,49.89,148.3,163,179.15C407.46,307,608,372.53,617.43,373.63"/><path class="cls-2" d="M31.62,326.88S61.1,112.16,130.25,115.26c53.49,2.39,51.27,135.34,158,163.58,110.58,29.24,298,89.09,309.34,90.42"/><path class="cls-2" d="M36.81,326.45s26.72-195.37,95.56-192.07c50.57,2.43,52.66,122.39,153,148,104.86,26.77,279.22,80.94,292.4,82.49"/><path class="cls-2" d="M42,326s24-176,92.5-172.5c47.65,2.44,54.05,109.41,148,132.43,99.13,24.29,260.39,72.8,275.46,74.57"/><path class="cls-2" d="M47.18,325.57S68.4,168.89,136.62,172.63c44.74,2.46,55.45,96.43,143.05,116.87,93.41,21.79,241.57,64.64,258.51,66.63"/><path class="cls-2" d="M52.37,325.13s18.47-137.35,86.38-133.37c41.82,2.45,56.84,83.43,138.05,101.29,87.7,19.29,222.74,56.49,241.57,58.71"/><path class="cls-2" d="M57.56,324.7s15.71-118.06,83.31-113.82c38.91,2.44,58.25,70.43,133.06,85.73,82,16.76,203.92,48.34,224.63,50.77"/><path class="cls-2" d="M62.75,324.26S75.71,225.49,143,230c36,2.42,59.65,57.4,128.07,70.15,76.27,14.22,185.08,40.19,207.68,42.85"/><path class="cls-2" d="M67.93,323.82s10.22-79.51,77.19-74.69c33.08,2.39,61.07,44.35,123.08,54.59,70.57,11.65,166.26,32,190.73,34.91"/><path class="cls-2" d="M73.12,323.38s7.47-60.29,74.13-55.12c30.16,2.34,62.48,31.26,118.08,39,64.87,9.05,147.43,23.89,173.79,27"/><path class="cls-2" d="M78.31,323s4.73-41.12,71.06-35.57c27.25,2.29,63.9,18.14,113.09,23.45,59.18,6.38,128.61,15.73,156.85,19.05"/><path class="cls-2" d="M83.5,322.51s2-22,68-16c54.78,5,193.78,12.62,248,19"/><path class="cls-2" d="M257.5,232.51s91.68-41.66,124-92c52-81,118.84-29.93,146,8,63,88,91,316,348,243"/><path class="cls-2" d="M258.5,233.2s87.83-38.45,119.55-85.39c50.81-75.2,114.64-27.13,140.7,8.51C579.51,239.45,615.06,457,859.18,389.2"/><path class="cls-2" d="M259.5,233.88s84-35.21,115.1-78.76c49.6-69.41,110.44-24.34,135.4,9,58.53,78.26,101.62,285.25,332.87,222.75"/><path class="cls-2" d="M260.5,234.57s80.09-32,110.65-72.15c48.36-63.58,106.25-21.55,130.1,9.53,56.31,73.38,106.93,269.87,325.31,212.62"/><path class="cls-2" d="M261.5,235.26s76.19-28.71,106.2-65.53c47.07-57.76,102.07-18.76,124.8,10,54.09,68.52,112.25,254.5,317.75,202.5"/><path class="cls-2" d="M262.5,236S334.75,210.52,364.25,177c45.74-51.91,97.88-16,119.5,10.54C535.64,251.22,601.31,426.7,793.93,380"/><path class="cls-2" d="M263.5,236.63s68.28-22.13,97.3-52.29c44.34-46.08,93.71-13.18,114.2,11,49.71,58.79,122.87,223.75,302.62,182.25"/><path class="cls-2" d="M264.5,237.32s64.25-18.82,92.86-45.68c42.85-40.23,89.53-10.39,108.89,11.56,47.54,53.91,128.18,208.37,295.06,172.12"/><path class="cls-2" d="M265.5,238S325.67,222.5,353.91,199c41.26-34.42,85.38-7.61,103.59,12.06,45.39,49,133.5,193,287.5,162"/><path class="cls-2" d="M266.5,238.7s56-12.21,84-32.45c39.56-28.64,81.24-4.83,98.29,12.57C492,263,587.56,396.45,728.68,370.7"/><path class="cls-2" d="M267.5,239.38s51.75-8.93,79.51-25.82c37.71-22.95,77.11-2.06,93,13.07,41.19,39.28,144.12,162.25,272.37,141.75"/><path class="cls-2" d="M268.5,240.07s47.4-5.74,75.06-19.21c35.71-17.39,73,.7,87.69,13.59,39.15,34.36,149.43,146.87,264.81,131.62"/><path class="cls-2" d="M269.5,240.76s42.94-2.68,70.61-12.59c33.58-12,68.92,3.43,82.39,14.09,37.17,29.42,154.75,131.5,257.25,121.5"/><path class="cls-2" d="M270.5,241.45s38.43.15,66.16-6c31.38-6.93,64.87,6.15,77.09,14.6C449,274.46,573.81,366.2,663.43,361.45"/><path class="cls-2" d="M271.5,242.13s33.94,2.67,61.72.65c29.21-2.13,60.83,8.81,71.78,15.1,33.44,19.24,165.37,100.75,242.12,101.25"/><path class="cls-2" d="M272.5,242.82s29.61,4.83,57.27,7.26c27.26,2.39,56.83,11.41,66.48,15.62,31.71,13.83,170.68,85.37,234.56,91.12"/><path class="cls-2" d="M273.5,243.51s96.79,25.41,114,30c30,8,176,70,227,81"/><path class="cls-2" d="M1920.5,489.51s-48-108.31-105-107c-87,2-8,133-157,115-102.15-12.34-272.3,130.79-272.3,130.79"/><path class="cls-2" d="M1920.35,495.7S1872.75,392.18,1816.7,393c-54.71.94-43,53.41-66.64,85.27-13,17.47-36.92,28.8-87.89,22.63-100-12.12-265.17,125-266.67,124.92"/><path class="cls-2" d="M1920.21,501.89S1873,403,1817.9,403.41c-53.17.42-42.87,50.33-66.21,80-12.85,16.35-36.58,26.75-85.84,20.78-97.8-11.91-258,119.2-261,119"/><path class="cls-2" d="M1920.07,508.08s-46.79-94.2-101-94.21c-51.63,0-42.77,47.25-65.79,74.79-12.74,15.24-36.23,24.69-83.78,18.91C1573.9,495.88,1418.61,621,1414.1,620.76"/><path class="cls-2" d="M1919.92,514.27s-46.37-89.48-99.62-89.95c-50.08-.44-42.7,44.2-65.37,69.55-12.65,14.15-35.88,22.64-81.72,17.05-93.46-11.46-243.79,107.62-249.81,107.32"/><path class="cls-2" d="M1919.78,520.46s-46-84.76-98.28-85.69c-48.54-.85-42.65,41.15-65,64.32-12.57,13.06-35.53,20.58-79.67,15.19C1585.59,503,1440.22,616.1,1432.7,615.73"/><path class="cls-2" d="M1919.64,526.65s-45.55-80-96.94-81.42c-47-1.27-42.64,38.09-64.53,59.07-12.51,12-35.18,18.53-77.61,13.33-89.12-11-229.53,96-238.56,95.58"/><path class="cls-2" d="M1919.5,532.84s-45.14-75.31-95.6-77.16c-45.45-1.67-42.67,35.05-64.11,53.83C1747.31,520.45,1725,526,1684.24,521c-87-10.81-222.41,90.23-232.94,89.72"/><path class="cls-2" d="M1919.35,539s-44.71-70.57-94.25-72.9c-43.9-2.06-42.75,32-63.68,48.6-12.48,9.88-34.49,14.42-73.5,9.61-84.78-10.6-215.28,84.43-227.32,83.85"/><path class="cls-2" d="M1919.21,545.22s-44.3-65.82-92.9-68.63c-42.37-2.46-42.9,28.94-63.27,43.35-12.51,8.85-34.14,12.37-71.45,7.75-82.6-10.38-208.15,78.64-221.69,78"/><path class="cls-2" d="M1919.07,551.41s-43.88-61.07-91.56-64.37c-40.82-2.83-43.11,25.85-62.85,38.12-12.57,7.8-33.79,10.31-69.39,5.88-80.43-10.15-201,72.85-216.07,72.12"/><path class="cls-2" d="M1918.92,557.6s-43.46-56.3-90.21-60.11c-39.27-3.19-43.39,22.72-62.43,32.88-12.68,6.76-33.44,8.26-67.33,4-78.27-9.94-193.9,67.05-210.45,66.25"/><path class="cls-2" d="M1918.78,563.79s-43-51.53-88.87-55.85c-37.72-3.55-43.74,19.54-62,27.64-12.84,5.7-33.09,6.21-65.27,2.17-76.1-9.72-186.77,61.26-204.83,60.38"/><path class="cls-2" d="M1918.64,570s-42.63-46.75-87.53-51.59c-36.18-3.9-44.17,16.26-61.59,22.4-13,4.59-32.74,4.15-63.22.3-73.92-9.5-179.64,55.47-199.2,54.52"/><path class="cls-2" d="M1918.5,576.18s-42.22-41.95-86.19-47.33c-34.63-4.24-45.68,10-61.17,17.16a282.49,282.49,0,0,1-61.16-1.55c-71.75-9.29-172.51,49.67-193.58,48.64"/><path class="cls-2" d="M1918.35,582.37s-41.8-37.13-84.84-43.07c-33.09-4.56-45.86,6.69-60.74,11.93-13.73-.26-32,0-59.11-3.42-69.58-9.07-165.39,43.88-188,42.78"/><path class="cls-2" d="M1918.21,588.56s-41.39-32.3-83.5-38.8c-31.55-4.88-45.69,5.81-60.32,6.68-13.83.82-31.7-2-57.05-5.28-67.42-8.84-158.27,38.09-182.34,36.92"/><path class="cls-2" d="M1918.07,594.75s-41-27.45-82.15-34.54c-30-5.17-46.18,2.1-59.91,1.44-14.07-.67-31.35-4.06-55-7.13-65.24-8.63-151.13,32.29-176.71,31"/><path class="cls-2" d="M1917.92,600.94s-40.58-22.57-80.8-30.28c-28.48-5.45-46.58-1.69-59.49-3.79-14.24-2.32-31-6.12-52.94-9-63.07-8.41-144,26.5-171.09,25.18"/><path class="cls-2" d="M1917.78,607.13s-40.19-17.67-79.46-26c-27-5.72-46.86-5.54-59.07-9a345.4,345.4,0,0,0-50.88-10.86c-60.9-8.19-136.88,20.71-165.47,19.32"/><path class="cls-2" d="M1917.64,613.32s-39.81-12.74-78.12-21.75c-25.43-6-47-9.41-58.65-14.27-14.2-5.93-30.3-10.23-48.82-12.73-58.73-8-129.76,14.92-159.85,13.45"/><path class="cls-2" d="M1917.5,619.51s-106.18-20.93-135-37c-61-34-160-5-201-7"/><path class="cls-2" d="M1562.5,510.51s-11.25-54.13-99-20c-108,42-234,70-308,52"/><path class="cls-2" d="M1557.12,513.76s-10.67-50.81-93.44-18.63c-101.91,39.63-222.16,68.33-298.68,50.38"/><path class="cls-2" d="M1551.75,517s-10.1-47.49-87.88-17.25C1368,537,1253.55,566.41,1174.5,548.51"/><path class="cls-2" d="M1546.37,520.26s-9.51-44.17-82.31-15.88c-89.75,34.88-198.48,65-280.06,47.13"/><path class="cls-2" d="M1541,523.51s-8.94-40.85-76.75-14.5c-83.67,32.5-186.64,63.29-270.75,45.5"/><path class="cls-2" d="M1535.62,526.76s-8.36-37.52-71.19-13.13c-77.58,30.13-174.79,61.62-261.43,43.88"/><path class="cls-2" d="M1530.25,530s-7.78-34.2-65.63-11.75c-71.5,27.75-163,59.94-252.12,42.25"/><path class="cls-2" d="M1524.87,533.26s-7.2-30.88-60.06-10.38c-65.42,25.38-151.12,58.26-242.81,40.63"/><path class="cls-2" d="M1519.5,536.51s-6.63-27.56-54.5-9c-59.34,23-139.28,56.58-233.5,39"/><path class="cls-2" d="M1514.12,539.76s-6-24.24-48.94-7.63C1411.93,552.76,1337.75,587,1241,569.51"/><path class="cls-2" d="M1508.75,543s-5.47-20.92-43.38-6.25C1418.2,555,1349.78,590,1250.5,572.51"/><path class="cls-2" d="M1503.37,546.26s-4.89-17.6-37.81-4.88c-41.09,15.88-103.75,51.56-205.56,34.13"/><path class="cls-2" d="M1498,549.51s-4.32-14.28-32.25-3.5c-35,13.5-91.92,49.87-196.25,32.5"/><path class="cls-2" d="M1492.62,552.76s-3.73-11-26.69-2.13c-28.92,11.13-80.07,48.2-186.93,30.88"/><path class="cls-2" d="M1487.25,556s-3.16-7.64-21.13-.75c-22.84,8.75-68.23,46.52-177.62,29.25"/><path class="cls-2" d="M1481.87,559.26s-2.58-4.32-15.56.62c-16.76,6.38-56.39,44.85-168.31,27.63"/><path class="cls-2" d="M1476.5,562.51s-2-1-10,2c-10.68,4-44.55,43.17-159,26"/><path class="cls-2" d="M115.5,659.51s137-54,278,2c103.74,41.2,5,120,308.88,144.57,198,16,287.12,150.43,287.12,150.43"/><path class="cls-2" d="M130,667.79s132.61-51.3,268.7,2.63c43.83,17.37,50.42,41.73,68.67,65.52,23.7,30.9,66.57,60.54,230.23,73.9,189.95,15.49,276.36,143.63,278.12,143.91"/><path class="cls-2" d="M144.45,676.08s128.21-48.62,259.4,3.24c42.13,16.68,48.79,40.07,66.6,62.85,23.51,30.08,65.52,58.5,222.3,71.42,181.91,15,265.61,136.84,269.13,137.4"/><path class="cls-2" d="M158.92,684.37s123.82-45.93,250.1,3.86c40.44,16,47.17,38.4,64.54,60.17,23.33,29.26,64.47,56.45,214.38,68.94C861.8,831.81,942.8,947.4,948.07,948.22"/><path class="cls-2" d="M173.4,692.65s119.43-43.23,240.8,4.49c38.73,15.26,45.55,36.72,62.46,57.49,23.17,28.44,63.43,54.41,206.47,66.46C849,835,927.23,944.36,934.26,945.46"/><path class="cls-2" d="M187.88,700.94s115-40.55,231.5,5.11c37,14.55,43.93,35,60.39,54.81,23,27.62,62.38,52.37,198.54,64C836.09,838.28,911.67,941.32,920.45,942.7"/><path class="cls-2" d="M202.35,709.22S313,671.37,424.55,715c35.34,13.84,42.33,33.35,58.33,52.12,22.84,26.8,61.33,50.33,190.62,61.52,149.73,12.92,222.6,109.68,233.14,111.34"/><path class="cls-2" d="M216.83,717.51s106.25-35.16,212.9,6.35C463.37,737,470.46,755.54,486,773.31c22.68,26,60.27,48.29,182.69,59,141.69,12.4,211.85,102.9,224.15,104.83"/><path class="cls-2" d="M231.3,725.79s101.86-32.46,203.6,7c31.94,12.44,39.14,30,54.19,46.77,22.55,25.15,59.23,46.25,174.78,56.57C797.51,848,865,932.21,879,934.41"/><path class="cls-2" d="M245.78,734.08s97.46-29.78,194.3,7.6c30.24,11.73,37.56,28.28,52.12,44.09,22.41,24.31,58.18,44.21,166.86,54.09,125.59,11.37,190.34,89.31,206.15,91.79"/><path class="cls-2" d="M260.26,742.37s93.06-27.09,185,8.22c28.54,11,36,26.58,50.05,41.41,22.28,23.48,57.13,42.16,158.93,51.61,117.55,10.86,179.6,82.52,197.16,85.28"/><path class="cls-2" d="M274.73,750.65s88.68-24.39,175.7,8.85c26.85,10.31,34.42,24.87,48,38.73,22.16,22.63,56.08,40.12,151,49.13,109.5,10.34,168.84,75.73,188.16,78.77"/><path class="cls-2" d="M289.21,758.94s84.28-21.7,166.4,9.46c25.14,9.61,32.86,23.16,45.92,36.05,22.06,21.79,55,38.09,143.08,46.67,101.46,9.82,158.09,68.94,179.17,72.25"/><path class="cls-2" d="M303.69,767.22s79.88-19,157.1,10.09c23.44,8.91,31.31,21.44,43.84,33.37,22,20.93,54,36,135.17,44.19C733.21,864.18,787.14,917,810,920.6"/><path class="cls-2" d="M318.16,775.51s75.5-16.32,147.8,10.71c21.75,8.2,29.78,19.7,41.78,30.69,21.9,20.05,52.93,34,127.24,41.71,85.37,8.79,136.59,55.36,161.18,59.22"/><path class="cls-2" d="M332.64,783.79s71.1-13.62,138.5,11.34c20.05,7.49,28.25,18,39.71,28,21.84,19.15,51.88,32,119.32,39.24,77.32,8.27,125.84,48.56,152.18,52.7"/><path class="cls-2" d="M347.11,792.08s66.71-10.94,129.2,12c18.36,6.78,26.73,16.2,37.65,25.33,21.8,18.23,50.83,29.91,111.4,36.76,69.28,7.76,115.08,41.78,143.18,46.19"/><path class="cls-2" d="M361.59,800.37s62.31-8.25,119.9,12.57c16.65,6.08,25.22,14.44,35.57,22.66,21.79,17.29,49.79,27.87,103.48,34.28,61.24,7.25,104.34,35,134.19,39.68"/><path class="cls-2" d="M376.07,808.65s57.92-5.55,110.6,13.2c14.95,5.38,23.72,12.65,33.5,20,21.79,16.31,48.74,25.84,95.56,31.81,53.19,6.73,93.58,28.2,125.19,33.16"/><path class="cls-2" d="M390.54,816.94s53.53-2.86,101.3,13.82c13.26,4.67,22.23,10.85,31.44,17.29,21.83,15.27,47.68,23.79,87.63,29.34,45.15,6.21,82.83,21.4,116.2,26.64"/><path class="cls-2" d="M405,825.22s49.13-.17,92,14.45a130.45,130.45,0,0,1,29.37,14.61C548.28,868.45,573,876,606.1,881.14c37.1,5.7,72.08,14.62,107.2,20.13"/><path class="cls-2" d="M419.5,833.51s71,4,110,27c46.38,27.35,99.85,27,170,38"/><path class="cls-2" d="M853.08,838.77s6.42-132.26,115.42-82.26c128.54,59,147,209,356,155"/><path class="cls-2" d="M858.53,843s6.3-126.7,110.68-78.41c122.72,56.5,140.67,201.81,345.62,150"/><path class="cls-2" d="M864,847.16S870.16,726,969.92,772.6c116.89,54,134.34,194.62,335.24,145"/><path class="cls-2" d="M869.42,851.35s5.94-115.28,101.22-70.7c110.91,51.89,128,187.43,324.86,140"/><path class="cls-2" d="M874.87,855.54s5.78-109.61,96.48-66.84c105,49.53,121.67,180.24,314.48,135"/><path class="cls-2" d="M880.31,859.73s5.63-104,91.76-63c99.15,47.16,115.33,173,304.09,130"/><path class="cls-2" d="M885.76,863.92s5.47-98.29,87-59.13c93.28,44.8,109,165.86,293.72,125"/><path class="cls-2" d="M891.21,868.11s5.31-92.63,82.29-55.27c87.39,42.43,102.66,158.67,283.33,120"/><path class="cls-2" d="M896.65,872.3s5.15-87,77.56-51.41c81.52,40.05,96.33,151.48,273,115"/><path class="cls-2" d="M902.1,876.49s5-81.32,72.82-47.55c75.65,37.66,90,144.28,262.58,110"/><path class="cls-2" d="M907.55,880.68S912.38,805,975.64,837c69.77,35.27,83.66,137.09,252.19,105"/><path class="cls-2" d="M913,884.87s4.67-70,63.36-39.84c63.91,32.88,77.34,129.91,241.81,100"/><path class="cls-2" d="M918.44,889.07s4.51-64.4,58.63-36c58,30.47,71,122.71,231.43,95"/><path class="cls-2" d="M923.89,893.26s4.34-58.77,53.89-32.13c52.17,28,64.67,115.52,221,90"/><path class="cls-2" d="M929.33,897.45s4.19-53.15,49.17-28.27c46.31,25.61,58.33,108.33,210.66,85"/><path class="cls-2" d="M934.78,901.64s4-47.54,44.43-24.42,52,101.15,200.29,80"/><path class="cls-2" d="M940.23,905.83s3.87-42,39.69-20.56c34.62,20.66,45.67,94,189.91,75"/><path class="cls-2" d="M945.67,910s3.72-36.39,35-16.7c28.79,18.13,39.33,86.76,179.52,70"/><path class="cls-2" d="M951.12,914.21s3.59-30.87,30.23-12.84c23,15.55,33,79.57,169.15,65"/><path class="cls-2" d="M956.56,918.4s3.5-25.44,25.51-9c17.23,12.89,26.66,72.38,158.76,60"/><path class="cls-2" d="M962,922.59s3.54-20.17,20.77-5.13c11.58,10.1,20.33,65.19,148.38,55"/><path class="cls-2" d="M967.46,926.78s4-15.27,16-1.27c6.13,7.16,14,58,138,50"/></g></g></g></svg>