<svg xmlns="http://www.w3.org/2000/svg" xmlns:xlink="http://www.w3.org/1999/xlink" viewBox="0 0 1919.82 693.46"><defs><style>.cls-1,.cls-10{fill:none;stroke-miterlimit:10;}.cls-1{stroke-width:3px;stroke:url(#未命名的渐变_13);}.cls-2,.cls-3,.cls-4,.cls-5,.cls-6,.cls-7,.cls-8{fill:#e88149;}.cls-3{opacity:0;}.cls-4{opacity:0.1;}.cls-5{opacity:0.2;}.cls-6{opacity:0.3;}.cls-7{opacity:0.4;}.cls-8{opacity:0.5;}.cls-9{opacity:0.3;}.cls-10{stroke:#9b928c;}</style><linearGradient id="未命名的渐变_13" x1="81.51" y1="139.61" x2="1837.51" y2="139.61" gradientUnits="userSpaceOnUse"><stop offset="0" stop-color="#e88149"/><stop offset="0.06" stop-color="#ec986a" stop-opacity="0.81"/><stop offset="0.14" stop-color="#f1b28e" stop-opacity="0.59"/><stop offset="0.22" stop-color="#f5c7ad" stop-opacity="0.42"/><stop offset="0.3" stop-color="#f8d8c4" stop-opacity="0.28"/><stop offset="0.37" stop-color="#fae3d5" stop-opacity="0.18"/><stop offset="0.44" stop-color="#fcebe0" stop-opacity="0.12"/><stop offset="0.5" stop-color="#fcede3" stop-opacity="0.1"/><stop offset="0.55" stop-color="#fbe9de" stop-opacity="0.13"/><stop offset="0.62" stop-color="#f9dfcf" stop-opacity="0.21"/><stop offset="0.71" stop-color="#f6cfb8" stop-opacity="0.35"/><stop offset="0.81" stop-color="#f2b797" stop-opacity="0.55"/><stop offset="0.92" stop-color="#ed9a6d" stop-opacity="0.79"/><stop offset="1" stop-color="#e88149"/></linearGradient></defs><g id="图层_2" data-name="图层 2"><g id="图层_1-2" data-name="图层 1"><line class="cls-1" x1="81.51" y1="139.61" x2="1837.51" y2="139.61"/><rect class="cls-2" x="951.17" y="130.27" width="17.68" height="17.68" transform="translate(1540.47 916.31) rotate(-135)"/><path class="cls-3" d="M1419.15,649.61c-50,65-363,16-500,37-192.77,29.55-396-42-425-110-40.55-95.08,334,54,648-46C1350.85,464.15,1464,591.28,1419.15,649.61Z"/><path class="cls-4" d="M1347.55,641c-33.48,54.27-295.57,15-418.2,34.2-160.61,24.84-335-33.59-358.2-89.8-32.44-77.88,271.48,40.89,536.2-38.2C1287.37,493.42,1377.57,592.35,1347.55,641Z"/><path class="cls-5" d="M1276,632.41c-16.94,43.5-228.11,14.17-336.4,31.4-128.41,20.43-273.82-25.25-291.4-69.6-24.08-60.77,209.05,28,424.4-30.4C1224,522.78,1291.15,593.39,1276,632.41Z"/><path class="cls-6" d="M1204.35,623.81c-.4,32.61-160.67,13.21-254.6,28.6C853.5,668.18,737,635.54,725.15,603c-15.88-43.59,146.77,15.34,312.6-22.6C1160.64,552.29,1204.72,594.31,1204.35,623.81Z"/><path class="cls-7" d="M1132.75,615.21c15.86,21.61-93.25,12.17-172.8,25.8-64.11,11-151.7-8.45-157.8-29.2-7.74-26.37,84.7,3.36,200.8-14.8C1097.47,582.22,1118,595.14,1132.75,615.21Z"/><path class="cls-8" d="M1061.15,606.61c32,11-25.88,10.79-91,23-32,6-91,0-91-9s22.75-7,89-7S1031.25,596.33,1061.15,606.61Z"/><g class="cls-9"><path class="cls-10" d="M1919.4,331.29s-93.17-147.84-203.79-146c-168.85,2.73-15.52,181.54-304.7,157-198.23-16.84-528.47,178.53-528.47,178.53"/><path class="cls-10" d="M1919.12,339.74S1827,198.47,1718.32,199.58c-121.46,1.5-74.17,95.73-154,133.59-28.47,13.5-73,19.9-145.77,13.67-194.12-16.66-515,170.57-518,170.47"/><path class="cls-10" d="M1918.84,348.19S1827.77,213.26,1721,213.91c-117.84.73-75,90.77-152.36,125.52-28.15,12.64-71.93,18.13-142.53,12-190-16.48-501.57,162.61-507.59,162.4"/><path class="cls-10" d="M1918.56,356.64s-90-128.48-194.83-128.39c-114.23.09-75.89,85.77-150.71,117.43-27.84,11.78-70.87,16.36-139.28,10.42-185.89-16.31-488.13,154.65-497.15,154.34"/><path class="cls-10" d="M1918.29,365.09s-89-122-191.85-122.51c-110.61-.53-76.83,80.73-149.06,109.35-27.54,10.92-69.81,14.6-136,8.79C1259.57,344.6,966.67,507.43,954.64,507"/><path class="cls-10" d="M1918,373.54S1830.1,258,1729.14,256.92c-107-1.15-77.81,75.63-147.39,101.27C1554.47,368.24,1513,371,1449,365.35,1271.29,349.41,987.73,504.1,972.68,503.58"/><path class="cls-10" d="M1917.73,382s-86.85-109.06-185.88-110.73c-103.38-1.75-78.86,70.47-145.74,93.18-27,9.18-67.7,11.06-129.54,5.54C1283,354.22,1008.79,500.77,990.73,500.15"/><path class="cls-10" d="M1917.45,390.44s-85.8-102.57-182.9-104.85c-99.75-2.34-80,65.24-144.07,85.1-26.81,8.31-66.65,9.29-126.29,3.92C1294.74,359,1029.85,497.44,1008.78,496.72"/><path class="cls-10" d="M1917.18,398.89s-84.74-96.07-179.92-99c-96.13-2.92-81.11,59.93-142.42,77-26.61,7.41-65.59,7.52-123,2.28-165.34-15.4-420.89,114.88-445,114.06"/><path class="cls-10" d="M1916.9,407.34s-83.68-89.56-176.93-93.07c-92.52-3.49-82.32,54.54-140.77,68.93-26.42,6.51-64.53,5.75-119.79.66-161.22-15.22-407.44,106.93-434.53,106"/><path class="cls-10" d="M1916.62,415.79s-82.62-83-173.95-87.19c-88.89-4-83.58,49.06-139.1,60.85-26.28,5.58-63.48,4-116.55-1-157.11-15-394,99-424.09,97.94"/><path class="cls-10" d="M1916.35,424.24s-81.57-76.51-171-81.3c-85.27-4.57-84.89,43.47-137.45,52.77-26.14,4.62-62.42,2.21-113.3-2.59-153-14.87-380.55,91-413.65,89.87"/><path class="cls-10" d="M1916.07,432.69s-80.5-70-168-75.42c-81.64-5.09-86.24,37.78-135.79,44.69-26,3.63-61.35.45-110-4.21-148.88-14.69-367.1,83.05-403.21,81.81"/><path class="cls-10" d="M1915.79,441.14s-79.44-63.4-165-69.53c-78-5.59-87.63,31.95-134.13,36.6-25.93,2.6-60.3-1.31-106.81-5.84-144.77-14.5-353.65,75.1-392.77,73.76"/><path class="cls-10" d="M1915.51,449.59s-78.38-56.82-162-63.64c-74.41-6.08-89,26-132.48,28.52-25.85,1.49-59.24-3.09-103.56-7.47-140.65-14.32-340.2,67.15-382.33,65.7"/><path class="cls-10" d="M1915.24,458s-77.33-50.21-159-57.76c-70.78-6.54-90.47,19.93-130.82,20.44-25.77.32-58.18-4.85-100.31-9.09-136.54-14.15-326.75,59.19-371.9,57.64"/><path class="cls-10" d="M1915,466.49s-76.27-43.58-156-51.87c-67.17-7-91.9,13.72-129.16,12.35-25.7-.94-57.13-6.62-97.07-10.71-132.43-14-313.31,51.23-361.46,49.58"/><path class="cls-10" d="M1914.68,474.94s-75.22-36.92-153.07-46c-63.55-7.4-93.28,7.39-127.5,4.28-25.59-2.33-56.07-8.39-93.82-12.35-128.31-13.78-299.86,43.28-351,41.53"/><path class="cls-10" d="M1914.4,483.39s-74.18-30.22-150.08-40.1c-60-7.8-94.6.92-125.84-3.81-25.45-3.86-55-10.16-90.58-14-124.2-13.6-286.41,35.33-340.58,33.47"/><path class="cls-10" d="M1914.13,491.84S1841,468.35,1767,457.63c-56.35-8.18-95.83-5.66-124.19-11.9-25.23-5.55-54-11.92-87.32-15.59-120.1-13.43-273,27.37-330.15,25.41"/><path class="cls-10" d="M1913.85,500.29s-72.12-16.7-144.12-28.33c-52.75-8.52-96.91-12.31-122.53-20a481,481,0,0,0-84.07-17.21c-116-13.25-259.52,19.41-319.71,17.34"/><path class="cls-10" d="M1913.57,508.74s-206.06-28.57-262-50.5c-118.39-46.41-310.53-6.83-390.1-9.56"/><path class="cls-10" d="M1224.59,360s-21.83-73.88-192.13-27.3c-209.61,57.33-454.15,95.55-597.76,71"/><path class="cls-10" d="M1214.16,364.4s-20.71-69.35-181.34-25.43C835,393.06,601.66,432.23,453.13,407.73"/><path class="cls-10" d="M1203.73,368.83s-19.59-64.82-170.55-23.54c-186,50.84-408.18,91-561.61,66.54"/><path class="cls-10" d="M1193.3,373.27S1174.83,313,1033.55,351.6C859.36,399.2,648.35,440.28,490,415.92"/><path class="cls-10" d="M1182.87,377.7s-17.35-55.75-149-19.79C871.53,402.27,671.69,444.3,508.44,420"/><path class="cls-10" d="M1172.44,382.14s-16.23-51.22-138.16-17.92C883.7,405.35,695,448.33,526.88,424.11"/><path class="cls-10" d="M1162,386.58s-15.1-46.69-127.36-16c-138.77,37.88-316.26,81.81-489.32,57.67"/><path class="cls-10" d="M1151.57,391s-14-42.15-116.57-14.16c-127,34.64-293.28,79.53-471.24,55.45"/><path class="cls-10" d="M1141.14,395.45s-12.86-37.62-105.77-12.29c-115.16,31.4-270.3,77.24-453.18,53.24"/><path class="cls-10" d="M1130.71,399.88s-11.74-33.09-95-10.4c-103.36,28.15-247.32,74.94-435.1,51"/><path class="cls-10" d="M1120.28,404.32s-10.62-28.56-84.18-8.53c-91.56,24.91-224.34,72.66-417,48.8"/><path class="cls-10" d="M1109.85,408.76s-9.49-24-73.39-6.66c-79.75,21.68-201.36,70.37-399,46.58"/><path class="cls-10" d="M1099.41,413.19s-8.36-19.49-62.59-4.77c-67.94,18.43-178.38,68.08-380.88,44.36"/><path class="cls-10" d="M1089,417.63s-7.24-15-51.79-2.9c-56.14,15.19-155.4,65.79-362.81,42.14"/><path class="cls-10" d="M1078.55,422.07s-6.12-10.43-41-1C993.22,433,905.13,484.54,692.82,461"/><path class="cls-10" d="M1068.12,426.5s-5-5.9-30.2.86c-32.53,8.7-109.44,61.21-326.66,37.7"/><path class="cls-10" d="M1057.69,430.94s-3.88-1.37-19.41,2.73c-20.72,5.46-86.46,58.92-308.59,35.49"/><path class="cls-10" d="M1.12,165.48C255.36,293.79,341.68,372.17,341.68,372.17"/><path class="cls-10" d="M2.41,176c54.33,27.41,113.85,52.3,157.14,77,141.13,80.57,200.66,127.24,208.7,125.55"/><path class="cls-10" d="M3.7,186.41C55.31,212.46,125.78,236,171.3,262c140.31,80.11,207.44,126.29,223.52,122.91"/><path class="cls-10" d="M5,196.88c48.89,24.67,130.3,46.78,178,74.05C322.54,350.59,397.28,396.27,421.4,391.2"/><path class="cls-10" d="M6.29,207.34c46.18,23.31,138.52,44,188.5,72.58C333.47,359.11,415.81,404.3,448,397.54"/><path class="cls-10" d="M7.58,217.81c43.47,21.93,146.75,41.27,199,71.09,137.87,78.73,227.81,123.44,268,115"/><path class="cls-10" d="M8.88,228.27c40.74,20.56,155,38.51,209.4,69.61,137.06,78.28,234.59,122.49,282.83,112.35"/><path class="cls-10" d="M10.17,238.74c38,19.19,163.19,35.75,219.85,68.12C366.27,384.68,471.4,428.4,527.69,416.57"/><path class="cls-10" d="M11.47,249.2c35.31,17.82,171.41,33,230.3,66.65C377.2,393.2,489.94,436.43,554.26,422.91"/><path class="cls-10" d="M12.76,259.67c32.6,16.45,179.63,30.23,240.76,65.16,134.61,76.89,255,119.64,327.31,104.43"/><path class="cls-10" d="M14.05,270.13c29.88,15.08,187.86,27.48,251.21,63.68C399.06,410.25,527,452.5,607.4,435.6"/><path class="cls-10" d="M15.35,280.6C42.51,294.3,211.43,305.32,277,342.79c133,76,268.52,117.74,357,99.15"/><path class="cls-10" d="M16.64,291.06c24.45,12.34,204.3,22,272.11,60.72,132.17,75.51,275.31,116.78,371.8,96.5"/><path class="cls-10" d="M17.94,301.53c21.73,11,212.52,19.2,282.56,59.23,131.35,75.06,282.09,115.83,386.62,93.87"/><path class="cls-10" d="M19.23,312c19,9.6,220.75,16.45,293,57.75C442.79,444.34,601.13,484.63,713.69,461"/><path class="cls-10" d="M20.52,322.46c16.3,8.22,229,13.68,303.47,56.27,129.73,74.13,295.67,113.93,416.27,88.58"/><path class="cls-10" d="M21.82,332.92C35.4,339.77,259,343.85,335.73,387.71c128.92,73.67,302.46,113,431.11,85.94"/><path class="cls-10" d="M23.11,343.39c10.87,5.48,245.42,8.17,324.37,53.3,128.1,73.22,309.24,112,445.93,83.3"/><path class="cls-10" d="M24.4,353.85C32.55,358,278,359.26,359.23,405.67c127.28,72.76,316,111.09,460.75,80.67"/><path class="cls-10" d="M25.7,364.32C31.13,367.06,287.56,367,371,414.66c126.47,72.29,322.82,110.13,475.58,78"/><path class="cls-10" d="M27,374.78c2.72,1.37,270.09-.1,355.73,48.86C508.37,495.48,712.32,532.82,873.13,499"/><path class="cls-10" d="M28.29,385.25s278.3-2.87,366.17,47.37C519.3,504,730.85,540.85,899.7,505.36"/><path class="cls-10" d="M.5,165.07s16-232.66,288.66-144.71c321.51,103.73,385.41,299.37,845.37,291.18"/><path class="cls-10" d="M14.12,172.44S29.88-50.42,290.94,34.52c306.94,99.39,368.73,290,821.56,281.49"/><path class="cls-10" d="M27.74,179.82s15.48-213.07,265-131.15c292.36,95.05,352,280.57,797.74,271.82"/><path class="cls-10" d="M41.36,187.19s15-202.73,253.16-124.36C572.09,154.17,629.87,334,1068.43,325"/><path class="cls-10" d="M55,194.56S69.66,1.81,296.3,77C559.23,164.19,615,338.76,1046.4,329.45"/><path class="cls-10" d="M68.61,201.93S82.93,19.16,298.09,91.14c248.28,83.07,302,252.38,726.27,242.79"/><path class="cls-10" d="M82.23,209.3s14-172.8,217.65-104c233.63,78.91,285.29,243,702.45,233.11"/><path class="cls-10" d="M95.85,216.68s13.64-162.83,205.81-97.22C520.65,194.22,570.27,353,980.3,342.89"/><path class="cls-10" d="M109.47,224.05s13.29-152.87,194-90.44c204.34,70.6,251.93,224.19,654.81,213.76"/><path class="cls-10" d="M123.1,231.42S136,88.52,305.24,147.77c189.69,66.43,235.24,214.79,631,204.08"/><path class="cls-10" d="M136.72,238.79S149.31,105.84,307,161.92c175.06,62.25,218.56,205.4,607.18,194.41"/><path class="cls-10" d="M150.34,246.16s12.24-123,158.47-70.08c160.41,58,201.87,196,583.35,184.73"/><path class="cls-10" d="M164,253.54s11.89-113.06,146.64-63.3c145.77,53.83,185.18,186.6,559.53,175"/><path class="cls-10" d="M177.59,260.91s11.53-103.14,134.79-56.52C443.53,254,480.88,381.6,848.09,369.76"/><path class="cls-10" d="M191.21,268.28s11.18-93.22,123-49.73C430.69,263.88,466,386.35,826.06,374.24"/><path class="cls-10" d="M204.83,275.65S215.65,192.32,316,232.71c101.9,41,135.13,158.4,488.08,146"/><path class="cls-10" d="M218.45,283s10.47-73.47,99.29-36.16C405,283.53,436.18,395.87,782,383.2"/><path class="cls-10" d="M232.07,290.4S242.2,226.72,319.53,261C392.23,293.26,421.28,400.63,760,387.68"/><path class="cls-10" d="M245.7,297.77s9.79-53.95,75.61-22.6c58.15,27.7,85.08,130.22,416.62,117"/><path class="cls-10" d="M259.32,305.14s9.51-44.39,63.78-15.81c43.66,23,68.39,120.82,392.79,107.31"/><path class="cls-10" d="M272.94,312.51s9.41-35.15,51.95-9c29.3,18,51.7,111.42,369,97.63"/><path class="cls-10" d="M286.56,319.88s10.1-26.86,40.11-2.24c15.36,12.6,35,102,345.16,88"/></g></g></g></svg>