<svg xmlns="http://www.w3.org/2000/svg" xmlns:xlink="http://www.w3.org/1999/xlink" viewBox="0 0 672.94 1021.73"><defs><style>.cls-1{fill:none;stroke-miterlimit:10;stroke-width:3px;stroke:url(#未命名的渐变_82);}.cls-2{opacity:0.5;}.cls-3{fill:url(#未命名的渐变_10);}.cls-4{fill:url(#未命名的渐变_9);}.cls-5{fill:url(#未命名的渐变_9-2);}.cls-6{fill:url(#未命名的渐变_10-2);}.cls-7{fill:url(#未命名的渐变_9-3);}.cls-8{fill:url(#未命名的渐变_9-4);}.cls-9{fill:url(#未命名的渐变_10-3);}.cls-10{fill:url(#未命名的渐变_9-5);}.cls-11{fill:url(#未命名的渐变_9-6);}.cls-12{fill:url(#未命名的渐变_10-4);}.cls-13{fill:url(#未命名的渐变_9-7);}.cls-14{fill:url(#未命名的渐变_9-8);}.cls-15{fill:url(#未命名的渐变_10-5);}.cls-16{fill:url(#未命名的渐变_9-9);}.cls-17{fill:url(#未命名的渐变_9-10);}</style><linearGradient id="未命名的渐变_82" x1="379.9" y1="981.29" x2="379.9" gradientUnits="userSpaceOnUse"><stop offset="0" stop-color="#fcede3" stop-opacity="0.1"/><stop offset="0.12" stop-color="#faeadc" stop-opacity="0.13"/><stop offset="0.28" stop-color="#f5e2c9" stop-opacity="0.21"/><stop offset="0.46" stop-color="#edd4a9" stop-opacity="0.35"/><stop offset="0.64" stop-color="#e2c17c" stop-opacity="0.53"/><stop offset="0.84" stop-color="#d4a844" stop-opacity="0.77"/><stop offset="1" stop-color="#c6910e"/></linearGradient><linearGradient id="未命名的渐变_10" x1="87.47" y1="714.54" x2="174.79" y2="714.54" gradientUnits="userSpaceOnUse"><stop offset="0" stop-color="#cea55b"/><stop offset="0.28" stop-color="#d9ba82"/><stop offset="0.91" stop-color="#f5ede3"/><stop offset="1" stop-color="#f9f5f2"/></linearGradient><linearGradient id="未命名的渐变_9" x1="114.62" y1="961.73" x2="114.62" y2="722.14" gradientUnits="userSpaceOnUse"><stop offset="0" stop-color="#f9f5f2" stop-opacity="0"/><stop offset="0.1" stop-color="#f7f2ec" stop-opacity="0.04"/><stop offset="0.25" stop-color="#f3eadd" stop-opacity="0.14"/><stop offset="0.44" stop-color="#ecdcc4" stop-opacity="0.31"/><stop offset="0.65" stop-color="#e2caa1" stop-opacity="0.54"/><stop offset="0.88" stop-color="#d5b274" stop-opacity="0.83"/><stop offset="1" stop-color="#cea55b"/></linearGradient><linearGradient id="未命名的渐变_9-2" x1="158.32" y1="961.73" x2="158.32" y2="706.81" xlink:href="#未命名的渐变_9"/><linearGradient id="未命名的渐变_10-2" x1="119" y1="875.71" x2="206.32" y2="875.71" xlink:href="#未命名的渐变_10"/><linearGradient id="未命名的渐变_9-3" x1="146.15" y1="980.23" x2="146.15" y2="883.32" xlink:href="#未命名的渐变_9"/><linearGradient id="未命名的渐变_9-4" x1="189.85" y1="980.23" x2="189.85" y2="867.99" xlink:href="#未命名的渐变_9"/><linearGradient id="未命名的渐变_10-3" x1="0" y1="839.71" x2="87.32" y2="839.71" xlink:href="#未命名的渐变_10"/><linearGradient id="未命名的渐变_9-5" x1="27.15" y1="944.23" x2="27.15" y2="847.32" xlink:href="#未命名的渐变_9"/><linearGradient id="未命名的渐变_9-6" x1="70.85" y1="944.23" x2="70.85" y2="831.99" xlink:href="#未命名的渐变_9"/><linearGradient id="未命名的渐变_10-4" x1="585.47" y1="774.54" x2="672.79" y2="774.54" xlink:href="#未命名的渐变_10"/><linearGradient id="未命名的渐变_9-7" x1="612.62" y1="1021.73" x2="612.62" y2="782.14" xlink:href="#未命名的渐变_9"/><linearGradient id="未命名的渐变_9-8" x1="656.32" y1="1021.73" x2="656.32" y2="766.81" xlink:href="#未命名的渐变_9"/><linearGradient id="未命名的渐变_10-5" x1="552" y1="860.71" x2="639.32" y2="860.71" xlink:href="#未命名的渐变_10"/><linearGradient id="未命名的渐变_9-9" x1="579.15" y1="965.23" x2="579.15" y2="868.32" xlink:href="#未命名的渐变_9"/><linearGradient id="未命名的渐变_9-10" x1="622.85" y1="965.23" x2="622.85" y2="852.99" xlink:href="#未命名的渐变_9"/></defs><g id="图层_2" data-name="图层 2"><g id="图层_1-2" data-name="图层 1"><rect class="cls-1" x="175.82" y="1.5" width="408.15" height="978.29"/><g class="cls-2"><polygon class="cls-3" points="141.77 722.14 87.47 722.14 120.48 706.93 174.79 706.93 141.77 722.14"/><rect class="cls-4" x="87.47" y="722.14" width="54.3" height="239.59"/><polygon class="cls-5" points="174.94 946.4 141.71 961.73 141.71 722.14 174.94 706.81 174.94 946.4"/></g><g class="cls-2"><polygon class="cls-6" points="173.3 883.32 119 883.32 152.02 868.11 206.32 868.11 173.3 883.32"/><rect class="cls-7" x="119" y="883.32" width="54.3" height="96.91"/><polygon class="cls-8" points="206.47 964.9 173.24 980.23 173.24 883.32 206.47 867.99 206.47 964.9"/></g><g class="cls-2"><polygon class="cls-9" points="54.3 847.32 0 847.32 33.02 832.11 87.32 832.11 54.3 847.32"/><rect class="cls-10" y="847.32" width="54.3" height="96.91"/><polygon class="cls-11" points="87.47 928.9 54.24 944.23 54.24 847.32 87.47 831.99 87.47 928.9"/></g><g class="cls-2"><polygon class="cls-12" points="639.77 782.14 585.47 782.14 618.49 766.93 672.79 766.93 639.77 782.14"/><rect class="cls-13" x="585.47" y="782.14" width="54.3" height="239.59"/><polygon class="cls-14" points="672.94 1006.4 639.71 1021.73 639.71 782.14 672.94 766.81 672.94 1006.4"/></g><g class="cls-2"><polygon class="cls-15" points="606.3 868.32 552 868.32 585.02 853.11 639.32 853.11 606.3 868.32"/><rect class="cls-16" x="552" y="868.32" width="54.3" height="96.91"/><polygon class="cls-17" points="639.47 949.9 606.24 965.23 606.24 868.32 639.47 852.99 639.47 949.9"/></g></g></g></svg>