<svg xmlns="http://www.w3.org/2000/svg" viewBox="0 0 761.12 360.18"><defs><style>.cls-1{opacity:0.3;}.cls-2{fill:none;stroke:#9b928c;stroke-miterlimit:10;}</style></defs><g id="图层_2" data-name="图层 2"><g id="图层_1-2" data-name="图层 1"><g class="cls-1"><path class="cls-2" d="M760.64,286.43S669-1.21,611.69.51,577,183.64,460,221.47,128.42,340.11,128.42,340.11"/><path class="cls-2" d="M760.64,291S669.51,20.27,611.47,21.48c-20.27.43-30.63,23.21-40.92,53.65-17.93,53.38-37,130.58-109.48,153.28-113.67,35.64-319.48,111.75-321.13,112"/><path class="cls-2" d="M760.64,295.59S670.05,41.76,611.26,42.46c-19.74.23-30.2,21.46-40.53,49.79-17.89,49.7-38.22,121.8-108.6,143.1C351.78,268.81,154.76,340.22,151.45,340.63"/><path class="cls-2" d="M760.64,300.17S670.6,63.27,611,63.44c-19.2.05-29.84,19.67-40.13,45.93-18,46-39.4,113-107.72,132.93-107,31.26-295.25,98-300.22,98.59"/><path class="cls-2" d="M760.64,304.75s-89.5-220-149.82-220.34c-18.66-.12-29.43,17.91-39.73,42.08-18,42.25-40.59,104.23-106.85,122.75-103.72,29.08-283.13,91.08-289.76,91.91"/><path class="cls-2" d="M760.64,309.33s-88.95-203-150-203.94c-18.14-.28-29,16.15-39.33,38.22-18,38.55-41.78,95.45-106,112.58-100.4,26.89-271,84.18-279.31,85.22"/><path class="cls-2" d="M760.64,313.9s-88.4-186-150.25-187.54c-17.6-.43-28.6,14.38-38.93,34.37-18,34.84-43,86.66-105.1,102.4-97.09,24.7-258.91,77.29-268.85,78.54"/><path class="cls-2" d="M760.64,318.48s-87.84-169-150.47-171.14c-17.06-.59-28.18,12.61-38.53,30.51-18,31.12-44.14,77.88-104.23,92.23-93.77,22.51-246.79,70.4-258.39,71.85"/><path class="cls-2" d="M760.64,323.06S673.35,171.09,610,168.31c-16.52-.72-27.75,10.85-38.13,26.66-18,27.4-45.32,69.09-103.35,82C378,297.34,233.79,340.53,220.53,342.19"/><path class="cls-2" d="M760.64,327.64S673.9,192.73,609.74,189.29c-16-.86-27.32,9.07-37.74,22.8C554,235.77,525.5,272.4,469.53,284,382.39,302.1,247,340.58,232.05,342.45"/><path class="cls-2" d="M760.64,332.22s-86.19-117.83-151.12-122c-15.45-1-26.88,7.29-37.34,18.94-17.92,20-47.68,51.52-101.6,61.7-83.82,15.95-210.45,49.72-227,51.8"/><path class="cls-2" d="M760.64,336.8S675,236.09,609.3,231.24c-14.91-1.1-26.43,5.53-36.94,15.09-17.86,16.25-48.86,42.74-100.72,51.53C391.14,311.61,273.3,340.68,255.08,343"/><path class="cls-2" d="M760.64,341.37s-85.1-83.54-151.56-89.15c-14.37-1.22-26,3.76-36.54,11.23-17.77,12.55-50,34-99.84,41.35-77.19,11.57-186.23,35.93-206.11,38.43"/><path class="cls-2" d="M760.64,346s-84.57-66.35-151.77-72.76c-13.84-1.32-25.49,2-36.15,7.38-17.67,8.88-51.22,25.17-99,31.18-73.86,9.37-174.11,29-195.65,31.74"/><path class="cls-2" d="M760.64,350.53s-84-49.11-152-56.36a89,89,0,0,0-35.74,3.52c-17.56,5.25-52.41,16.39-98.1,21-70.55,7.19-162,22.15-185.19,25.06"/><path class="cls-2" d="M760.64,355.11s-83.52-31.83-152.21-40a164,164,0,0,0-35.34-.34c-17.45,1.68-53.59,7.6-97.22,10.82-67.24,5-149.89,15.26-174.74,18.38"/><path class="cls-2" d="M760.64,359.69s-114.89-20.05-187.37-27.76c-44.16-4.7-216.88,6.85-260.63,12.34"/></g><g class="cls-1"><path class="cls-2" d="M498.74,200s-74-35.82-100-79.1c-41.95-69.64-95.88-25.73-117.79,6.88C230.08,203.41,207.49,399.43.14,336.67"/><path class="cls-2" d="M497.93,200.56s-70.88-33.07-96.45-73.41c-41-64.68-92.49-23.33-113.51,7.32-49,71.46-77.71,258.46-274.66,200.21"/><path class="cls-2" d="M497.13,201.15s-67.78-30.3-92.87-67.71c-40.05-59.72-89.1-20.94-109.23,7.75C247.82,208.45,213,386.43,26.47,332.7"/><path class="cls-2" d="M496.32,201.74s-64.66-27.52-89.28-62C368,85,321.33,121.18,302.09,147.9c-45.42,63.07-86.28,232-262.46,182.81"/><path class="cls-2" d="M495.51,202.34S434,177.6,409.82,146c-38.05-49.74-82.33-16.15-100.67,8.62-43.63,58.88-90.57,218.81-256.36,174.1"/><path class="cls-2" d="M494.71,202.93S436.34,181,412.59,152.28c-37-44.73-78.94-13.75-96.39,9.06C274.37,216,221.36,366.93,66,326.73"/><path class="cls-2" d="M493.9,203.52s-55.17-19.1-78.53-45c-35.88-39.72-75.56-11.35-92.11,9.49C283.2,218.54,224.13,360.42,79.11,324.74"/><path class="cls-2" d="M493.09,204.11s-51.94-16.26-74.94-39.27c-34.7-34.7-72.2-9-87.83,9.93-38.31,46.3-103.42,179.15-238,148"/><path class="cls-2" d="M492.29,204.7s-48.66-13.42-71.36-33.58c-33.44-29.7-68.84-6.57-83.55,10.37-36.57,42.1-107.7,165.93-231.95,139.28"/><path class="cls-2" d="M491.48,205.29s-45.31-10.57-67.77-27.88c-32.08-24.73-65.49-4.19-79.27,10.79-34.85,37.91-112,152.72-225.85,130.58"/><path class="cls-2" d="M490.67,205.88s-41.88-7.75-64.18-22.19c-30.59-19.82-62.16-1.81-75,11.23-33.17,33.7-116.28,139.5-219.75,121.87"/><path class="cls-2" d="M489.87,206.47s-38.37-5-60.6-16.5c-29-15-58.84.57-70.71,11.67C327,231.12,238,327.91,144.91,314.8"/><path class="cls-2" d="M489.06,207.06s-34.75-2.33-57-10.81c-27.21-10.37-55.54,2.92-66.43,12.1C335.7,233.59,240.77,321.41,158.07,312.81"/><path class="cls-2" d="M488.25,207.66s-31.08.12-53.42-5.13c-25.38-6-52.27,5.26-62.15,12.54C344.3,236,243.54,314.91,171.23,310.83"/><path class="cls-2" d="M487.45,208.25s-27.42,2.3-49.84.56c-23.58-1.83-49,7.56-57.87,13-26.93,16.5-133.42,86.62-195.34,87"/><path class="cls-2" d="M486.64,208.84s-23.91,4.16-46.25,6.25c-22,2.06-45.81,9.79-53.59,13.41-25.55,11.89-137.71,73.41-189.24,78.35"/><path class="cls-2" d="M485.83,209.43s-78.09,21.85-92,25.79c-24.21,6.88-142,60.18-183.14,69.64"/></g></g></g></svg>