<svg xmlns="http://www.w3.org/2000/svg" xmlns:xlink="http://www.w3.org/1999/xlink" viewBox="0 0 1069.47 368.92"><defs><style>.cls-1{opacity:0.5;}.cls-2{fill:url(#未命名的渐变_10);}.cls-3{fill:url(#未命名的渐变_9);}.cls-4{fill:url(#未命名的渐变_9-2);}.cls-5{fill:url(#未命名的渐变_10-2);}.cls-6{fill:url(#未命名的渐变_9-3);}.cls-7{fill:url(#未命名的渐变_9-4);}.cls-8{fill:url(#未命名的渐变_10-3);}.cls-9{fill:url(#未命名的渐变_9-5);}.cls-10{fill:url(#未命名的渐变_9-6);}.cls-11{fill:url(#未命名的渐变_10-4);}.cls-12{fill:url(#未命名的渐变_9-7);}.cls-13{fill:url(#未命名的渐变_9-8);}.cls-14{fill:url(#未命名的渐变_10-5);}.cls-15{fill:url(#未命名的渐变_9-9);}.cls-16{fill:url(#未命名的渐变_9-10);}.cls-17{fill:url(#未命名的渐变_10-6);}.cls-18{fill:url(#未命名的渐变_9-11);}.cls-19{fill:url(#未命名的渐变_9-12);}.cls-20{fill:url(#未命名的渐变_10-7);}.cls-21{fill:url(#未命名的渐变_9-13);}.cls-22{fill:url(#未命名的渐变_9-14);}.cls-23{fill:url(#未命名的渐变_10-8);}.cls-24{fill:url(#未命名的渐变_9-15);}.cls-25{fill:url(#未命名的渐变_9-16);}</style><linearGradient id="未命名的渐变_10" x1="119" y1="7.72" x2="206.32" y2="7.72" gradientUnits="userSpaceOnUse"><stop offset="0" stop-color="#cea55b"/><stop offset="0.28" stop-color="#d9ba82"/><stop offset="0.91" stop-color="#f5ede3"/><stop offset="1" stop-color="#f9f5f2"/></linearGradient><linearGradient id="未命名的渐变_9" x1="146.15" y1="254.92" x2="146.15" y2="15.33" gradientUnits="userSpaceOnUse"><stop offset="0" stop-color="#f9f5f2" stop-opacity="0"/><stop offset="0.1" stop-color="#f7f2ec" stop-opacity="0.04"/><stop offset="0.25" stop-color="#f3eadd" stop-opacity="0.14"/><stop offset="0.44" stop-color="#ecdcc4" stop-opacity="0.31"/><stop offset="0.65" stop-color="#e2caa1" stop-opacity="0.54"/><stop offset="0.88" stop-color="#d5b274" stop-opacity="0.83"/><stop offset="1" stop-color="#cea55b"/></linearGradient><linearGradient id="未命名的渐变_9-2" x1="189.85" y1="254.92" x2="189.85" y2="0" xlink:href="#未命名的渐变_9"/><linearGradient id="未命名的渐变_10-2" y1="223.72" x2="206.32" y2="223.72" xlink:href="#未命名的渐变_10"/><linearGradient id="未命名的渐变_9-3" x1="146.15" y1="368.92" x2="146.15" y2="231.33" xlink:href="#未命名的渐变_9"/><linearGradient id="未命名的渐变_9-4" x1="189.85" y1="368.92" x2="189.85" y2="216" xlink:href="#未命名的渐变_9"/><linearGradient id="未命名的渐变_10-3" x1="72" y1="175.72" x2="159.32" y2="175.72" xlink:href="#未命名的渐变_10"/><linearGradient id="未命名的渐变_9-5" x1="99.15" y1="320.92" x2="99.15" y2="183.33" xlink:href="#未命名的渐变_9"/><linearGradient id="未命名的渐变_9-6" x1="142.85" y1="320.92" x2="142.85" y2="168" xlink:href="#未命名的渐变_9"/><linearGradient id="未命名的渐变_10-4" x1="0" y1="136.72" x2="87.32" y2="136.72" xlink:href="#未命名的渐变_10"/><linearGradient id="未命名的渐变_9-7" x1="27.15" y1="281.92" x2="27.15" y2="144.33" xlink:href="#未命名的渐变_9"/><linearGradient id="未命名的渐变_9-8" x1="70.85" y1="281.92" x2="70.85" y2="129" xlink:href="#未命名的渐变_9"/><linearGradient id="未命名的渐变_10-5" x1="843" y1="7.72" x2="930.32" y2="7.72" xlink:href="#未命名的渐变_10"/><linearGradient id="未命名的渐变_9-9" x1="870.15" y1="254.92" x2="870.15" y2="15.33" xlink:href="#未命名的渐变_9"/><linearGradient id="未命名的渐变_9-10" x1="913.85" y1="254.92" x2="913.85" y2="0" xlink:href="#未命名的渐变_9"/><linearGradient id="未命名的渐变_10-6" x1="843" y1="223.72" x2="930.32" y2="223.72" xlink:href="#未命名的渐变_10"/><linearGradient id="未命名的渐变_9-11" x1="870.15" y1="368.92" x2="870.15" y2="231.33" xlink:href="#未命名的渐变_9"/><linearGradient id="未命名的渐变_9-12" x1="913.85" y1="368.92" x2="913.85" y2="216" xlink:href="#未命名的渐变_9"/><linearGradient id="未命名的渐变_10-7" x1="915" y1="175.72" x2="1002.32" y2="175.72" xlink:href="#未命名的渐变_10"/><linearGradient id="未命名的渐变_9-13" x1="942.15" y1="320.92" x2="942.15" y2="183.33" xlink:href="#未命名的渐变_9"/><linearGradient id="未命名的渐变_9-14" x1="985.85" y1="320.92" x2="985.85" y2="168" xlink:href="#未命名的渐变_9"/><linearGradient id="未命名的渐变_10-8" x1="982" y1="114.72" x2="1069.32" y2="114.72" xlink:href="#未命名的渐变_10"/><linearGradient id="未命名的渐变_9-15" x1="1009.15" y1="259.92" x2="1009.15" y2="122.33" xlink:href="#未命名的渐变_9"/><linearGradient id="未命名的渐变_9-16" x1="1052.85" y1="259.92" x2="1052.85" y2="107" xlink:href="#未命名的渐变_9"/></defs><g id="图层_2" data-name="图层 2"><g id="图层_1-2" data-name="图层 1"><g class="cls-1"><polygon class="cls-2" points="173.3 15.33 119 15.33 152.02 0.12 206.32 0.12 173.3 15.33"/><rect class="cls-3" x="119" y="15.33" width="54.3" height="239.59"/><polygon class="cls-4" points="206.47 239.59 173.24 254.92 173.24 15.33 206.47 0 206.47 239.59"/></g><g class="cls-1"><polygon class="cls-5" points="173.3 231.33 119 231.33 152.02 216.12 206.32 216.12 173.3 231.33"/><rect class="cls-6" x="119" y="231.33" width="54.3" height="137.59"/><polygon class="cls-7" points="206.47 353.59 173.24 368.92 173.24 231.33 206.47 216 206.47 353.59"/></g><g class="cls-1"><polygon class="cls-8" points="126.3 183.33 72 183.33 105.02 168.12 159.32 168.12 126.3 183.33"/><rect class="cls-9" x="72" y="183.33" width="54.3" height="137.59"/><polygon class="cls-10" points="159.47 305.59 126.24 320.92 126.24 183.33 159.47 168 159.47 305.59"/></g><g class="cls-1"><polygon class="cls-11" points="54.3 144.33 0 144.33 33.02 129.12 87.32 129.12 54.3 144.33"/><rect class="cls-12" y="144.33" width="54.3" height="137.59"/><polygon class="cls-13" points="87.47 266.59 54.24 281.92 54.24 144.33 87.47 129 87.47 266.59"/></g><g class="cls-1"><polygon class="cls-14" points="897.3 15.33 843 15.33 876.02 0.12 930.32 0.12 897.3 15.33"/><rect class="cls-15" x="843" y="15.33" width="54.3" height="239.59"/><polygon class="cls-16" points="930.47 239.59 897.24 254.92 897.24 15.33 930.47 0 930.47 239.59"/></g><g class="cls-1"><polygon class="cls-17" points="897.3 231.33 843 231.33 876.02 216.12 930.32 216.12 897.3 231.33"/><rect class="cls-18" x="843" y="231.33" width="54.3" height="137.59"/><polygon class="cls-19" points="930.47 353.59 897.24 368.92 897.24 231.33 930.47 216 930.47 353.59"/></g><g class="cls-1"><polygon class="cls-20" points="969.3 183.33 915 183.33 948.02 168.12 1002.32 168.12 969.3 183.33"/><rect class="cls-21" x="915" y="183.33" width="54.3" height="137.59"/><polygon class="cls-22" points="1002.47 305.59 969.24 320.92 969.24 183.33 1002.47 168 1002.47 305.59"/></g><g class="cls-1"><polygon class="cls-23" points="1036.3 122.33 982 122.33 1015.02 107.12 1069.32 107.12 1036.3 122.33"/><rect class="cls-24" x="982" y="122.33" width="54.3" height="137.59"/><polygon class="cls-25" points="1069.47 244.59 1036.24 259.92 1036.24 122.33 1069.47 107 1069.47 244.59"/></g></g></g></svg>