<svg xmlns="http://www.w3.org/2000/svg" xmlns:xlink="http://www.w3.org/1999/xlink" viewBox="0 0 528 56"><defs><style>.cls-1,.cls-2{fill:none;stroke-miterlimit:10;stroke-width:5px;}.cls-1{stroke:url(#未命名的渐变_79);}.cls-2{stroke:url(#未命名的渐变_2);}.cls-3{fill:url(#未命名的渐变_38);}.cls-4{fill:#e88149;}</style><linearGradient id="未命名的渐变_79" y1="27.39" x2="45.3" y2="27.39" gradientUnits="userSpaceOnUse"><stop offset="0" stop-color="#fcede3" stop-opacity="0.3"/><stop offset="1" stop-color="#484440"/></linearGradient><linearGradient id="未命名的渐变_2" x1="482.7" y1="28.09" x2="528" y2="28.09" gradientUnits="userSpaceOnUse"><stop offset="0" stop-color="#484440"/><stop offset="1" stop-color="#fcede3" stop-opacity="0.3"/></linearGradient><linearGradient id="未命名的渐变_38" x1="69" y1="28" x2="459" y2="28" gradientUnits="userSpaceOnUse"><stop offset="0" stop-color="#e88149"/><stop offset="0.23" stop-color="#f1b28f" stop-opacity="0.59"/><stop offset="0.41" stop-color="#f8d7c5" stop-opacity="0.28"/><stop offset="0.5" stop-color="#fbe6da" stop-opacity="0.16"/><stop offset="0.64" stop-color="#f5c6ab" stop-opacity="0.43"/><stop offset="0.81" stop-color="#eea177" stop-opacity="0.73"/><stop offset="0.94" stop-color="#ea8a56" stop-opacity="0.93"/><stop offset="1" stop-color="#e88149"/></linearGradient></defs><g id="图层_2" data-name="图层 2"><g id="图层_1-2" data-name="图层 1"><line class="cls-1" y1="27.39" x2="45.3" y2="27.39"/><line class="cls-2" x1="482.7" y1="28.09" x2="528" y2="28.09"/><rect class="cls-3" x="69" y="1.5" width="390" height="53" rx="9.41"/><path class="cls-4" d="M449.59,3a7.92,7.92,0,0,1,7.91,7.91V45.09A7.92,7.92,0,0,1,449.59,53H78.41a7.92,7.92,0,0,1-7.91-7.91V10.91A7.92,7.92,0,0,1,78.41,3H449.59m0-3H78.41A10.9,10.9,0,0,0,67.5,10.91V45.09A10.9,10.9,0,0,0,78.41,56H449.59A10.9,10.9,0,0,0,460.5,45.09V10.91A10.9,10.9,0,0,0,449.59,0Z"/></g></g></svg>