<svg xmlns="http://www.w3.org/2000/svg" xmlns:xlink="http://www.w3.org/1999/xlink" viewBox="0 0 528 164.77"><defs><style>.cls-1{fill:url(#未命名的渐变_7);}.cls-2{fill:url(#未命名的渐变_7-2);}.cls-3{fill:url(#未命名的渐变_7-3);}.cls-4{fill:url(#未命名的渐变_7-4);}.cls-5{fill:url(#未命名的渐变_7-5);}.cls-6{fill:url(#未命名的渐变_7-6);}.cls-7{fill:url(#未命名的渐变_7-7);}.cls-8{fill:url(#未命名的渐变_7-8);}.cls-9{fill:url(#未命名的渐变_7-9);}.cls-10{fill:url(#未命名的渐变_17);}.cls-11{fill:url(#未命名的渐变_17-2);}.cls-12{fill:url(#未命名的渐变_17-3);}.cls-13{fill:url(#未命名的渐变_17-4);}.cls-14,.cls-15{fill:none;stroke-miterlimit:10;stroke-width:5px;}.cls-14{stroke:url(#未命名的渐变_79);}.cls-15{stroke:url(#未命名的渐变_2);}</style><linearGradient id="未命名的渐变_7" x1="69.35" y1="143.06" x2="110.34" y2="143.06" gradientTransform="translate(1.46 -0.24) rotate(0.06)" gradientUnits="userSpaceOnUse"><stop offset="0" stop-color="#fcede3"/><stop offset="1" stop-color="#484440"/></linearGradient><linearGradient id="未命名的渐变_7-2" x1="112.22" y1="143.92" x2="154.17" y2="143.92" xlink:href="#未命名的渐变_7"/><linearGradient id="未命名的渐变_7-3" x1="155.34" y1="143.07" x2="197.16" y2="143.07" xlink:href="#未命名的渐变_7"/><linearGradient id="未命名的渐变_7-4" x1="197.92" y1="143.29" x2="240.18" y2="143.29" xlink:href="#未命名的渐变_7"/><linearGradient id="未命名的渐变_7-5" x1="241.29" y1="143.59" x2="283.1" y2="143.59" xlink:href="#未命名的渐变_7"/><linearGradient id="未命名的渐变_7-6" x1="284.34" y1="143.82" x2="326.38" y2="143.82" xlink:href="#未命名的渐变_7"/><linearGradient id="未命名的渐变_7-7" x1="327.17" y1="143.47" x2="369.49" y2="143.47" xlink:href="#未命名的渐变_7"/><linearGradient id="未命名的渐变_7-8" x1="370.58" y1="143.67" x2="412.89" y2="143.67" xlink:href="#未命名的渐变_7"/><linearGradient id="未命名的渐变_7-9" x1="413.95" y1="143.22" x2="456.02" y2="143.22" xlink:href="#未命名的渐变_7"/><linearGradient id="未命名的渐变_17" x1="90.27" y1="73.74" x2="90.27" y2="0.39" gradientUnits="userSpaceOnUse"><stop offset="0" stop-color="#f9f5f2" stop-opacity="0.7"/><stop offset="0.1" stop-color="#eddebd" stop-opacity="0.77"/><stop offset="0.22" stop-color="#e1c687" stop-opacity="0.84"/><stop offset="0.35" stop-color="#d7b35b" stop-opacity="0.9"/><stop offset="0.49" stop-color="#d0a439" stop-opacity="0.94"/><stop offset="0.63" stop-color="#ca9921" stop-opacity="0.98"/><stop offset="0.79" stop-color="#c79313" stop-opacity="0.99"/><stop offset="1" stop-color="#c6910e"/></linearGradient><linearGradient id="未命名的渐变_17-2" x1="206.16" y1="74.14" x2="206.16" y2="0" xlink:href="#未命名的渐变_17"/><linearGradient id="未命名的渐变_17-3" x1="322.05" y1="74.08" x2="322.05" y2="0.06" xlink:href="#未命名的渐变_17"/><linearGradient id="未命名的渐变_17-4" x1="437.94" y1="73.94" x2="437.94" y2="0.2" xlink:href="#未命名的渐变_17"/><linearGradient id="未命名的渐变_79" y1="147.22" x2="45.3" y2="147.22" gradientUnits="userSpaceOnUse"><stop offset="0" stop-color="#fcede3" stop-opacity="0.3"/><stop offset="1" stop-color="#484440"/></linearGradient><linearGradient id="未命名的渐变_2" x1="482.7" y1="147.92" x2="528" y2="147.92" gradientUnits="userSpaceOnUse"><stop offset="0" stop-color="#484440"/><stop offset="1" stop-color="#fcede3" stop-opacity="0.3"/></linearGradient></defs><g id="图层_2" data-name="图层 2"><g id="图层_1-2" data-name="图层 1"><path class="cls-1" d="M93.05,144.27h5.21l1.1-1.85c.36-.64,1-.7,1.77-.17l4.28,2.62c.87.64.7,1.32-.5,2v10.27c0,.65,0,2,.16,4.12q.12,2.15-4.38,2.27c-1.26.14-1.88-.17-1.85-.93v-3.7H82.68v2.69q-.09.75-1.26,1.32a6.42,6.42,0,0,1-2.61.61c-1.74.22-2.42-.23-2-1.35.06-.76.1-1.74.13-2.94s0-2.19,0-3V145.44a11.47,11.47,0,0,0-.16-2.28c-.34-.95-.28-1.37.17-1.26a18,18,0,0,1,3,.81,10.76,10.76,0,0,1,3.26,1.56h4.46c.23-3.45.34-6.9.35-10.35l-16.5,0-.84-1.09c1.63.11,3.4.17,5.31.17H88l.09-7.23a17.37,17.37,0,0,0-.17-2.69c-.28-.62-.22-.9.17-.85a27.89,27.89,0,0,1,3.62.55c1.68.34,2.64.75,2.86,1.23.17.19-.2.56-1.09,1.09l-.1,7.91h9.68l2.11-3c.47-.7.84-1,1.09-.84a14.23,14.23,0,0,1,2.9,2,11.63,11.63,0,0,1,2.48,2.36q.09.55-.42.42H93.39C93.39,136.59,93.27,140,93.05,144.27ZM82.69,145.7v12.36l16.16,0v-13H83.45A8.38,8.38,0,0,1,82.69,145.7Z"/><path class="cls-2" d="M118.46,142.53c-1.26-.22-2-1.12-2.1-2.69-.31-1.83-1.07-2.89-2.27-3.2-.67-.37-.73-.65-.17-.84a10.38,10.38,0,0,1,5.24.7,3.52,3.52,0,0,1,2.08,3.43C121.15,141.44,120.23,142.31,118.46,142.53Zm.9,19.86c-2.35.39-3.28-1-2.77-4.12a5.58,5.58,0,0,0,.26-3q0-2.31-2.86-4.38c-.25-.28-.25-.45,0-.5l3,.17c.36.08.61-.08.75-.51l9.36-19.93q.42-.49.51,0l-5.91,19.52a11.16,11.16,0,0,0-.51,3.7,11.68,11.68,0,0,0,.84,3.2C123,159.7,122.17,161.64,119.36,162.39Zm2.73-30.46a2.88,2.88,0,0,1-2.86-3.11c-.5-1.91-1.46-3-2.86-3.37-.75-.34-.75-.67,0-1a12.24,12.24,0,0,1,6.06.76,3.9,3.9,0,0,1,2.52,3.88A3,3,0,0,1,122.09,131.93Zm0,31.31c-.51-.15-.54-.4-.09-.76a28.64,28.64,0,0,0,13.48-11.43,39.24,39.24,0,0,1-5.53-23.15H127l-.84-1.09a20.75,20.75,0,0,0,2.69.17h13.8l1.35-1.35c.51-.7.84-1,1-.84a22.56,22.56,0,0,1,2.94,2.09,19.89,19.89,0,0,1,2.69,2.3c.28.3-.05.61-1,.92l-.67.08a70.92,70.92,0,0,1-3.06,10.22,49.94,49.94,0,0,1-5,9.72,20.31,20.31,0,0,0,14.21,6q.68.33,0,.75a7.49,7.49,0,0,0-5.22,4.71c-.14.81-.56,1-1.26.67a29.33,29.33,0,0,1-10.77-8.09A33.6,33.6,0,0,1,122.06,163.24Zm15.83-16.31a57.37,57.37,0,0,0,5-19l-12.11,0a34.55,34.55,0,0,0,2,10.08A29,29,0,0,0,137.89,146.93Z"/><path class="cls-3" d="M170.79,151.25a52.86,52.86,0,0,0-7.92,11.94.24.24,0,0,1-.42,0L159,157.72a.5.5,0,0,1,.25-.42,7.29,7.29,0,0,0,1.73-2.52,5.11,5.11,0,0,0,.13-1.69l0-16.91h-3.71l-.75-1a30,30,0,0,0,4.29.17l1.09-1.35c.37-.64.9-.67,1.6-.08l3.2,2.44c1,.43.81,1.1-.68,2V153l4.29-2.43C170.9,150.55,171,150.77,170.79,151.25ZM165,130.63a3,3,0,0,1-2.16-.82,2.38,2.38,0,0,1-.53-2.38,2.68,2.68,0,0,0-.58-2.29,6.9,6.9,0,0,0-2-1.75c-.25-.34-.25-.59,0-.76a14.51,14.51,0,0,1,6,1.31,4.48,4.48,0,0,1,2.78,3.66C168.26,129.46,167.11,130.46,165,130.63Zm18-2.51a43.27,43.27,0,0,0-1.1,4.46h5.22l1.1-1.35c.36-.64.89-.67,1.59-.08l3.37,2.44c1,.42.81,1.1-.68,2-.67,3.11-1.1,5.08-1.27,5.89H192l2-2.86a1.06,1.06,0,0,1,1-.67,5.63,5.63,0,0,1,2,1.81,8,8,0,0,1,1.47,2.23q-.16.55-.42.42l-29.62,0-.84-1.09c1.65.11,3.45.17,5.39.17h1.85q1.09-4.58,1.69-8.07h-5.39l-.84-1a27.59,27.59,0,0,0,4,.17h2.44c.42-2,.76-3.9,1-5.81h-7.23l-.93-1.09c1.71.11,3.51.17,5.39.17l14.89,0,1.77-2.52a1,1,0,0,1,.93-.59,7.51,7.51,0,0,1,2,1.64,10.2,10.2,0,0,1,1.62,1.89c-.11.43-.25.59-.42.51H184.27A4.22,4.22,0,0,0,183,128.12Zm-11.13,20.19a9,9,0,0,0-.16-1.85c-.42-.79-.37-1.24.17-1.35a8.75,8.75,0,0,1,2.31.59,14.22,14.22,0,0,1,2.65,1.18h11.78l1-1.34c.48-.65,1-.67,1.68-.08l3.2,2.44c1,.48.81,1.15-.68,2v5.8a12.91,12.91,0,0,0,0,1.64c0,1,.08,1.92.16,2.91.23,1.37-.9,2.07-3.37,2.1-1.12.11-1.68-.14-1.68-.76v-2.78H176.5v2.94c-.2,1-1.24,1.46-3.12,1.52q-2.17.33-1.68-1.35c.06-.79.1-1.81.13-3.07s0-2.29,0-3.07v-7.49Zm4.62,9.59,12.46,0v-10.1H177.35c.06.17-.22.36-.84.59ZM180,141.5h6.56l1.19-8.08h-6C181.1,136.2,180.5,138.89,180,141.5Z"/><path class="cls-4" d="M211,131.18h2.19v-5.3a20.33,20.33,0,0,0-.16-2.69c-.2-.62-.14-.9.16-.84a18.3,18.3,0,0,1,3,.55c1.39.33,2.17.74,2.33,1.22.14.22-.16.53-.92.92v6.15h3.11v-5.3a18.09,18.09,0,0,0-.17-2.69c-.28-.62-.22-.9.17-.85a21.55,21.55,0,0,1,3.07.55q2.19.51,2.49,1.23c.14.22-.17.53-.93.92v6.14h2.53l1.43-1.43c.42-.51.93-.48,1.51.08L234,132c1.06.57.87,1.16-.59,1.77l0,15.9h.34l2.36-2.69c.39-.7.76-1,1.09-.84a9,9,0,0,1,2.34,1.84,12.59,12.59,0,0,1,1.95,2.12c.08.37-.08.51-.51.42l-40.81,0-.92-1.09c1.63.17,3.39.25,5.3.26h1.35V133a16.84,16.84,0,0,0-.16-2.7c-.2-.67-.14-1,.17-.92a12.13,12.13,0,0,1,2.35.59A13.61,13.61,0,0,1,211,131.18Zm6.2,24.74q-4.17,2.57-8.48,4.81a42,42,0,0,1-8.78,3.42c-.64,0-.75-.17-.33-.5a43.62,43.62,0,0,0,7.22-5.27,32.51,32.51,0,0,0,5.75-6.75c.14-.31.33-.37.59-.17a47.82,47.82,0,0,1,5.34,2.87c.64.47.91.81.79,1S218.44,155.87,217.23,155.92Zm-6.71-23.23v7.24h2.7v-7.82h-1.77C211.39,132.27,211.08,132.47,210.52,132.69Zm0,17h2.69v-8.92h-2.7Zm7.08-17.58v7.83h3.12v-7.83Zm0,17.59h3.12v-8.92h-3.12Zm4.88,3.87c-.39-.31-.39-.53,0-.67A25.52,25.52,0,0,1,232,155q4.14,1.86,4.77,4.68a3.51,3.51,0,0,1-3.46,4.12,3,3,0,0,1-2.48-1,11.18,11.18,0,0,1-1.38-3.11,8.13,8.13,0,0,0-2.88-3.92A17,17,0,0,0,222.45,153.57Zm2.88-21.45v7.82h3v-7.83Zm3,8.67h-3v8.92h3Z"/><path class="cls-5" d="M255.37,136.78v1.6h1.34l1.43-1.85c.2-.4.45-.59.76-.59a5.34,5.34,0,0,1,1.83,1.3,6.81,6.81,0,0,1,1.37,1.56q.12.55-.51.42h-6.23v3.11h.93l1.6-1.76a.66.66,0,0,1,.67-.42,10.64,10.64,0,0,1,1.6,1.18,5.89,5.89,0,0,1,1.51,1.51q.09.56-.42.42h-5.89v3.45h1.76l1.52-1.94a.79.79,0,0,1,.84-.42,6.56,6.56,0,0,1,1.79,1.27,6.18,6.18,0,0,1,1.41,1.51q.07.56-.42.42h-6.9V150a7.28,7.28,0,0,1,4.21.8,3.88,3.88,0,0,1,2.1,3.07,2.39,2.39,0,0,1-2.11,2.61c-1.62,0-2.43-.93-2.43-2.78,0-1.51-.59-2.41-1.77-2.69V163c-.28.81-1.26,1.26-3,1.34q-2.05.28-1.68-1.26a23.35,23.35,0,0,0,.22-2.93c0-1.19,0-2.15,0-2.88v-3.11a42.39,42.39,0,0,1-7.74,6.55c-.68.23-.82,0-.42-.67a31.46,31.46,0,0,0,6.66-12.45h-5.73l-.75-1.1a23,23,0,0,0,3,.26h5v-3.45h-5.13l-.92-1.1a27,27,0,0,0,3.11.17h3v-3.12h-6.23l-.92-1.1a28.79,28.79,0,0,0,3.2.26h4v-.92a14.29,14.29,0,0,0-.25-2.7c-.22-.67-.14-1,.25-.92a23.47,23.47,0,0,1,3.1.53c1.36.29,2.12.65,2.29,1.07S256.21,136.16,255.37,136.78Zm.18-10.77a31.72,31.72,0,0,1-2.45,2.18h5.3l1.52-1.94c.2-.42.48-.59.84-.5a5.38,5.38,0,0,1,1.7,1.31,6.33,6.33,0,0,1,1.33,1.55q.07.63-.42.51h-6.06a3.32,3.32,0,0,1,2.35,2.86c0,1.21-.76,2-2.19,2.36a2,2,0,0,1-1.85-2.44,3.62,3.62,0,0,0-1.34-2.78h-2.19a64,64,0,0,1-8,6.22c-.61.28-.81.14-.59-.43a32.81,32.81,0,0,0,6.66-12.19c.09-.28.26-.36.51-.25a36.7,36.7,0,0,1,5.57,1.81c.66.37.91.63.74.8,0,.25-.14.48-.49.68A1.64,1.64,0,0,1,255.55,126Zm13.87,10.61v2h3.36v-4.21a2,2,0,0,1-1.68-2.36,3,3,0,0,0-1.43-3h-1a39.19,39.19,0,0,1-7.5,5.63q-1,.3-.75-.42a29.26,29.26,0,0,0,6.32-11c.11-.58.31-.81.59-.67a35.07,35.07,0,0,1,5.36,2.24c.63.42.86.71.69.88-.14.42-.7.67-1.68.76a17.61,17.61,0,0,0-1.85,1.68h7.66l1.51-2.11a.9.9,0,0,1,1-.58,6.76,6.76,0,0,1,2,1.41,6.51,6.51,0,0,1,1.55,1.7q.09.63-.42.51H272.79a3.59,3.59,0,0,1,2.78,3,2.15,2.15,0,0,1-1.6,1.93,18.71,18.71,0,0,1,2.94.85c.87.33,1.32.73,1.34,1.18,0,.11-.33.42-1,.92v1.6h.59l1.43-2a.8.8,0,0,1,.85-.42,6.39,6.39,0,0,1,1.89,1.31,6.26,6.26,0,0,1,1.47,1.56q.07.54-.42.42h-5.81v6.56h.92l1.77-2.11c.2-.47.45-.67.76-.59a6.62,6.62,0,0,1,2.1,1.42,6.53,6.53,0,0,1,1.6,1.7q.12.63-.51.51l-20.95,0-.84-1.1c1.4.11,2.36.17,2.86.17h.17v-6.56h-2.18l-.84-1a26.34,26.34,0,0,0,3,.17v-1.35a17.37,17.37,0,0,0-.17-2.69c-.19-.67-.14-1,.17-.93a22.31,22.31,0,0,1,3,.55c1.46.34,2.27.72,2.44,1.14C270.82,135.61,270.43,136,269.42,136.62Zm-.86,13.13h6.32l1.43-1.42q.58-1,1.68,0l3.28,2.61c.62.59.19,1.12-1.26,1.6v5a19.15,19.15,0,0,0,0,2c0,1.12.08,2.18.16,3.16q.25,1.93-3.36,2c-1,.11-1.43-.14-1.43-.76v-1.85H267.8v1.26c-.28.73-1.26,1.18-2.94,1.34q-2.07.3-1.68-1.26a26,26,0,0,0,.21-3c0-1.22,0-2.19,0-2.92V152a8.66,8.66,0,0,0-.25-2.69c-.22-.61-.14-.9.25-.84s1.27.16,2.46.38A7.92,7.92,0,0,1,268.56,149.75Zm-.75,1.93v3.79h7.57V150.6H268.9C268.9,150.87,268.53,151.23,267.81,151.68Zm0,9.51h7.57v-4.8H267.8Zm1.61-15.14h3.37v-6.56h-3.36Z"/><path class="cls-6" d="M300,132.87a40,40,0,0,1,3.87,1.85c.53.34.72.59.58.76-.08.36-.53.64-1.34.84-1.3,1.48-2.78,3.05-4.47,4.71h3.45l1.77-2.19c.2-.47.45-.67.76-.58a6.75,6.75,0,0,1,2.17,1.47,7.38,7.38,0,0,1,1.7,1.81q.07.56-.42.42l-21.46,0-.93-1.09c1.63.11,3.4.17,5.31.17h6.39a33.29,33.29,0,0,0,1.69-7.58C298.93,133,299.24,132.81,300,132.87Zm6.39-.33-18.76,0-.93-1.1a27.18,27.18,0,0,0,3.12.17h10.6l1.68-2.35c.28-.48.57-.67.85-.59a8,8,0,0,1,2.14,1.54,8.2,8.2,0,0,1,1.81,1.92Q307,132.66,306.36,132.54Zm-12.73,27.83v2.87c-.29.84-1.32,1.31-3.12,1.42-1.4.2-2-.2-1.68-1.18.06-.75.1-1.74.13-3s0-2.2,0-2.93V148a18.64,18.64,0,0,0-.16-2.69c-.2-.62-.14-.87.17-.76a22.9,22.9,0,0,1,2.31.53,13.37,13.37,0,0,1,2.73,1h5.14l1-1.43c.36-.73.9-.79,1.6-.17l3.19,2c1,.42.81,1.1-.67,2v8.75a16.21,16.21,0,0,0,0,1.85c0,1.1.08,2.16.16,3.2.08,1.35-1,2-3.11,2-1.1.11-1.63-.12-1.6-.68v-3.28ZM289.87,134c-.34-.56-.17-.79.5-.67a10.13,10.13,0,0,1,3.2,1.68,3.48,3.48,0,0,1,1.51,2.7c.08,1.46-.76,2.32-2.52,2.6-1.44,0-2-.9-1.77-2.69S290.6,134.57,289.87,134Zm2.11-10.1c-.28-.47-.22-.75.17-.84a12.91,12.91,0,0,1,4.52,1.75,4.57,4.57,0,0,1,2.29,3.39q0,2.91-3.2,3-2.52-.09-2.1-3.2a4.36,4.36,0,0,0-.52-2.55A10.47,10.47,0,0,0,292,123.85Zm7.8,29V147h-5.3c-.11.08-.39.25-.84.5v5.3Zm-6.14.83v5.89h6.14v-5.89Zm24.22,10.71c-.84,0-1.26-.19-1.26-.67a4.51,4.51,0,0,0-1.54-2.48,9.78,9.78,0,0,0-2.92-2c-.45-.36-.39-.58.17-.67a27.46,27.46,0,0,0,5.13.62,3,3,0,0,0,3.29-2.38,45,45,0,0,0,.51-7V133.9h-9.76a26,26,0,0,1-4.71,4.87c-.82.42-1,.2-.51-.67a23.26,23.26,0,0,0,3.31-7.21,63.63,63.63,0,0,0,1.5-7.09c.06-.42.26-.56.59-.42a44.85,44.85,0,0,1,5,2.17c.61.38.85.67.71.86a1.62,1.62,0,0,1-1,.68l-.42.16c-1.15,1.91-2.42,3.82-3.79,5.72h7.74l1-1.68c.37-.56.87-.62,1.52-.17l4.54,2.36c1.06.4.95,1-.34,1.77l0,14.13a31.41,31.41,0,0,1-1.27,10.35Q323.67,164.32,317.86,164.35Zm-9.25-7.41c-.25.22-.45.22-.59,0l-1.59-4.88q-.21-1.09.84-.93c.5-.08,1.91-.46,4.23-1.13s5.28-1.61,8.9-2.81c.59,0,.64.25.17.76A57.12,57.12,0,0,0,308.61,156.94Zm.86-18.26c-.37-.42-.22-.64.42-.67a10.84,10.84,0,0,1,4,2.06,5.22,5.22,0,0,1,2,3.67q-.17,3.45-3.2,3.36c-1.76-.11-2.35-1.41-1.76-3.87C311.18,141.18,310.67,139.66,309.47,138.68Z"/><path class="cls-7" d="M335.82,123.48c-.31-.34-.22-.59.25-.76a12,12,0,0,1,5.26,1.25,3.7,3.7,0,0,1,2.14,3.3,2.88,2.88,0,0,1-1.68,2.52h3.37l2-2.61c.28-.48.56-.67.84-.59a8.59,8.59,0,0,1,2.33,1.69,9.69,9.69,0,0,1,1.87,1.93c.06.43-.08.59-.42.51h-6.06q1.47.67,2.76,1.35c.85.45,1.28.84,1.28,1.18s-.51.76-1.52.93c-.73,1.31-1.42,2.55-2.08,3.7a26.75,26.75,0,0,1-2.72,3.78h2.44l1.77-2.52c.25-.56.56-.79.93-.67a9.43,9.43,0,0,1,2.31,1.68,13.75,13.75,0,0,1,2,1.94c.12.36-.05.5-.5.42l-23,0-.93-1.1a51.25,51.25,0,0,0,5.3.26h7.83a51.75,51.75,0,0,0,2.28-10.94H330.26l-.76-1.1c1.6.12,3.37.17,5.31.18h4.46a2.48,2.48,0,0,1-1.18-2.36A4.65,4.65,0,0,0,335.82,123.48Zm1.65,34.41v3.54c-.06.42-.42.77-1.1,1a6.25,6.25,0,0,1-2.19.46q-2.1.33-1.68-1.35c.06-.76.1-1.72.13-2.9s.05-2.15.05-2.9v-7a13.32,13.32,0,0,0-.16-2.52c-.31-.62-.23-1,.25-1.1a8.39,8.39,0,0,1,2.36.64,9.8,9.8,0,0,1,2.77,1.47H344l1.1-1.35c.44-.64,1-.67,1.59-.08l3.62,2.44c1,.51.78,1.21-.76,2.11v4a17.56,17.56,0,0,0,0,1.85,29.86,29.86,0,0,0,.25,3.19q.25,2.07-3.62,2.1-1.63.17-1.59-.75V157.9Zm-4-25.24c-.54-.71-.4-1,.42-1a10.4,10.4,0,0,1,4,2.15,5.36,5.36,0,0,1,1.89,4,3.58,3.58,0,0,1-.74,2.14,2.58,2.58,0,0,1-2.46.88c-1.63-.31-2.24-1.6-1.85-3.87A5.47,5.47,0,0,0,333.46,132.65Zm11.08,24.41v-8.92h-6.23c-.08.2-.36.42-.84.68v8.24ZM365,149.67a12.74,12.74,0,0,0-1.21-5.78,13.86,13.86,0,0,0-3.15-4l2.7-11.11h-4.21c-.08.2-.36.42-.84.67l0,27.52a18.72,18.72,0,0,0,0,1.91c0,1.14.09,2.3.17,3.47q.25,2-3.62,2c-1.1.11-1.63-.11-1.6-.68l0-34.58a16.78,16.78,0,0,0-.16-2.69c-.2-.67-.14-1,.17-.93a13.51,13.51,0,0,1,3.38,1c1.62.62,2.34,1.11,2.17,1.48h4.37l1.44-1.85a.84.84,0,0,1,1.34-.08l4.29,3.54c.81.62.78,1.09-.09,1.43l-1.17.08-6.91,8.83a21.63,21.63,0,0,1,5.86,4.15,9.69,9.69,0,0,1,2.63,7.22q-.81,7-7.25,7.82c-.56,0-.81-.28-.75-.85a6.5,6.5,0,0,0-1.08-2.63,7.19,7.19,0,0,0-2.29-2.33c-.56-.51-.47-.82.26-.93a9.91,9.91,0,0,0,4,.43Q364.95,152.54,365,149.67Z"/><path class="cls-8" d="M372.16,136.13c-.31-.36-.34-.64-.08-.84a10.08,10.08,0,0,1,4.58.85,3.53,3.53,0,0,1,2.14,3.28,2.65,2.65,0,0,1-2.52,2.69c-1.55-.08-2.25-1-2.1-2.78a2.46,2.46,0,0,0-.55-2A3.68,3.68,0,0,0,372.16,136.13Zm12.29-3.85-4.39,17.83a19.44,19.44,0,0,0-.26,3.79,9,9,0,0,0,0,1.68,8.47,8.47,0,0,0,.46,1.51,6.6,6.6,0,0,1-.09,5,3.36,3.36,0,0,1-2.95,2q-3.69-.09-2.94-5a9.51,9.51,0,0,0,.19-1.37c0-.29.07-.82.15-1.57a7,7,0,0,0-.46-2.53,2.66,2.66,0,0,0-1.72-1.85c-.62-.37-.7-.7-.25-1l2.61.17c.25.14.56-.14.92-.84l8.1-18.34C384.22,131.41,384.42,131.55,384.45,132.28Zm-8.75-7.67c-.47-.28-.53-.53-.16-.76a12.82,12.82,0,0,1,5.51.26,4,4,0,0,1,3,3.12,2.93,2.93,0,0,1-2.36,3.28c-1.88.05-2.91-.71-3.11-2.28A4.64,4.64,0,0,0,375.7,124.61Zm16.22,24.75q-.44,12.63-11.71,15c-.65,0-.73-.28-.25-.67a13,13,0,0,0,5.62-6.2,20.19,20.19,0,0,0,1.63-8.18v-2.78a19.49,19.49,0,0,0-.16-2.69c-.2-.62-.14-.9.16-.84a30.83,30.83,0,0,1,3.31.44c1.52.27,2.39.63,2.58,1.08,0,.39-.36.73-1.18,1Zm6.91-15.14q-2.15,1.31-4,2.19c-1.24.59-2.63,1.17-4.17,1.76l14.22.18a8.2,8.2,0,0,0-3-3.36c-.39-.45-.22-.73.51-.85a20.19,20.19,0,0,1,5.89,1.86,4.53,4.53,0,0,1,2.85,3.79c-.14,2.1-1.21,3.2-3.2,3.28-1.31-.2-2.13-1.38-2.43-3.54A142.88,142.88,0,0,0,387,142.29l-1.59-4.12c-.51-.54-.45-.82.17-.84a14.55,14.55,0,0,0,5.64-2.54,17,17,0,0,0,3.79-3.51h-10.6l-.85-1.1c1.66.12,3.45.17,5.39.17h7.15c-1.15-.39-1.62-1.35-1.43-2.86a2.64,2.64,0,0,0-.56-2.15,5.06,5.06,0,0,0-1.54-1.3q-.63-.72,0-.84a12.38,12.38,0,0,1,5.37,1,3.84,3.84,0,0,1,2.46,3.43,2.93,2.93,0,0,1-2.45,2.69h6.48l2.28-3.36a.92.92,0,0,1,.92-.26,8.53,8.53,0,0,1,2.46,1.88,10.58,10.58,0,0,1,2,2.25q.07.56-.42.42H397.91l1.79,1.2a3.14,3.14,0,0,1,1.07,1c.08.5-.28.7-1.09.59C399.48,134.09,399.2,134.14,398.83,134.22Zm-.17,11.28,0,11.61c0,.2,0,.84,0,1.94s.08,2.13.17,3.11c.11,1.35-.9,2-3,2-1.38.19-1.94-.23-1.69-1.27a23,23,0,0,0,.22-2.92c0-1.19,0-2.15,0-2.88V146.25a13.31,13.31,0,0,0-.25-2.69c-.22-.67-.14-1,.26-.93a17,17,0,0,1,3,.6q2.1.54,2.4,1.26C399.72,144.88,399.36,145.22,398.66,145.5Zm7.06,0v12.37c-.06,1.06.48,1.54,1.6,1.43h1.43c.7.11,1.28-.27,1.73-1.16a41.7,41.7,0,0,0,2-6.49c.34-.4.59-.28.76.33a23.79,23.79,0,0,0-.3,5.41,4.53,4.53,0,0,0,1,2.5,2.66,2.66,0,0,1-.22,2.51c-.5,1.1-1.78,1.73-3.83,1.87H405.2c-2.66-.17-3.93-1.46-3.78-3.87V146a19.82,19.82,0,0,0-.16-2.7c-.28-.67-.23-1,.17-.92a18.41,18.41,0,0,1,3,.74c1.43.44,2.25.89,2.44,1.37C407.1,144.72,406.71,145.06,405.72,145.51Z"/><path class="cls-9" d="M427,136.61l-.34.33a42.32,42.32,0,0,1-10.95,11q-.63.12-.42-.51a33.61,33.61,0,0,0,6.41-14.13c0-.36.23-.45.59-.25,2.41.84,4,1.43,4.71,1.75s1.12.56,1.18.7a.62.62,0,0,1-.34.86A1.56,1.56,0,0,1,427,136.61Zm1.08,10.52h-5.89l-.92-1.09a22.08,22.08,0,0,0,2.69.17l18.09,0,1.35-1.52a2.33,2.33,0,0,1,1-.75,14.78,14.78,0,0,1,2.92,1.72,25.55,25.55,0,0,1,2.8,2.07c.47.64-.09,1-1.68,1.17a68.21,68.21,0,0,1-8.09,7.4,35.28,35.28,0,0,0,16.49,1.2c.51.16.59.44.25.84a8.88,8.88,0,0,0-5.05,5.38c-.06.61-.45.87-1.18.75a29,29,0,0,1-15-5q-8,4.62-19.86,4.7c-.4-.23-.45-.48-.17-.76a61.86,61.86,0,0,0,8.9-2.52A28.73,28.73,0,0,0,433,156.3,21.16,21.16,0,0,1,428.1,147.13ZM434,131.48v12.29c-.06.45-.43.84-1.12,1.17a5,5,0,0,1-2.25.51c-1.51.22-2.13-.23-1.85-1.35a24.5,24.5,0,0,0,.21-2.92c0-1.22.05-2.21.05-3V131H417.77l-.84-1.09c1.65.11,3.45.17,5.39.17h12.36a2.5,2.5,0,0,1-1.68-3,2.39,2.39,0,0,0-.69-2.31L430.48,123a.63.63,0,0,1,.17-.67,13.92,13.92,0,0,1,6,1.08,4.1,4.1,0,0,1,2.79,3.81,3.13,3.13,0,0,1-2.7,2.85l11.11,0,2.19-2.86c.34-.56.65-.79.93-.68a9.5,9.5,0,0,1,2.54,1.86,10.42,10.42,0,0,1,2.08,2.19c.09.36-.08.5-.5.42H443.6a4.94,4.94,0,0,1-.76.5v6.73a17.37,17.37,0,0,0,0,1.92c0,1.13.08,2.18.16,3.13q.25,2.1-3.62,2.19c-1.15.14-1.71-.15-1.68-.85V131h-2.86A4.86,4.86,0,0,1,434,131.48Zm1.66,22.64a40.94,40.94,0,0,0,6.57-7H428.69A23.72,23.72,0,0,0,435.67,154.12Zm9-19.09c-.33-.42-.28-.73.17-.93a24.87,24.87,0,0,1,7.36,2.58,6.72,6.72,0,0,1,3.66,5.17,4.35,4.35,0,0,1-.64,2.67,2.9,2.9,0,0,1-2.73,1.29q-3-.3-3-3.88a6.71,6.71,0,0,0-1.66-4.44A10.9,10.9,0,0,0,444.69,135Z"/><path class="cls-10" d="M125.85,18.69h-23.8a92.88,92.88,0,0,1,8.52,5.06c1,.8,1.4,1.29,1.15,1.49.1,1.09-1,1.89-3.42,2.38a98.09,98.09,0,0,1-11.61,24,57,57,0,0,0,30.36,10.56c.79.3.79.74,0,1.34q-7.51,2-9.68,8.33c-.39,1.39-1.14,1.88-2.23,1.49A50.26,50.26,0,0,1,90.45,58.72a59.77,59.77,0,0,1-36.61,15c-1.09-.19-1.23-.54-.44-1A57.92,57.92,0,0,0,84.64,51.58Q73.78,36.25,73.48,18.69H55.78l-1.34-1.93q4.25.38,9.37.45h45.68l5.06-6.4c1-1.34,1.68-1.88,2.08-1.64Q118,9.7,122,13.34A30.3,30.3,0,0,1,126.6,18C126.7,18.6,126.45,18.84,125.85,18.69Zm-51.47,0A53.18,53.18,0,0,0,89.25,45.33,76.91,76.91,0,0,0,99.37,18.69ZM78.84,1.88C77.7,1.09,77.6.59,78.54.39A28.57,28.57,0,0,1,90,2.59q5.06,2.19,5.35,8.07-1,5.73-7,6.25-4.6-.45-5.65-7Q82.56,3.44,78.84,1.88Z"/><path class="cls-11" d="M240.06,10.13H219.38v2.08q.51,3.64-6.25,3.72c-1.94.25-2.88-.2-2.83-1.34V10.13H199.44V13.7c-.1.79-.76,1.49-2,2.08a8.87,8.87,0,0,1-4,.9q-4.1.59-3.27-2.38a41,41,0,0,0,.29-4.17H170.43L169.09,8.2q4.24.29,9.22.29h12.2V6.26a20.45,20.45,0,0,0-.14-4.76c-.25-1.09-.1-1.59.44-1.49a38.27,38.27,0,0,1,5.88,1.08q4.25,1,4.83,2.05c.25.49-.44,1.14-2.08,1.93V8.49H210.3V6.26a27.81,27.81,0,0,0-.44-4.76c-.4-1.09-.25-1.59.44-1.49a43.39,43.39,0,0,1,6,1c2.85.59,4.48,1.31,4.87,2.16.35.34-.34,1-2.08,1.93V8.49H228l3.42-5.06c.74-1,1.34-1.38,1.78-1.19.75.25,2.12,1.34,4.13,3.28a19.45,19.45,0,0,1,3.46,3.87C240.9,10,240.65,10.28,240.06,10.13ZM169.54,30.81c-.6-.6-.4-1,.59-1.19a24.75,24.75,0,0,1,7.85,2c2.4,1.07,3.66,2.69,3.76,4.87a4.62,4.62,0,0,1-4,4.62c-2.33.19-3.77-1.24-4.32-4.32A9.88,9.88,0,0,0,169.54,30.81Zm13.54,30.65q1.56,4.09.37,6.88t-5.58,2.94q-5.28-.45-3.87-6.85a32,32,0,0,0,.89-5.5q.08-4.17-4.76-7.44c-.64-.64-.64-1.09,0-1.34l4,.75c1.44,0,2.28-.45,2.53-1.34l13.69-26.78c.84-.8,1.19-.7,1,.29l-8.33,26.19A19,19,0,0,0,183.08,61.46Zm-8.49-45.53c-.44-.54-.34-.94.3-1.19a25.17,25.17,0,0,1,8.85,2.49q3.87,2,4.1,5.1.07,3.8-4.32,4.61-4,.07-4.16-3.87Q178.54,17.94,174.59,15.93Zm25.15,7.29V20.54l-.15-3.12c-.3-1-.2-1.59.3-1.64,2.23.55,4.76,1.24,7.59,2.09H218l1.34-2.38q1.19-1.78,3.12-.3l4.91,3.27c1.69.84,1.24,2-1.34,3.57v1.49l.3,2.68q.23,3.57-5.06,3.57c-1.88.2-2.78-.2-2.68-1.19V27.39H206.88v.44a2.33,2.33,0,0,1-.45,1.79c-.89.15-1.09.3-.59.45l5.21,3c1.58.75,1.19,1.94-1.19,3.57a21.81,21.81,0,0,0,.44,4.47c0,1.58-.49,2.63-1.63,3.12l5.2,1.23c2.23.52,3.52,1,3.87,1.45,0,.79-.64,1.44-1.93,1.93v1.94H228.3l3.43-4.47c.59-1,1.14-1.38,1.63-1.19a16,16,0,0,1,4,2.94,30.72,30.72,0,0,1,3.42,3.31c.2.75-.05,1-.74.89H218.49a17.86,17.86,0,0,0,10.11,7.7,42.18,42.18,0,0,0,14,1.83c.94.49.84,1.14-.3,1.93q-5.88,3-7.29,7.59c-.5,1.39-1.29,1.83-2.38,1.34A25.22,25.22,0,0,1,223,64.81,29.08,29.08,0,0,1,217,52.23h-1.19v9.38q-.08.53,0,3.42c.05,1.93.15,3.82.29,5.65q.45,3.5-5.8,3.43c-1.93.14-2.87-.2-2.82-1V60.27a65.59,65.59,0,0,1-22.92,11.45c-1.29,0-1.44-.34-.44-1.19A58.12,58.12,0,0,0,195,62.28a78,78,0,0,0,8.92-10.05H187.69L186.2,50.3a93.73,93.73,0,0,0,9.52.45h11.76q-.07-3.28-.3-6.55a5.09,5.09,0,0,1-2.09.3c-1.53.2-2.33-.15-2.38-1V41.67h-6V43.9Q196,45.69,192,45.84c-1.88.39-2.63-.4-2.23-2.38.1-1.39.17-3,.22-4.73s.08-2.46.08-2.12a31.82,31.82,0,0,0-.3-4.76c-.35-1.19-.25-1.73.3-1.64a21.32,21.32,0,0,1,3.27.75c1.59.45,3,.89,4.17,1.34h4.91l1.48-2.23a6.3,6.3,0,0,1-1.78.14c-2.18.4-3.08-.39-2.68-2.38C199.59,26.4,199.69,24.86,199.74,23.22Zm3,16.81v-6.1h-4.46a17.35,17.35,0,0,1-1.49.9V40Zm15.92-14.28V19.5H208.37c-.2.15-.7.45-1.49.9v5.35ZM221,41.67v.45q-.58,2.24-4.76,2.38c-2.23.4-3.12-.4-2.67-2.38.09-1.39.17-2.87.22-4.43s.07-1.72.07-.48a44.79,44.79,0,0,0-.29-5.06c-.35-1.19-.25-1.74.29-1.64a26.69,26.69,0,0,1,3.54.71l4.35,1.08h5.35l1.19-2.38c.6-1,1.49-1.19,2.68-.45l5.66,3.13c1.53.44,1.09,1.63-1.34,3.57a40,40,0,0,0,.3,4.31c.24,2.38-1.44,3.57-5.06,3.57-1.64.2-2.43-.2-2.38-1.19V41.67ZM228.16,40v-6.1H222.5c-.3.15-.79.45-1.49.9V40Z"/><path class="cls-12" d="M327.39,4.83v6.1h14.72l4.47-5.65c.69-1.34,1.34-1.88,1.93-1.64A44.2,44.2,0,0,1,354,7.4c2.8,2.11,4.4,3.58,4.8,4.43.15.64-.15.89-.89.74h-30.5v9.67h13.24l4.46-4.76c.64-.89,1.24-1.34,1.79-1.34a18.92,18.92,0,0,1,4.53,3.16,18.84,18.84,0,0,1,3.8,3.69c.1.74-.15,1-.75.89H291.38l-1.49-1.94c3,.2,6.1.3,9.38.3h17.4V12.57h-29.9l-1.49-1.93c2.83.2,5.9.29,9.22.29h22.17V6.32a27.81,27.81,0,0,0-.44-4.76C315.83.47,316,0,316.67.07a57.11,57.11,0,0,1,6.88,1q4.88.9,5.47,2.16C329.27,3.6,328.72,4.14,327.39,4.83Zm23.06,30.06V40a61.32,61.32,0,0,0,.44,9.07q.53,3.79-7.14,4c-2.18.3-3.22-.25-3.12-1.64V47.54H304v6.1a19.18,19.18,0,0,1-5.43,12.83A28.5,28.5,0,0,1,287.07,74c-.9.2-1-.1-.3-.89q7.67-7.66,7.73-19.49V34.44a32.38,32.38,0,0,0-.29-4.76c-.35-1.19-.25-1.73.29-1.64a41.84,41.84,0,0,1,4.84,1.05c2.33.59,4.24,1.09,5.73,1.48h34.37l2.23-2.23c.44-.94,1.44-.79,3,.45l6.7,2.83Q354.54,33.41,350.45,34.89Zm-44.19-2.68c-.15.65-.89,1.34-2.23,2.08V46.05h13.83V32.21Zm23.8,0c-.1.89-.84,1.64-2.23,2.23V46.05h12.8V32.21Z"/><path class="cls-13" d="M426.06,17.61a70.2,70.2,0,0,1,6.85,3.27c.94.6,1.29,1,1,1.34-.15.65-.94,1.14-2.38,1.49q-3.42,3.95-7.89,8.33h6.1l3.13-3.87c.35-.84.79-1.19,1.34-1a12.07,12.07,0,0,1,3.83,2.61,13,13,0,0,1,3,3.19c.1.65-.15.9-.74.75H402.41l-1.64-1.94c2.88.2,6,.3,9.38.3h11.3a58.82,58.82,0,0,0,3-13.39C424.23,17.86,424.77,17.51,426.06,17.61ZM437.37,17H404.19l-1.63-1.94a50.68,50.68,0,0,0,5.5.3h18.75l3-4.17c.5-.84,1-1.19,1.49-1a14,14,0,0,1,3.8,2.72,15.05,15.05,0,0,1,3.2,3.38C438.46,16.92,438.17,17.16,437.37,17ZM414.91,66.26v5.06q-.75,2.24-5.51,2.53c-2.48.35-3.47-.35-3-2.08.09-1.34.17-3.09.22-5.25s.07-3.88.07-5.17v-17a35.2,35.2,0,0,0-.29-4.76c-.35-1.09-.25-1.54.29-1.34a40.6,40.6,0,0,1,4.09.93A23.26,23.26,0,0,1,415.65,41h9.08l1.78-2.53q1-1.94,2.83-.3L435,41.71q2.76,1.13-1.19,3.57V60.76a30.38,30.38,0,0,0,0,3.27c.05,1.93.15,3.82.3,5.65q.22,3.57-5.51,3.57c-1.93.2-2.87-.19-2.82-1.19v-5.8Zm-6.7-46.72c-.59-1-.3-1.38.89-1.19a18.32,18.32,0,0,1,5.66,3,6.14,6.14,0,0,1,2.68,4.76c.14,2.58-1.34,4.12-4.47,4.61-2.53,0-3.57-1.58-3.12-4.76Q410.15,21.19,408.21,19.54Zm3.72-17.85c-.5-.84-.4-1.34.3-1.49a22.91,22.91,0,0,1,8,3.09,8.05,8.05,0,0,1,4,6c.05,3.42-1.84,5.21-5.65,5.35-3-.09-4.22-2-3.72-5.65a7.72,7.72,0,0,0-.93-4.5A19.1,19.1,0,0,0,411.93,1.69Zm13.84,51.18V42.61h-9.38c-.19.14-.69.44-1.48.89v9.37Zm-10.86,1.49V64.77h10.86V54.36Zm42.85,18.89c-1.49,0-2.24-.34-2.24-1.19a8,8,0,0,0-2.71-4.38,17.58,17.58,0,0,0-5.17-3.5c-.8-.65-.7-1,.3-1.19A49.08,49.08,0,0,0,457,64.07q4.62.11,5.8-4.21a76.34,76.34,0,0,0,.9-12.34V19.4H446.45A45.82,45.82,0,0,1,438.12,28q-2.16,1.13-.9-1.19a40.88,40.88,0,0,0,5.84-12.75A110,110,0,0,0,445.7,1.54c.1-.74.45-1,1.05-.74a76.79,76.79,0,0,1,8.85,3.83c1.09.67,1.51,1.18,1.26,1.52a2.78,2.78,0,0,1-1.78,1.19l-.75.3q-3,5.06-6.69,10.12h13.69l1.78-3c.65-1,1.54-1.09,2.68-.29l8,4.16q2.83,1.05-.59,3.13v25A55.91,55.91,0,0,1,471,65.07Q468,73.19,457.76,73.25ZM441.39,60.16c-.45.4-.79.4-1,0l-2.83-8.63c-.25-1.29.25-1.83,1.49-1.63q1.33-.23,7.48-2t15.73-5c1,0,1.14.45.3,1.34A101.07,101.07,0,0,0,441.39,60.16Zm1.49-32.28c-.65-.75-.4-1.14.74-1.19a19.25,19.25,0,0,1,7.11,3.64,9.22,9.22,0,0,1,3.6,6.47q-.3,6.11-5.65,6c-3.12-.19-4.17-2.48-3.12-6.84Q446.07,30.48,442.88,27.88Z"/><line class="cls-14" y1="147.22" x2="45.3" y2="147.22"/><line class="cls-15" x1="482.7" y1="147.92" x2="528" y2="147.92"/></g></g></svg>